<svg width="32" height="33" viewBox="0 0 32 33" fill="none" xmlns="http://www.w3.org/2000/svg">
<rect y="0.571289" width="32" height="31.9999" rx="16" fill="#CAD3FF"/>
<path d="M13.9999 23.2381H17.9999C21.3333 23.2381 22.6666 21.9047 22.6666 18.5714V14.5714C22.6666 11.2381 21.3333 9.90479 17.9999 9.90479H13.9999C10.6666 9.90479 9.33325 11.2381 9.33325 14.5714V18.5714C9.33325 21.9047 10.6666 23.2381 13.9999 23.2381Z" fill="#1740FF"/>
<path d="M18.8534 17.6448C18.1001 18.3981 17.0201 18.6314 16.0667 18.3314L14.3401 20.0514C14.2201 20.1781 13.9734 20.2581 13.7934 20.2314L12.9934 20.1248C12.7267 20.0914 12.4867 19.8381 12.4467 19.5781L12.3401 18.7781C12.3134 18.6048 12.4001 18.3581 12.5201 18.2314L14.24 16.5115C13.9467 15.5581 14.1734 14.4781 14.9267 13.7248C16.0067 12.6448 17.7667 12.6448 18.8534 13.7248C19.9334 14.7981 19.9334 16.5581 18.8534 17.6448Z" fill="#CAD3FF"/>
<path d="M14.9666 19.4249L14.3999 18.8516" stroke="#CAD3FF" stroke-width="1.14286" stroke-miterlimit="10" stroke-linecap="round" stroke-linejoin="round"/>
<path d="M16.9298 15.7049H16.9358" stroke="#1740FF" stroke-width="1.71428" stroke-linecap="round" stroke-linejoin="round"/>
</svg>
