<svg width="360" height="272" viewBox="0 0 360 272" fill="none" xmlns="http://www.w3.org/2000/svg">
<g clip-path="url(#clip0_2115_3734)">
<path d="M25.1186 92.9859C25.0637 93.2845 25.0729 93.5914 25.1459 93.8861C25.2188 94.1808 25.3536 94.4566 25.5414 94.6951C25.7293 94.9337 25.9658 95.1294 26.2352 95.2694C26.5046 95.4094 26.8007 95.4904 27.1038 95.507L27.3019 95.5175" stroke="black" stroke-miterlimit="10"/>
<path d="M151.524 47.1821H119.819C117.787 47.1821 116.14 48.829 116.14 50.8606V103.813C116.14 105.844 117.787 107.491 119.819 107.491H151.524C153.555 107.491 155.202 105.844 155.202 103.813V50.8606C155.202 48.829 153.555 47.1821 151.524 47.1821Z" fill="#3FBDF1"/>
<path d="M81.9745 67.1239L81.7868 71.2257L81.2593 74.5893L78.3544 93.1861L78.2773 93.6782L78.1584 92.6939L77.8581 90.2187L81.718 67.5639L81.9745 67.1239Z" fill="#3FBDF1"/>
<path d="M82.6835 51.2193L82.6105 52.7833C82.6105 51.8908 82.6835 51.2193 82.6835 51.2193Z" fill="#3FBDF1"/>
<path d="M159.483 47.9766V133.668C159.483 134.861 159.009 136.004 158.166 136.847C157.323 137.691 156.18 138.165 154.987 138.166H85.9637C85.9929 137.749 86.0179 137.332 86.0471 136.915C86.0701 136.462 86.0951 136.018 86.118 135.578C85.2158 136.003 84.2897 136.376 83.3446 136.694C82.6356 136.94 81.9099 137.153 81.1821 137.34L81.1091 137.288C80.5416 136.871 80.0805 136.325 79.7631 135.696C79.4457 135.068 79.281 134.373 79.2824 133.668V105.379L80.348 97.6486L80.7296 94.8814L80.7588 94.2558L81.0632 87.4327V87.3785L81.1633 85.0534L81.1738 84.9178L81.1884 84.5613L81.6054 75.0126L81.7743 71.2341L82.5939 65.9874C82.3374 66.4608 82.1163 66.857 81.9683 67.1323L82.0496 65.2305L82.3791 58.1446V58.1237L82.6147 52.8271C82.6147 53.7905 82.7065 55.0062 83.0693 55.9237C83.2155 56.3582 83.4895 56.7383 83.8555 57.0144L83.9222 57.0623C83.9449 57.0771 83.9686 57.0903 83.9931 57.1019V57.0686L85.09 50.0953L85.4799 49.526L87.4151 46.6754C87.4175 46.6717 87.4188 46.6673 87.4188 46.6629C87.4188 46.6585 87.4175 46.6541 87.4151 46.6504L87.6403 44.8403L87.7612 43.8707H87.9072L89.5379 43.8081H89.5567L95.7584 43.5662H95.8001L108.062 43.4932H154.981C156.173 43.491 157.316 43.9621 158.16 44.8028C159.005 45.6436 159.48 46.7852 159.483 47.9766Z" fill="#3862F8"/>
<path d="M158.418 49.1152V132.527C158.418 133.689 157.956 134.803 157.135 135.624C156.314 136.445 155.2 136.907 154.039 136.907H86.043C86.0659 136.454 86.0909 136.01 86.1139 135.57C85.2116 135.995 84.2856 136.367 83.3404 136.686C83.3104 136.673 83.2798 136.662 83.2486 136.652C82.4 136.345 81.6664 135.785 81.1475 135.046C80.6285 134.308 80.3494 133.428 80.348 132.525V94.7813L79.2824 95.2985L79.2136 95.3318L79.0697 94.9753L78.3544 93.1902L78.1584 92.6981L76.3525 88.1897C76.3525 88.1897 79.7891 74.3224 82.0559 65.2263C82.89 61.8898 83.5614 59.1893 83.8471 58.057C83.9326 57.7192 83.9868 57.5211 83.9952 57.4877C83.9957 57.4801 83.9957 57.4724 83.9952 57.4648C83.9986 57.4002 83.9887 57.3356 83.966 57.275C83.9366 57.2033 83.9025 57.1336 83.8638 57.0665C83.8602 57.0522 83.8538 57.0387 83.845 57.0268C83.61 56.627 83.3459 56.2451 83.0547 55.8841L82.6773 51.2318L82.7398 51.1838L83.0255 50.9565L84.969 49.4134L85.4236 48.2164L86.3161 45.8767L86.7123 44.8341H87.6528H87.8947H89.5984L95.8919 44.8153H96.432L108.37 44.7423H154.039C155.199 44.7423 156.312 45.2028 157.133 46.0227C157.954 46.8426 158.416 47.9549 158.418 49.1152Z" fill="#3862F8"/>
<path d="M79.2824 94.8814V133.668C79.2812 134.372 79.4456 135.065 79.7622 135.694C80.0788 136.322 80.5388 136.867 81.1049 137.284L81.1779 137.336" stroke="black" stroke-miterlimit="10"/>
<path d="M85.9595 138.158H154.983C156.175 138.158 157.318 137.685 158.162 136.843C159.005 136.002 159.48 134.86 159.483 133.668V47.9766C159.484 47.386 159.368 46.801 159.142 46.2552C158.916 45.7093 158.585 45.2133 158.168 44.7956C157.75 44.3778 157.254 44.0465 156.709 43.8205C156.163 43.5945 155.578 43.4784 154.987 43.4786H108.068L95.8063 43.5516H95.7646L89.5525 43.585H89.5191L87.903 43.5954" stroke="black" stroke-miterlimit="10"/>
<path d="M151.522 111.92H87.9072C85.8756 111.92 84.2287 113.567 84.2287 115.599V129.871C84.2287 131.902 85.8756 133.549 87.9072 133.549H151.522C153.553 133.549 155.2 131.902 155.2 129.871V115.599C155.2 113.567 153.553 111.92 151.522 111.92Z" fill="white"/>
<path opacity="0.54" d="M91.6024 123.006H117.917" stroke="white" stroke-miterlimit="10"/>
<path d="M130.489 116.738H89.9174C89.2287 116.738 88.6704 117.296 88.6704 117.985V127.796C88.6704 128.485 89.2287 129.043 89.9174 129.043H130.489C131.178 129.043 131.736 128.485 131.736 127.796V117.985C131.736 117.296 131.178 116.738 130.489 116.738Z" fill="#1740FF"/>
<path d="M123.028 121.919C123.73 121.919 124.3 121.35 124.3 120.647C124.3 119.945 123.73 119.375 123.028 119.375C122.325 119.375 121.756 119.945 121.756 120.647C121.756 121.35 122.325 121.919 123.028 121.919Z" fill="white"/>
<path d="M119.472 126.405C119.495 125.477 119.88 124.594 120.544 123.945C121.209 123.297 122.1 122.934 123.029 122.934C123.958 122.934 124.849 123.297 125.514 123.945C126.178 124.594 126.563 125.477 126.585 126.405H119.472Z" fill="white"/>
<path d="M142.601 116.738C141.36 116.735 140.147 117.101 139.115 117.788C138.082 118.475 137.277 119.453 136.8 120.598C136.324 121.744 136.198 123.004 136.439 124.221C136.679 125.438 137.275 126.556 138.151 127.434C139.027 128.312 140.144 128.91 141.361 129.153C142.577 129.396 143.838 129.272 144.984 128.798C146.13 128.324 147.11 127.521 147.799 126.49C148.489 125.459 148.856 124.246 148.856 123.006C148.858 122.183 148.698 121.369 148.384 120.608C148.07 119.848 147.61 119.156 147.029 118.574C146.448 117.992 145.757 117.53 144.998 117.215C144.238 116.9 143.423 116.737 142.601 116.738ZM142.601 127.758C142.477 127.764 142.353 127.745 142.236 127.702C142.12 127.658 142.014 127.592 141.924 127.506C141.834 127.42 141.762 127.317 141.713 127.203C141.665 127.089 141.639 126.966 141.639 126.842C141.639 126.718 141.665 126.595 141.713 126.481C141.762 126.366 141.834 126.263 141.924 126.178C142.014 126.092 142.12 126.026 142.236 125.982C142.353 125.939 142.477 125.919 142.601 125.925C142.836 125.937 143.058 126.038 143.221 126.209C143.384 126.379 143.474 126.606 143.474 126.842C143.474 127.078 143.384 127.304 143.221 127.475C143.058 127.646 142.836 127.747 142.601 127.758ZM143.754 120.71C143.56 122.07 143.397 123.498 142.991 124.816C142.899 125.135 142.3 125.135 142.204 124.816C141.918 123.82 141.698 122.807 141.548 121.782C141.422 121.039 140.989 119.832 141.404 119.113C141.771 118.466 142.803 118.389 143.397 118.727C144.129 119.146 143.841 120.034 143.754 120.71Z" fill="#1740FF"/>
<path d="M158.774 136.083C162.285 140.781 165.086 145.969 167.088 151.481C171.597 163.805 172.116 178.59 163.335 189.196C157.625 196.092 148.375 198.142 139.81 198.104" stroke="#CCDDE2" stroke-miterlimit="10"/>
<path d="M54.5799 66.0771C50.4092 55.025 49.9818 42.0711 55.1554 31.2713C62.162 16.6595 78.6631 9.81764 94.2215 10.4683C113.131 11.2607 128.239 23.3554 137.045 39.6375C137.727 40.8887 138.374 42.1774 138.987 43.4786" stroke="#CCDDE2" stroke-miterlimit="10"/>
<path d="M149.257 90.7796C148.95 93.3951 147.864 95.8579 146.14 97.8487C144.417 99.8394 142.134 101.266 139.59 101.944C137.045 102.621 134.355 102.519 131.87 101.649C129.384 100.779 127.217 99.1825 125.65 97.0661C124.083 94.9496 123.189 92.4111 123.082 89.7799C122.976 87.1487 123.663 84.5462 125.053 82.3101C126.444 80.074 128.475 78.3075 130.882 77.2398C133.289 76.172 135.962 75.8523 138.553 76.3222C138.666 76.3445 138.774 76.3896 138.87 76.4548C138.965 76.52 139.046 76.6039 139.108 76.7014C139.17 76.7989 139.212 76.908 139.23 77.022C139.249 77.1361 139.244 77.2527 139.216 77.3649L138.955 78.3741L136.635 87.4411C136.598 87.5857 136.599 87.7375 136.64 87.8812C136.68 88.0249 136.757 88.1556 136.864 88.2599C136.971 88.3643 137.103 88.4388 137.247 88.4759C137.392 88.5129 137.544 88.5113 137.688 88.4712L146.698 85.9501L147.931 85.606C148.041 85.5754 148.156 85.5675 148.27 85.5827C148.384 85.5978 148.493 85.6357 148.591 85.6941C148.69 85.7526 148.776 85.8303 148.843 85.9226C148.911 86.015 148.96 86.1201 148.986 86.2316C149.342 87.7201 149.433 89.2594 149.257 90.7796Z" fill="white"/>
<path d="M149.576 81.4375C149.619 81.548 149.638 81.6663 149.632 81.7846C149.626 81.903 149.595 82.0187 149.542 82.1245C149.488 82.2302 149.413 82.3236 149.321 82.3985C149.23 82.4734 149.123 82.5282 149.009 82.5594L148.16 82.7971L140.82 84.8469C140.677 84.8853 140.526 84.8856 140.383 84.8478C140.24 84.81 140.109 84.7355 140.004 84.6315C139.899 84.5276 139.822 84.398 139.782 84.2554C139.743 84.1128 139.741 83.9624 139.777 83.8189L141.666 76.4369L141.85 75.7279C141.878 75.615 141.929 75.5092 142 75.417C142.071 75.3248 142.16 75.2482 142.261 75.192C142.363 75.1358 142.476 75.1013 142.591 75.0905C142.707 75.0797 142.824 75.093 142.934 75.1294C144.427 75.6459 145.793 76.4761 146.938 77.5642C148.084 78.6522 148.983 79.9729 149.576 81.4375Z" fill="white"/>
<path d="M136.009 58.9767C138.006 58.9767 139.625 57.3578 139.625 55.3607C139.625 53.3637 138.006 51.7448 136.009 51.7448C134.012 51.7448 132.393 53.3637 132.393 55.3607C132.393 57.3578 134.012 58.9767 136.009 58.9767Z" fill="#D7E8F0"/>
<path d="M149.342 63.3495H123.028V64.0731H149.342V63.3495Z" fill="#D7E8F0"/>
<path d="M149.342 66.027H123.028V66.7506H149.342V66.027Z" fill="#D7E8F0"/>
<path d="M149.342 68.4689H123.028V69.1925H149.342V68.4689Z" fill="#D7E8F0"/>
<path d="M80.2562 59.5251C80.1312 60.0931 79.9632 60.6508 79.7537 61.1933C78.8174 63.6957 77.514 64.2963 76.1544 63.9918C75.1451 63.7645 74.1025 63.0513 73.1474 62.2443C73.0712 62.1683 72.9733 62.1179 72.8672 62.1C72.7611 62.082 72.6521 62.0975 72.5552 62.1442C71.0579 63.1181 68.7558 63.6727 67.2314 63.2932C66.097 63.0117 65.3942 62.211 65.7717 60.6762C65.9581 60.0208 66.2338 59.3941 66.5912 58.814C67.9487 56.5202 69.8339 57.1457 71.2581 58.1884C71.8257 58.6177 72.3452 59.1071 72.8075 59.6481C72.8853 59.7505 72.9981 59.8205 73.1243 59.8448C73.2506 59.869 73.3813 59.8458 73.4915 59.7795C75.8312 58.1801 81.2196 54.9103 80.2562 59.5251Z" fill="#3FBDF1"/>
<path d="M60.9922 100.107C60.9922 100.107 60.9192 106.038 57.8267 106.738H57.8162C50.2361 105.6 49.0246 102.24 49.0246 102.24C49.3144 96.0597 51.0411 87.6058 52.4215 82.5573C51.5978 82.8805 50.7908 83.2475 50.0047 83.5999C47.1958 84.8699 44.4744 86.3505 41.7969 87.8853C40.0599 88.8799 38.3374 89.9122 36.6295 90.959C36.469 84.5842 32.6278 84.5988 30.3215 83.431C44.9186 70.5438 57.566 63.9626 65.7717 60.6699C65.3859 62.2047 66.0907 63.0055 67.2314 63.287C66.5453 65.2117 66.7101 67.1615 69.7504 67.6244C69.7984 67.6244 69.8422 67.639 69.8902 67.6432C66.439 71.7346 59.1008 82.649 60.9922 100.107Z" fill="#353642"/>
<path d="M88.2867 134.413C88.2867 134.413 82.3082 138.364 71.7252 138.464C61.1423 138.564 49.8295 134.421 49.8295 134.421C46.9101 125.037 49.2206 102.17 49.2206 102.17C49.1727 103.062 52.4341 105.024 52.4341 105.024C52.4341 105.024 59.3156 108.302 60.6773 103.477C62.039 98.6516 61.0381 101.686 62.5061 103.815C63.9742 105.944 64.3829 105.377 64.2035 108.519C64.0242 111.662 66.3743 111.593 67.148 110.169C67.4462 109.625 67.5233 108.709 67.7986 107.844C68.0405 107.877 69.9986 108.098 69.3334 105.869C69.9903 105.556 70.912 105.431 72.2236 105.619C77.2284 106.338 83.0526 104.557 83.0526 104.557C89.6422 113.987 88.2867 134.413 88.2867 134.413Z" fill="#3862F8"/>
<path d="M80.3709 87.9645C80.3709 87.9645 81.8473 85.8479 88.2513 85.998C88.2513 85.998 87.0835 78.3679 84.6562 78.9414C84.6562 78.9414 80.0498 85.8291 80.3709 87.9645Z" fill="#3FBDF1"/>
<path d="M83.0985 51.0274C82.9337 51.0962 82.7919 51.1525 82.6814 51.1963L82.4833 51.2651H82.4708L82.4062 51.2881H82.3936C81.0966 50.6083 81.2196 48.9588 81.2196 48.9588C84.7813 48.9859 85.0795 46.0581 85.0795 46.0581C84.8314 44.7131 84.479 44.1167 83.8283 43.8394C83.1777 43.562 82.1455 43.5912 80.5836 43.4911L80.325 43.4724C77.9999 43.2972 76.6048 41.1472 75.998 39.9273C75.8589 39.6573 75.737 39.3787 75.6331 39.0932C73.2287 40.432 71.8378 42.0272 71.0725 43.1804C69.6295 36.0299 77.0136 35.9757 77.0136 35.9757C78.2326 35.812 79.4678 35.8078 80.6879 35.9632C80.9715 36.0362 81.2426 36.1133 81.5032 36.2009C81.6325 36.2426 81.7597 36.2864 81.8869 36.3364C82.0141 36.3865 82.133 36.4344 82.256 36.4845C82.3419 36.517 82.4262 36.5539 82.5083 36.595C84.2509 37.3661 85.739 38.6156 86.7999 40.1984C86.8145 40.2214 86.8291 40.2422 86.8395 40.2631C86.8882 40.337 86.9327 40.4136 86.973 40.4925C89.688 47.4136 84.9481 50.2225 83.0985 51.0274Z" fill="#3862F8"/>
<path d="M83.0985 51.0275C82.4625 50.2559 82.5459 49.2132 82.5459 49.2132C86.1055 49.2404 86.4058 46.3105 86.4058 46.3105C86.02 44.2502 85.4027 43.9458 83.8283 43.8415C83.2465 43.7998 82.5334 43.7873 81.6534 43.7247C81.2876 43.699 80.9273 43.621 80.5836 43.4933C78.0812 42.5695 76.9573 39.3477 76.9573 39.3477C76.6194 39.5353 76.2962 39.7334 75.998 39.9316C75.8589 39.6615 75.737 39.3829 75.6331 39.0974C73.2287 40.4362 71.8378 42.0315 71.0725 43.1846C69.6295 36.0341 77.0136 35.9799 77.0136 35.9799C78.2326 35.8162 79.4678 35.812 80.6879 35.9674C80.9715 36.0404 81.2426 36.1175 81.5032 36.2051C81.6325 36.2468 81.7597 36.2906 81.8869 36.3407C82.0141 36.3907 82.133 36.4387 82.256 36.4887C82.3419 36.5212 82.4262 36.5581 82.5083 36.5992C84.2509 37.3703 85.739 38.6198 86.7999 40.2026C86.8145 40.2256 86.8291 40.2464 86.8395 40.2673C86.8882 40.3412 86.9327 40.4178 86.973 40.4967C89.688 47.4136 84.9481 50.2225 83.0985 51.0275Z" fill="#3862F8"/>
<path d="M108.917 68.4731C108.985 70.402 106.906 72.9544 105.68 74.4517C104.604 75.7633 103.455 77.0812 103.374 76.8101C103.374 76.8101 103.374 76.7872 103.359 76.7768C102.813 74.9 102.108 73.0524 101.38 71.2465C99.6871 67.0405 97.264 62.58 93.4145 59.8649C93.4145 59.8649 93.4145 59.8649 93.4041 59.8545C91.1688 58.1627 88.4706 57.1929 85.6697 57.0748C85.6697 57.0748 87.0209 54.1324 87.7821 52.3412C88.5432 50.5499 88.8247 49.7846 88.8247 49.7846C90.1176 45.8413 89.5775 41.3161 88.7371 40.5342C88.7293 40.5254 88.7192 40.5189 88.708 40.5154C87.9281 38.7721 86.7686 40.1421 86.7686 40.1421L86.7832 40.1713C86.4372 39.7516 86.0653 39.3539 85.6697 38.9806C85.6693 38.9104 85.677 38.8405 85.6926 38.7721C85.7885 38.2257 86.2056 37.7962 86.6685 37.4771C87.4698 36.9467 88.4197 36.6865 89.3794 36.7347C92.0444 36.8223 93.6897 37.9651 94.722 39.5624C95.8752 41.923 95.8188 44.6777 96.0983 47.2301C96.2192 48.3395 96.3068 50.0536 97.289 50.821C97.289 50.821 97.4204 54.6329 100.021 58.816C102.621 62.9992 107.355 66.1647 107.355 66.1647L108.917 68.4731Z" fill="#3862F8"/>
<path d="M78.4608 50.3351C77.7163 51.334 76.5694 51.6781 75.4558 52.1056C72.9285 53.0794 70.6367 52.7478 70.0695 49.7596C69.7046 47.8369 69.6191 45.8684 70.5491 44.0876C71.6627 41.9522 73.625 40.3465 75.631 39.0828C75.631 39.0828 77.3722 43.9729 81.8869 43.5183C86.4016 43.0637 86.2035 49.1486 80.7984 48.9401" stroke="black" stroke-miterlimit="10"/>
<path d="M85.1838 38.2883C84.3206 37.5244 83.3333 36.9137 82.2644 36.4824C82.1441 36.4265 82.0209 36.377 81.8953 36.3344C81.768 36.2843 81.6408 36.2405 81.5116 36.1988C81.2441 36.1055 80.9719 36.0261 80.6962 35.9611C79.0605 35.5487 77.3589 35.4678 75.6915 35.7234C66.7247 37.0705 70.3739 44.4629 70.3739 44.4629" stroke="black" stroke-miterlimit="10"/>
<path d="M85.9595 57.0832C86.6206 54.2367 88.2992 51.799 89.0541 49.0339C89.7986 46.3084 89.8882 43.1241 88.7059 40.5133C87.926 38.77 86.7686 40.1422 86.7686 40.1422" stroke="black" stroke-miterlimit="10"/>
<path d="M86.7832 40.1713C86.789 40.1791 86.7939 40.1875 86.7978 40.1963L86.8416 40.2631C86.8893 40.3361 86.9325 40.4121 86.9709 40.4904C88.0865 42.4735 88.3076 44.8904 87.2024 47.4532C86.79 48.3867 86.1673 49.2121 85.3831 49.8651C84.5988 50.518 83.6742 50.9808 82.6814 51.2172L83.0881 56.2219C83.104 56.4379 83.197 56.6409 83.3501 56.794C83.5032 56.9471 83.7062 57.0401 83.9222 57.056L85.2151 57.1541C87.9468 57.4231 90.7933 58.1237 93.0558 59.6147C93.1768 59.6919 93.2915 59.7732 93.4083 59.8504C93.4083 59.8504 93.4082 59.8608 93.4187 59.8608C97.2681 62.5717 99.6913 67.0363 101.385 71.2424C102.112 73.0483 102.817 74.8958 103.364 76.7726C103.364 76.783 103.364 76.7976 103.378 76.806C104.44 80.449 104.907 84.2047 103.772 87.9874C102.281 92.9629 98.3066 96.8458 93.9296 99.6359C92.7496 100.39 91.5285 101.078 90.2719 101.696C89.2543 102.213 88.2054 102.67 87.144 103.095C84.1099 104.307 81.2092 105.181 77.929 105.56C76.3533 105.728 74.7664 105.762 73.1849 105.662C71.867 105.585 70.1008 105.383 68.9393 106.18C68.7612 106.294 68.6016 106.434 68.4659 106.597C68.0176 107.114 67.8403 107.802 67.6985 108.463C67.5567 109.124 67.4149 109.825 67.0229 110.375C66.6308 110.926 65.9093 111.326 65.2608 111.099C64.2181 110.728 64.2536 109.399 64.2181 108.503C64.1952 108.011 64.1952 107.533 64.2181 107.085C64.4267 101.959 68.2574 97.7571 73.2704 96.6956C76.1538 96.0991 78.9516 95.1458 81.5992 93.8575C82.2706 93.5336 82.9254 93.1812 83.5635 92.8003C85.1129 91.8744 86.5976 90.7317 87.4568 89.1427C88.5766 87.0824 88.4744 84.5154 87.6028 82.3446C86.2598 78.9705 83.1152 76.9499 80.9423 74.1806" stroke="black" stroke-miterlimit="10"/>
<path d="M76.2161 45.4645C76.3682 45.1881 76.3018 44.8595 76.0678 44.7307C75.8337 44.6018 75.5206 44.7215 75.3684 44.9979C75.2163 45.2744 75.2826 45.6029 75.5167 45.7318C75.7508 45.8606 76.0639 45.741 76.2161 45.4645Z" fill="#353642"/>
<path d="M71.8981 44.9263C72.0502 44.6498 71.9839 44.3213 71.7498 44.1924C71.5157 44.0636 71.2026 44.1833 71.0504 44.4597C70.8983 44.7362 70.9647 45.0647 71.1987 45.1936C71.4328 45.3224 71.7459 45.2027 71.8981 44.9263Z" fill="#353642"/>
<path d="M88.2846 182.673V197.038C88.2846 197.27 88.2083 197.496 88.0674 197.68C87.9265 197.865 87.729 197.998 87.5051 198.058C87.2813 198.119 87.0436 198.105 86.8287 198.018C86.6139 197.93 86.4337 197.774 86.3161 197.574C85.6905 196.48 84.5353 194.351 83.0338 191.527C86.533 190.08 84.3372 179.753 84.26 179.386C84.4382 179.734 84.7092 180.026 85.043 180.23C85.3768 180.433 85.7604 180.541 86.1514 180.54C86.717 180.54 87.2593 180.765 87.6592 181.165C88.0592 181.565 88.2841 182.107 88.2846 182.673Z" fill="#353642"/>
<path d="M78.1 192.584C77.9311 193.477 77.7559 194.378 77.5829 195.295C77.4303 196.085 77.0074 196.798 76.3868 197.311C75.7662 197.823 74.9866 198.104 74.1817 198.104H61.9014C61.6847 198.104 61.4745 198.031 61.3043 197.897C61.1342 197.763 61.0141 197.576 60.9633 197.365C60.9125 197.154 60.934 196.933 61.0243 196.736C61.1147 196.539 61.2686 196.378 61.4614 196.279L67.9654 192.96L68.4492 192.714C68.4492 192.714 73.2308 196.019 78.1 192.584Z" fill="#353642"/>
<path d="M79.7391 88.809C80.8339 86.6945 84.1391 86.0981 88.2513 86.1836" stroke="black" stroke-miterlimit="10"/>
<path d="M104.465 96.5121L98.8342 106.98L100.521 144.827L97.6831 142.877L94.9535 111.806C94.9535 111.806 93.2456 99.2605 98.2483 96.5121C103.251 93.7637 104.465 96.5121 104.465 96.5121Z" fill="white"/>
<path d="M104.233 80.7032C104.23 80.6945 104.23 80.685 104.233 80.6763" stroke="black" stroke-miterlimit="10"/>
<path d="M88.708 40.5113C87.9281 38.77 86.7686 40.1442 86.7686 40.1442C86.46 39.6517 86.0993 39.1937 85.6926 38.7784C85.53 38.6095 85.361 38.451 85.1859 38.2862C85.4236 37.1664 86.3933 36.3761 87.4797 36.1259C90.3282 35.4732 93.4541 36.9496 94.7324 39.5708C96.0357 42.2337 95.8522 45.4096 96.4215 48.2665C97.0471 51.3486 97.8458 54.4223 99.2116 57.2709C100.369 59.6773 101.948 61.9169 103.983 63.6582C105.359 64.8322 107.192 65.5975 108.201 67.1615C110.791 71.1965 105.668 73.0003 103.983 75.7321C103.693 76.1937 103.527 76.7223 103.501 77.2669" fill="#3862F8"/>
<path d="M88.708 40.5113C87.9281 38.77 86.7686 40.1442 86.7686 40.1442C86.46 39.6517 86.0993 39.1937 85.6926 38.7784C85.53 38.6095 85.361 38.451 85.1859 38.2862C85.4236 37.1664 86.3933 36.3761 87.4797 36.1259C90.3282 35.4732 93.4541 36.9496 94.7324 39.5708C96.0357 42.2337 95.8522 45.4096 96.4215 48.2665C97.0471 51.3486 97.8458 54.4223 99.2116 57.2709C100.369 59.6773 101.948 61.9169 103.983 63.6582C105.359 64.8322 107.192 65.5975 108.201 67.1615C110.791 71.1965 105.668 73.0003 103.983 75.7321C103.693 76.1937 103.527 76.7223 103.501 77.2669" stroke="black" stroke-miterlimit="10"/>
<path d="M72.7491 43.0115C72.7491 43.0115 73.0557 44.2627 72.1923 46.0936C71.9609 46.5816 73.0265 46.6087 73.2788 46.6567" stroke="black" stroke-miterlimit="10"/>
<path d="M77.661 45.1122C78.1508 43.8669 77.7277 42.5347 76.716 42.1368C75.7042 41.7388 74.487 42.4258 73.9972 43.6712C73.5073 44.9166 73.9304 46.2488 74.9422 46.6467C75.9539 47.0446 77.1712 46.3576 77.661 45.1122Z" stroke="black" stroke-miterlimit="10"/>
<path d="M72.5947 44.557C73.0846 43.3116 72.6615 41.9794 71.6497 41.5815C70.638 41.1836 69.4207 41.8706 68.9309 43.116C68.4411 44.3614 68.8642 45.6936 69.8759 46.0915C70.8877 46.4894 72.1049 45.8024 72.5947 44.557Z" stroke="black" stroke-miterlimit="10"/>
<path d="M71.0121 42.2316C71.132 42.2316 71.2509 42.2542 71.3624 42.2984C72.0047 42.5507 72.2549 43.4432 71.9233 44.2878C71.6585 44.9613 71.0767 45.4305 70.5095 45.4305C70.389 45.4314 70.2694 45.4095 70.1571 45.3659C69.5169 45.1135 69.2646 44.221 69.5982 43.3744C69.8631 42.7008 70.4449 42.2316 71.0121 42.2316ZM71.0121 41.7499C70.2614 41.7499 69.496 42.313 69.1478 43.1971C68.7182 44.2919 69.0915 45.4639 69.9819 45.8142C70.1507 45.8802 70.3304 45.9141 70.5116 45.9143C71.2602 45.9143 72.0255 45.3492 72.3738 44.4546C72.8033 43.3598 72.4322 42.1879 71.5396 41.8375C71.3715 41.7722 71.1925 41.7389 71.0121 41.7395V41.7499Z" fill="white"/>
<path d="M72.3735 44.47C72.8043 43.3746 72.4324 42.2031 71.5428 41.8532C70.6533 41.5033 69.5829 42.1076 69.1521 43.203C68.7213 44.2983 69.0932 45.4699 69.9827 45.8198C70.8723 46.1696 71.9427 45.5653 72.3735 44.47Z" fill="#3862F8"/>
<path d="M77.4398 45.0253C77.8706 43.9299 77.4987 42.7583 76.6091 42.4085C75.7196 42.0586 74.6492 42.6629 74.2184 43.7583C73.7876 44.8536 74.1595 46.0252 75.0491 46.3751C75.9386 46.7249 77.009 46.1206 77.4398 45.0253Z" fill="#3862F8"/>
<path d="M72.7867 43.4369C72.7867 43.4369 73.0577 42.8655 73.9836 43.6663" stroke="black" stroke-miterlimit="10"/>
<path d="M146.517 165.444C137.59 167.292 127.476 164.531 118.728 162.794L106.491 160.373C105.163 160.106 103.781 159.822 102.586 159.238C102.529 159.194 102.471 159.146 102.417 159.098C100.238 157.222 99.8372 154.05 99.5849 151.174C99.0844 145.461 98.5826 139.75 98.0793 134.043C97.4523 126.883 96.8267 119.723 96.2025 112.565C95.775 107.652 95.4852 102.224 98.4964 98.3139C99.8039 96.6123 102 95.5842 104.108 96.3453C104.231 96.3891 104.352 96.4392 104.471 96.4955C105.274 97.1782 105.928 98.0195 106.391 98.9666C109.015 104.18 108.408 110.751 108.735 116.406C109.33 126.766 109.044 137.126 108.712 147.492C108.673 148.693 108.166 149.89 108.176 151.037C108.176 150.872 108.721 150.655 109.594 150.411C113.054 149.464 121.71 148.146 122.58 148.046C129.978 147.185 137.473 147.792 144.636 149.831C146.405 150.346 148.081 151.14 149.601 152.181C151.455 153.456 153.038 155.101 153.772 157.007C155.642 161.916 150.552 164.604 146.517 165.444Z" fill="#D7E8F0"/>
<path d="M146.517 165.444C137.59 167.292 127.476 164.531 118.728 162.794L106.491 160.373C105.163 160.106 103.781 159.822 102.586 159.238C102.529 159.194 102.471 159.146 102.417 159.098C100.238 157.222 99.8372 154.05 99.5849 151.174C99.0844 145.461 98.5826 139.75 98.0793 134.043C97.4523 126.883 96.8267 119.723 96.2025 112.565C95.775 107.652 95.4852 102.224 98.4964 98.3139C99.8039 96.6123 102 95.5842 104.108 96.3453C104.231 96.3891 104.352 96.4392 104.471 96.4955C105.274 97.1782 105.928 98.0195 106.391 98.9666C109.015 104.18 108.408 110.751 108.735 116.406C109.33 126.766 109.044 137.126 108.712 147.492C108.673 148.693 108.166 149.89 108.176 151.037C108.176 150.872 108.721 150.655 109.594 150.411C109.49 150.868 109.433 151.335 109.425 151.804C109.425 150.989 122.734 148.947 123.824 148.822C131.225 147.962 138.722 148.568 145.887 150.607C147.182 150.985 148.429 151.514 149.601 152.181C151.455 153.456 153.038 155.101 153.772 157.007C155.642 161.916 150.552 164.604 146.517 165.444Z" fill="#4361EE" fill-opacity="0.52"/>
<path d="M96.8344 133.276L94.9472 111.797C94.5155 106.884 94.2257 101.454 97.241 97.5444C98.5506 95.8428 100.742 94.8147 102.855 95.5759C104.431 96.1452 105.641 97.4798 106.4 98.977C109.023 104.19 108.416 110.765 108.741 116.416C109.338 126.78 109.05 137.138 108.716 147.504C108.679 148.705 108.17 149.902 108.183 151.049C108.183 150.236 121.495 148.192 122.584 148.065C129.982 147.205 137.478 147.811 144.642 149.85C148.133 150.839 152.422 153.497 153.778 157.026C155.655 161.918 150.564 164.61 146.529 165.446C137.602 167.298 127.488 164.535 118.741 162.8L106.504 160.375C104.627 159.999 102.638 159.582 101.182 158.327C99.001 156.45 98.6027 153.276 98.3504 150.403L96.8344 133.276Z" stroke="black" stroke-miterlimit="10"/>
<path d="M79.5284 184.896C80.8213 187.363 82.012 189.615 83.0359 191.535C84.5373 194.359 85.6905 196.488 86.3161 197.583C86.4343 197.782 86.6146 197.937 86.8295 198.024C87.0443 198.111 87.2817 198.126 87.5054 198.065C87.7291 198.004 87.9266 197.871 88.0678 197.688C88.2089 197.504 88.2858 197.279 88.2867 197.047V182.673C88.2862 182.107 88.0612 181.565 87.6613 181.165C87.2614 180.765 86.7191 180.54 86.1535 180.54C85.7624 180.541 85.3784 180.434 85.0445 180.231C84.7106 180.027 84.4397 179.735 84.2621 179.386C84.2621 179.386 84.2621 179.386 84.2621 179.386C83.1813 177.241 82.3105 174.997 81.6617 172.684V172.684" stroke="black" stroke-miterlimit="10"/>
<path d="M69.9548 166.555C69.7091 158.272 68.6616 150.031 66.8269 141.949C66.5224 140.638 66.2409 139.374 65.9823 138.156" stroke="black" stroke-miterlimit="10"/>
<path d="M67.4587 198.104H74.1817C74.9872 198.103 75.7673 197.822 76.388 197.309C77.0087 196.796 77.4312 196.082 77.5829 195.291C77.7559 194.378 77.9311 193.477 78.1 192.58C78.6005 189.939 79.0766 187.376 79.5285 184.892C80.3146 180.583 81.0132 176.515 81.6555 172.68C84.016 158.331 85.3673 147.131 85.9595 138.16C85.9887 137.743 86.0138 137.326 86.043 136.909C86.0659 136.456 86.0909 136.012 86.1139 135.572" stroke="black" stroke-miterlimit="10"/>
<path d="M54.5798 135.947C56.0813 139.741 57.37 143.615 59.0924 147.316C62.1995 153.989 66.0991 160.283 69.9548 166.556C70.2551 175.301 69.7511 184.056 68.4492 192.709L67.9654 192.955L61.4613 196.275C61.2663 196.373 61.1101 196.534 61.0181 196.732C60.9261 196.929 60.9038 197.152 60.9549 197.364C61.0059 197.577 61.1272 197.765 61.2991 197.899C61.4709 198.034 61.6832 198.106 61.9013 198.104H70.4511" stroke="black" stroke-miterlimit="10"/>
<path d="M79.4013 94.8356C78.4191 89.322 81.399 83.6646 84.9753 78.4742" stroke="black" stroke-miterlimit="10"/>
<path d="M83.257 104.474C83.2627 104.479 83.2664 104.485 83.2674 104.493C83.4467 104.91 83.624 105.312 83.7991 105.723C84.7334 107.881 85.537 110.093 86.2056 112.348C86.485 113.324 86.7269 114.308 86.9208 115.307C87.9135 120.372 88.2659 125.579 88.3201 130.738C88.3201 131.675 88.3201 132.615 88.3055 133.551C88.3055 133.841 88.2951 134.131 88.2867 134.415L88.2513 134.436C87.9426 134.619 87.6257 134.792 87.3212 134.961L87.1273 135.063C86.7964 135.24 86.4586 135.408 86.1138 135.568C85.2116 135.993 84.2856 136.365 83.3404 136.683C82.6314 136.93 81.9057 137.142 81.1779 137.33C77.6329 138.241 73.9356 138.531 70.3739 138.45L69.8818 138.435C68.5493 138.391 67.2418 138.295 65.9739 138.164C62.121 137.744 58.3098 137.003 54.5798 135.949C52.09 135.251 50.4092 134.634 49.963 134.458L49.8379 134.415C48.5867 127.135 48.3615 119.757 48.472 113.897C48.472 113.856 48.472 113.812 48.472 113.768C48.5888 108.058 49.0329 103.817 49.1768 102.549C49.1956 102.399 49.2102 102.293 49.2164 102.23C49.2227 102.167 49.2164 102.172 49.2164 102.163C49.4651 96.4458 50.3421 90.773 51.8314 85.2473C53.7812 78.0801 56.6047 72.1933 59.6158 67.9998" stroke="black" stroke-miterlimit="10"/>
<path d="M67.4295 63.2056C66.7476 65.1304 66.9102 67.0801 69.9527 67.5431L70.0903 67.5618C72.7303 67.8934 74.5049 66.1021 76.3463 63.9084" stroke="black" stroke-miterlimit="10"/>
<path d="M85.2088 57.1583C83.4504 57.4788 81.8096 58.2635 80.4564 59.4312" stroke="black" stroke-miterlimit="10"/>
<path d="M61.1944 100.026C59.301 82.5656 66.6433 71.6407 70.0903 67.5618" stroke="black" stroke-miterlimit="10"/>
<path d="M79.9559 61.0995C82.5521 54.1387 76.2649 57.9402 73.7 59.6877C73.5901 59.7535 73.4599 59.7769 73.334 59.7535C73.208 59.7301 73.0949 59.6614 73.016 59.5605C71.8483 58.203 68.762 55.4003 66.7976 58.7264C63.5175 64.2796 69.7484 64.0043 72.7512 62.0629C72.8471 62.0156 72.9555 61.9996 73.061 62.0172C73.1665 62.0348 73.2638 62.085 73.3392 62.1609C75.5976 64.0481 78.3294 65.464 79.9559 61.0995Z" fill="#3862F8" stroke="black" stroke-miterlimit="10"/>
<path d="M49.2227 102.159C49.2227 102.159 50.1319 104.689 55.3285 106.098C55.909 106.255 56.5152 106.293 57.1108 106.21C57.7063 106.127 58.279 105.924 58.7945 105.615C59.31 105.305 59.7578 104.895 60.111 104.408C60.4643 103.922 60.7157 103.369 60.8504 102.783C61.0514 101.877 61.1645 100.954 61.1882 100.026C61.1882 100.026 61.9159 104.142 64.2828 106.098" stroke="black" stroke-miterlimit="10"/>
<path d="M69.5169 105.871C69.5169 105.871 69.9339 107.956 67.784 108.09" stroke="black" stroke-miterlimit="10"/>
<path d="M122.803 163.638V186.691C122.803 187.986 122.408 189.25 121.671 190.315C120.934 191.38 119.89 192.195 118.678 192.651L110.207 195.837C109.949 195.933 109.733 196.117 109.597 196.356C109.461 196.595 109.414 196.875 109.464 197.146C109.513 197.417 109.657 197.661 109.869 197.837C110.082 198.012 110.349 198.107 110.625 198.104H139.819C140.094 198.105 140.36 198.01 140.572 197.834C140.783 197.659 140.926 197.414 140.976 197.144C141.026 196.874 140.979 196.595 140.843 196.355C140.708 196.116 140.493 195.932 140.236 195.835L131.269 192.484C130.054 192.029 129.006 191.214 128.267 190.148C127.527 189.082 127.13 187.816 127.13 186.518V164.464" stroke="black" stroke-miterlimit="10"/>
<path d="M122.803 163.638V186.691C122.803 187.986 122.408 189.25 121.671 190.315C120.934 191.38 119.89 192.195 118.678 192.651L110.207 195.837C109.949 195.933 109.733 196.117 109.597 196.356C109.461 196.595 109.414 196.875 109.464 197.146C109.513 197.417 109.657 197.661 109.869 197.837C110.082 198.012 110.349 198.107 110.625 198.104H139.819C140.094 198.105 140.36 198.01 140.572 197.834C140.783 197.659 140.926 197.414 140.976 197.144C141.026 196.874 140.979 196.595 140.843 196.355C140.708 196.116 140.493 195.932 140.236 195.835L131.269 192.484C130.054 192.029 129.006 191.214 128.267 190.148C127.527 189.082 127.13 187.816 127.13 186.518V164.464L122.803 163.638Z" fill="#353642"/>
<path d="M65.9865 60.5906C58.0373 63.7707 45.9425 70.0371 31.9355 82.1214C30.9749 82.9555 30.0052 83.8126 29.0265 84.6926C27.058 86.4721 25.0582 88.3683 23.0271 90.3813L18.5687 94.8418C18.3842 95.0291 18.2758 95.2782 18.2645 95.5409C18.2532 95.8036 18.3398 96.0611 18.5075 96.2636C18.6752 96.4661 18.9121 96.5991 19.1722 96.6369C19.4324 96.6748 19.6974 96.6147 19.9158 96.4683L25.911 92.4166C26.1037 92.2863 26.3217 92.198 26.5508 92.1575C26.7799 92.1171 27.0149 92.1254 27.2406 92.1818C27.4662 92.2383 27.6775 92.3417 27.8605 92.4853C28.0436 92.6288 28.1943 92.8093 28.3029 93.0151C28.3577 93.1151 28.3891 93.2264 28.3946 93.3404C28.5907 94.9002 26.7264 95.9032 25.7359 96.7415C25.3 97.1044 24.7266 97.8008 25.0582 98.3868C25.3251 98.8539 25.911 99.0562 26.424 99.0833C27.744 99.1542 28.8367 98.3076 29.8836 97.6236C31.0096 96.875 32.4944 93.5322 33.6371 92.8107C39.6845 88.98 45.8174 85.5017 52.4278 82.7449" stroke="black" stroke-miterlimit="10"/>
<path d="M71.8712 49.4009C71.8712 49.4009 72.745 47.6513 74.2526 49.0381" stroke="black" stroke-miterlimit="10"/>
<path d="M73.3935 52.5872L71.4729 58.1112" stroke="black" stroke-miterlimit="10"/>
<path d="M51.4978 198.102H113.865" stroke="black" stroke-miterlimit="10"/>
<line x1="180.851" y1="45.9836" x2="180.851" y2="258.792" stroke="black"/>
<line x1="31" y1="208.5" x2="343" y2="208.5" stroke="black"/>
<ellipse cx="125.5" cy="204.5" rx="17.5" ry="1.5" fill="#D9D9D9"/>
</g>
<path d="M275.66 120.635C293.032 119.704 314.192 124.708 328.058 135.563C336.12 141.866 339.453 152.509 339.162 162.449C338.806 174.258 333.44 181.884 325.197 189.889C314.669 200.106 324.713 213.239 324.427 225.1C324.258 231.992 322.16 238.698 318.37 244.457C316.178 247.796 309.122 254.461 306.124 257.093" stroke="#CCDDE2" stroke-miterlimit="10"/>
<path d="M221.034 251.188C219.49 250.617 217.977 250.006 216.494 249.354C215.598 248.952 214.714 248.538 213.845 248.112C204.418 243.433 195.592 230.77 201.931 220.368C205.117 215.14 211.309 212.34 213.768 206.67C216.985 199.248 211.036 191.914 209.428 184.859C208.175 179.379 208.101 173.695 209.208 168.184C210.29 162.853 212.403 157.067 216.436 153.247C217.693 152.057 219.222 151.112 220.917 150.766" stroke="#CCDDE2" stroke-miterlimit="10"/>
<path d="M333.541 170.597H326.556V261.821H333.541V170.597Z" stroke="#CCDDE2" stroke-miterlimit="10"/>
<path d="M271.05 170.609H326.556V261.821H317.204V233.801C317.203 233.245 317.094 232.693 316.88 232.179C316.667 231.665 316.354 231.197 315.96 230.804C315.567 230.41 315.099 230.098 314.584 229.885C314.07 229.673 313.518 229.563 312.962 229.563H285.043C284.486 229.563 283.934 229.673 283.42 229.885C282.905 230.098 282.438 230.41 282.044 230.804C281.65 231.197 281.337 231.665 281.124 232.179C280.911 232.693 280.801 233.245 280.801 233.801V261.821H271.697M277.706 218.084C277.648 218.083 277.589 218.072 277.535 218.049C277.481 218.026 277.432 217.993 277.391 217.951C277.349 217.909 277.317 217.859 277.295 217.805C277.273 217.75 277.262 217.692 277.262 217.633V214.045C277.262 213.986 277.274 213.929 277.296 213.875C277.318 213.821 277.351 213.772 277.392 213.731C277.434 213.689 277.482 213.657 277.536 213.634C277.59 213.612 277.648 213.6 277.706 213.6H284.944C285.003 213.6 285.061 213.611 285.115 213.634C285.169 213.656 285.219 213.688 285.26 213.73C285.302 213.771 285.335 213.82 285.358 213.874C285.38 213.928 285.392 213.986 285.392 214.045V217.633C285.393 217.693 285.382 217.751 285.359 217.806C285.337 217.861 285.304 217.91 285.262 217.952C285.221 217.994 285.171 218.027 285.116 218.05C285.062 218.073 285.003 218.084 284.944 218.084H277.706ZM290.433 223.914C290.43 224.03 290.382 224.14 290.3 224.221C290.218 224.303 290.108 224.35 289.992 224.352H282.755C282.636 224.352 282.523 224.306 282.439 224.222C282.355 224.139 282.307 224.026 282.306 223.908V220.317C282.307 220.199 282.355 220.086 282.439 220.003C282.523 219.92 282.636 219.873 282.755 219.873H289.992C290.111 219.873 290.224 219.92 290.309 220.003C290.393 220.086 290.441 220.199 290.443 220.317L290.433 223.914ZM286.814 217.637V214.045C286.814 213.986 286.826 213.928 286.849 213.874C286.871 213.82 286.904 213.771 286.946 213.73C286.988 213.688 287.037 213.656 287.091 213.634C287.145 213.611 287.203 213.6 287.262 213.6H294.5C294.618 213.6 294.731 213.647 294.815 213.73C294.899 213.814 294.947 213.927 294.948 214.045V217.633C294.948 217.692 294.937 217.751 294.914 217.806C294.892 217.86 294.859 217.91 294.817 217.952C294.776 217.994 294.726 218.027 294.672 218.049C294.617 218.072 294.559 218.084 294.5 218.084H287.262C287.203 218.085 287.144 218.073 287.089 218.051C287.033 218.029 286.983 217.996 286.941 217.954C286.899 217.912 286.866 217.862 286.843 217.807C286.821 217.752 286.809 217.693 286.81 217.633L286.814 217.637ZM299.95 223.914C299.948 224.032 299.9 224.144 299.816 224.226C299.732 224.308 299.619 224.353 299.502 224.352H292.264C292.146 224.352 292.033 224.306 291.95 224.222C291.867 224.139 291.82 224.026 291.82 223.908V220.317C291.82 220.2 291.867 220.087 291.95 220.003C292.033 219.92 292.146 219.873 292.264 219.873H299.502C299.56 219.873 299.618 219.885 299.672 219.907C299.726 219.929 299.775 219.962 299.816 220.003C299.857 220.044 299.89 220.093 299.912 220.147C299.935 220.201 299.946 220.259 299.946 220.317L299.95 223.914ZM304.498 217.637C304.498 217.697 304.487 217.755 304.465 217.81C304.442 217.865 304.409 217.914 304.368 217.956C304.326 217.998 304.276 218.031 304.222 218.054C304.167 218.077 304.108 218.088 304.049 218.088H296.812C296.753 218.088 296.695 218.076 296.641 218.053C296.586 218.03 296.537 217.997 296.496 217.955C296.455 217.913 296.422 217.863 296.4 217.809C296.378 217.755 296.367 217.696 296.367 217.637V214.045C296.367 213.927 296.414 213.814 296.498 213.731C296.581 213.647 296.694 213.6 296.812 213.6H304.049C304.108 213.6 304.166 213.611 304.22 213.634C304.275 213.656 304.324 213.688 304.366 213.73C304.407 213.771 304.44 213.82 304.463 213.874C304.486 213.928 304.497 213.986 304.498 214.045V217.637ZM314.043 217.637C314.044 217.696 314.033 217.755 314.011 217.809C313.989 217.863 313.956 217.913 313.915 217.955C313.873 217.997 313.824 218.03 313.77 218.053C313.716 218.076 313.658 218.088 313.599 218.088H306.361C306.302 218.088 306.244 218.077 306.189 218.054C306.134 218.031 306.085 217.998 306.043 217.956C306.001 217.914 305.968 217.865 305.946 217.81C305.924 217.755 305.912 217.697 305.913 217.637V214.045C305.913 213.986 305.925 213.928 305.948 213.874C305.97 213.82 306.004 213.771 306.045 213.73C306.087 213.688 306.136 213.656 306.19 213.634C306.245 213.611 306.303 213.6 306.361 213.6H313.599C313.717 213.6 313.83 213.647 313.913 213.731C313.996 213.814 314.043 213.927 314.043 214.045V217.637ZM320.746 204.167C320.747 205.292 320.301 206.37 319.506 207.165C318.712 207.961 317.634 208.408 316.51 208.409H281.17C280.612 208.41 280.059 208.3 279.543 208.086C279.028 207.872 278.559 207.559 278.165 207.164C277.77 206.768 277.458 206.299 277.245 205.783C277.032 205.267 276.923 204.714 276.924 204.155V189.202C276.924 188.645 277.034 188.093 277.247 187.578C277.46 187.064 277.772 186.596 278.166 186.202C278.559 185.808 279.027 185.496 279.541 185.283C280.056 185.069 280.607 184.96 281.164 184.96H316.506C317.064 184.958 317.616 185.067 318.132 185.28C318.647 185.492 319.116 185.805 319.51 186.199C319.905 186.593 320.217 187.061 320.43 187.576C320.644 188.092 320.753 188.644 320.752 189.202L320.746 204.167ZM320.127 180.018C319.932 180.215 319.7 180.371 319.444 180.477C319.189 180.584 318.914 180.638 318.637 180.637H279.373C279.095 180.637 278.819 180.582 278.562 180.475C278.306 180.368 278.072 180.212 277.876 180.015C277.68 179.817 277.525 179.583 277.419 179.326C277.314 179.068 277.261 178.792 277.262 178.514C277.264 177.955 277.487 177.42 277.883 177.024C278.278 176.629 278.814 176.407 279.373 176.405H318.633C318.911 176.404 319.186 176.457 319.443 176.563C319.7 176.668 319.934 176.823 320.131 177.019C320.328 177.215 320.484 177.448 320.591 177.705C320.697 177.961 320.752 178.236 320.752 178.514C320.752 178.792 320.696 179.067 320.588 179.323C320.48 179.58 320.322 179.812 320.123 180.006L320.127 180.018Z" stroke="#CCDDE2" stroke-miterlimit="10"/>
<path d="M277.262 178.514C277.264 177.955 277.487 177.42 277.883 177.025C278.278 176.629 278.814 176.407 279.373 176.405H318.633C318.911 176.404 319.186 176.457 319.443 176.563C319.7 176.668 319.934 176.823 320.131 177.019C320.328 177.215 320.484 177.448 320.591 177.705C320.697 177.961 320.752 178.236 320.752 178.514C320.751 179.073 320.528 179.608 320.133 180.004C319.738 180.399 319.202 180.622 318.643 180.623H279.373C278.814 180.623 278.277 180.401 277.881 180.006C277.485 179.61 277.263 179.074 277.262 178.514V178.514Z" stroke="#CCDDE2" stroke-miterlimit="10"/>
<path d="M316.506 184.96H281.17C280.613 184.959 280.061 185.068 279.546 185.281C279.03 185.494 278.562 185.806 278.168 186.2C277.773 186.594 277.46 187.062 277.247 187.577C277.034 188.092 276.924 188.644 276.924 189.202V204.155C276.925 205.28 277.372 206.358 278.167 207.154C278.962 207.949 280.04 208.396 281.164 208.397H316.506C317.064 208.398 317.616 208.289 318.131 208.076C318.646 207.863 319.114 207.551 319.509 207.157C319.903 206.763 320.216 206.295 320.429 205.78C320.643 205.265 320.752 204.713 320.752 204.155V189.202C320.753 188.644 320.644 188.092 320.43 187.576C320.217 187.061 319.905 186.593 319.51 186.199C319.116 185.805 318.647 185.492 318.132 185.28C317.616 185.067 317.064 184.958 316.506 184.96V184.96ZM296.721 202.083C296.722 202.475 296.645 202.863 296.495 203.226C296.346 203.588 296.126 203.918 295.849 204.196C295.572 204.473 295.243 204.694 294.881 204.844C294.518 204.994 294.13 205.072 293.738 205.072H283.283C282.891 205.072 282.503 204.994 282.141 204.844C281.778 204.694 281.449 204.473 281.172 204.196C280.895 203.918 280.676 203.588 280.526 203.226C280.376 202.863 280.299 202.475 280.3 202.083V191.293C280.3 190.9 280.377 190.512 280.526 190.15C280.676 189.788 280.896 189.458 281.173 189.181C281.45 188.903 281.779 188.683 282.141 188.533C282.503 188.383 282.891 188.305 283.283 188.305H293.738C294.13 188.305 294.518 188.382 294.88 188.532C295.243 188.683 295.572 188.903 295.849 189.18C296.126 189.458 296.346 189.787 296.495 190.15C296.645 190.512 296.722 190.9 296.721 191.293V202.083ZM317.268 202.097C317.269 202.489 317.192 202.877 317.042 203.24C316.892 203.603 316.673 203.932 316.396 204.21C316.119 204.487 315.79 204.708 315.427 204.858C315.065 205.008 314.677 205.086 314.285 205.086H303.794C303.402 205.086 303.013 205.008 302.651 204.858C302.289 204.708 301.96 204.487 301.683 204.21C301.406 203.932 301.186 203.603 301.036 203.24C300.887 202.877 300.81 202.489 300.811 202.097V191.278C300.81 190.886 300.887 190.498 301.037 190.136C301.187 189.773 301.406 189.444 301.684 189.167C301.961 188.889 302.29 188.669 302.652 188.519C303.014 188.369 303.402 188.291 303.794 188.291H314.285C314.677 188.291 315.065 188.369 315.427 188.519C315.789 188.669 316.118 188.889 316.395 189.167C316.672 189.444 316.892 189.773 317.042 190.136C317.191 190.498 317.268 190.886 317.268 191.278V202.097Z" stroke="#CCDDE2" stroke-miterlimit="10"/>
<path d="M320.752 178.514C320.751 179.073 320.528 179.608 320.133 180.004C319.738 180.399 319.202 180.622 318.643 180.623H279.373C278.814 180.623 278.277 180.401 277.881 180.006C277.485 179.61 277.263 179.074 277.262 178.514C277.264 177.955 277.487 177.42 277.883 177.025C278.278 176.629 278.814 176.407 279.373 176.405H318.633C318.911 176.404 319.186 176.457 319.443 176.563C319.7 176.668 319.934 176.823 320.131 177.019C320.328 177.215 320.484 177.448 320.591 177.705C320.697 177.961 320.752 178.236 320.752 178.514V178.514Z" stroke="#CCDDE2" stroke-miterlimit="10"/>
<path d="M312.825 232.814H285.071C284.399 232.814 283.854 233.359 283.854 234.031C283.854 234.702 284.399 235.247 285.071 235.247H312.825C313.497 235.247 314.041 234.702 314.041 234.031C314.041 233.359 313.497 232.814 312.825 232.814Z" stroke="#CCDDE2" stroke-miterlimit="10"/>
<path d="M312.825 237.836H285.071C284.399 237.836 283.854 238.381 283.854 239.053C283.854 239.725 284.399 240.269 285.071 240.269H312.825C313.497 240.269 314.041 239.725 314.041 239.053C314.041 238.381 313.497 237.836 312.825 237.836Z" stroke="#CCDDE2" stroke-miterlimit="10"/>
<path d="M312.825 242.859H285.071C284.399 242.859 283.854 243.403 283.854 244.075C283.854 244.747 284.399 245.291 285.071 245.291H312.825C313.497 245.291 314.041 244.747 314.041 244.075C314.041 243.403 313.497 242.859 312.825 242.859Z" stroke="#CCDDE2" stroke-miterlimit="10"/>
<path d="M312.825 247.881H285.071C284.399 247.881 283.854 248.425 283.854 249.097C283.854 249.769 284.399 250.313 285.071 250.313H312.825C313.497 250.313 314.041 249.769 314.041 249.097C314.041 248.425 313.497 247.881 312.825 247.881Z" stroke="#CCDDE2" stroke-miterlimit="10"/>
<path d="M312.825 252.901H285.071C284.399 252.901 283.854 253.445 283.854 254.117C283.854 254.789 284.399 255.333 285.071 255.333H312.825C313.497 255.333 314.041 254.789 314.041 254.117C314.041 253.445 313.497 252.901 312.825 252.901Z" stroke="#CCDDE2" stroke-miterlimit="10"/>
<path d="M267.105 162.288H335.728C337.158 162.288 338.528 162.856 339.539 163.866C340.55 164.877 341.118 166.248 341.118 167.678V170.527H262.881" stroke="#CCDDE2" stroke-miterlimit="10"/>
<path d="M331.273 131.315H289.57C287.264 131.315 285.394 133.184 285.394 135.491V147.724C285.394 150.03 287.264 151.9 289.57 151.9H331.273C333.579 151.9 335.449 150.03 335.449 147.724V135.491C335.449 133.184 333.579 131.315 331.273 131.315Z" stroke="#CCDDE2" stroke-miterlimit="10"/>
<path d="M309.206 141.244C309.206 144.224 307.093 145.587 304.912 145.587C302.533 145.587 300.704 144.023 300.704 141.395C300.704 138.768 302.435 137.087 305.047 137.087C307.541 137.087 309.206 138.8 309.206 141.244ZM303.316 141.329C303.316 142.726 303.899 143.774 304.98 143.774C305.961 143.774 306.589 142.792 306.589 141.329C306.589 140.123 306.122 138.882 304.98 138.882C303.766 138.882 303.316 140.131 303.316 141.321V141.329Z" fill="#D7E8F0"/>
<path d="M311.94 139.998C311.94 139.481 311.94 138.993 311.92 138.558C311.916 138.39 311.946 138.223 312.008 138.066C312.07 137.91 312.163 137.768 312.281 137.647C312.399 137.527 312.539 137.432 312.695 137.367C312.85 137.302 313.017 137.269 313.185 137.27H314.069L314.186 138.4H314.22C314.823 137.535 315.75 137.087 316.932 137.087C318.712 137.087 320.31 138.633 320.31 141.228C320.31 144.19 318.428 145.587 316.615 145.587C315.634 145.587 314.868 145.185 314.502 144.656H314.469V147.435C314.469 147.77 314.336 148.092 314.099 148.329C313.862 148.566 313.54 148.699 313.205 148.699C312.87 148.699 312.548 148.566 312.311 148.329C312.074 148.092 311.94 147.77 311.94 147.435V139.998ZM314.469 141.91C314.467 142.089 314.484 142.267 314.52 142.443C314.593 142.782 314.78 143.086 315.048 143.305C315.317 143.524 315.653 143.645 315.999 143.649C317.097 143.649 317.747 142.734 317.747 141.353C317.747 140.056 317.164 139.073 316.032 139.073C315.672 139.084 315.326 139.216 315.051 139.45C314.776 139.683 314.589 140.002 314.52 140.356C314.485 140.503 314.468 140.653 314.469 140.804V141.91Z" fill="#D7E8F0"/>
<path d="M311.92 151.9V162.288" stroke="#CCDDE2" stroke-miterlimit="10"/>
<path d="M200.288 249.354H221.034V251.566C221.053 252.941 220.799 254.306 220.286 255.581C219.773 256.857 219.012 258.018 218.046 258.997C217.081 259.976 215.93 260.754 214.662 261.284C213.393 261.815 212.032 262.088 210.657 262.088C209.282 262.088 207.921 261.815 206.652 261.284C205.384 260.754 204.233 259.976 203.268 258.997C202.302 258.018 201.541 256.857 201.028 255.581C200.515 254.306 200.261 252.941 200.28 251.566V249.354H200.288Z" fill="#4361EE" fill-opacity="0.52"/>
<path d="M290.002 129.59L289.968 136.512V256.385C289.968 263.08 284.54 261.813 277.845 261.803L260.774 261.791H212.449C214.787 261.387 216.915 260.193 218.477 258.408C220.04 256.623 220.942 254.356 221.034 251.986C221.046 251.847 221.046 251.706 221.046 251.568C221.049 251.516 221.049 251.463 221.046 251.411L220.895 128.597C220.739 126.961 220.201 125.385 219.325 123.995C218.448 122.605 217.258 121.441 215.849 120.595C214.274 119.683 212.485 119.204 210.664 119.208H279.622C282.375 119.209 285.015 120.303 286.962 122.25C288.908 124.197 290.002 126.837 290.002 129.59Z" fill="#1740FF"/>
<path d="M221.034 146.053H200.288V129.59C200.269 128.215 200.523 126.85 201.036 125.574C201.549 124.298 202.31 123.137 203.276 122.158C204.241 121.179 205.392 120.402 206.66 119.871C207.929 119.341 209.29 119.067 210.665 119.067C212.04 119.067 213.401 119.341 214.67 119.871C215.938 120.402 217.089 121.179 218.054 122.158C219.02 123.137 219.781 124.298 220.294 125.574C220.807 126.85 221.061 128.215 221.042 129.59V148.46" fill="#4361EE" fill-opacity="0.52"/>
<path d="M229.415 236.968H254.695C256.893 236.968 258.676 235.186 258.676 232.987V160.301C258.676 158.103 256.893 156.321 254.695 156.321H229.415C227.217 156.321 225.435 158.103 225.435 160.301V232.987C225.435 235.186 227.217 236.968 229.415 236.968Z" fill="#3862F8"/>
<path d="M249.423 149.841H261.319" stroke="white" stroke-miterlimit="10"/>
<path d="M232.658 164.845H251.173" stroke="white" stroke-miterlimit="10"/>
<path d="M232.658 171.347H251.173" stroke="white" stroke-miterlimit="10"/>
<path d="M232.658 177.849H251.173" stroke="white" stroke-miterlimit="10"/>
<path d="M232.658 184.35H251.173" stroke="white" stroke-miterlimit="10"/>
<path d="M232.658 190.85H251.173" stroke="white" stroke-miterlimit="10"/>
<path d="M232.658 197.352H251.173" stroke="white" stroke-miterlimit="10"/>
<path d="M232.658 219.073H251.173" stroke="white" stroke-miterlimit="10"/>
<path d="M232.658 222.105H251.173" stroke="white" stroke-miterlimit="10"/>
<path d="M232.658 225.134H251.173" stroke="white" stroke-miterlimit="10"/>
<path d="M249.423 142.203H259.399" stroke="white" stroke-miterlimit="10"/>
<path d="M249.423 146.023H260.793" stroke="white" stroke-miterlimit="10"/>
<path d="M249.423 138.386H262.881" stroke="white" stroke-miterlimit="10"/>
<path d="M232.144 151.106H242.528C243.521 151.106 244.327 150.3 244.327 149.306V138.922C244.327 137.929 243.521 137.123 242.528 137.123H232.144C231.15 137.123 230.344 137.929 230.344 138.922V149.306C230.344 150.3 231.15 151.106 232.144 151.106Z" fill="#3862F8"/>
<path d="M237.337 143.01C238.471 143.01 239.391 142.09 239.391 140.955C239.391 139.82 238.471 138.9 237.337 138.9C236.202 138.9 235.282 139.82 235.282 140.955C235.282 142.09 236.202 143.01 237.337 143.01Z" fill="#D7E8F0"/>
<path d="M242.546 149.326C242.546 147.946 241.998 146.623 241.022 145.647C240.046 144.672 238.723 144.123 237.343 144.123C235.963 144.123 234.639 144.672 233.664 145.647C232.688 146.623 232.14 147.946 232.14 149.326H242.546Z" fill="#D7E8F0"/>
<path d="M236.828 242.619L235.308 245.699C235.268 245.782 235.208 245.853 235.133 245.907C235.059 245.961 234.973 245.996 234.882 246.009L231.488 246.503C231.383 246.517 231.283 246.56 231.201 246.628C231.118 246.696 231.057 246.786 231.023 246.887C230.99 246.988 230.985 247.097 231.011 247.2C231.036 247.304 231.09 247.398 231.167 247.472L233.627 249.871C233.694 249.935 233.743 250.014 233.771 250.101C233.8 250.188 233.806 250.281 233.79 250.372L233.209 253.759C233.19 253.864 233.201 253.972 233.24 254.07C233.279 254.169 233.346 254.255 233.432 254.318C233.517 254.381 233.619 254.418 233.725 254.426C233.831 254.434 233.937 254.412 234.031 254.362L237.073 252.754C237.154 252.711 237.245 252.689 237.337 252.689C237.428 252.689 237.519 252.711 237.6 252.754L240.642 254.362C240.736 254.412 240.842 254.435 240.948 254.427C241.054 254.419 241.156 254.382 241.241 254.319C241.327 254.255 241.393 254.17 241.432 254.071C241.471 253.972 241.482 253.864 241.462 253.759L240.883 250.372C240.867 250.281 240.873 250.188 240.902 250.101C240.93 250.014 240.98 249.935 241.046 249.871L243.507 247.472C243.582 247.399 243.636 247.305 243.661 247.202C243.687 247.099 243.683 246.991 243.65 246.891C243.617 246.79 243.556 246.701 243.475 246.633C243.394 246.564 243.296 246.52 243.191 246.505L239.791 246.011C239.7 245.998 239.614 245.963 239.54 245.909C239.466 245.855 239.406 245.784 239.365 245.701L237.843 242.621C237.797 242.526 237.725 242.446 237.635 242.39C237.546 242.333 237.442 242.303 237.336 242.303C237.23 242.303 237.127 242.333 237.037 242.388C236.947 242.444 236.875 242.524 236.828 242.619Z" fill="#D7E8F0"/>
<path d="M259.838 250.364H248.286" stroke="#CCDDE2" stroke-miterlimit="10"/>
<path d="M306.402 257.147H301.589C300.814 257.146 300.05 256.969 299.355 256.628C298.66 256.287 298.051 255.791 297.577 255.179C297.102 254.567 296.774 253.855 296.617 253.096C296.46 252.338 296.479 251.554 296.671 250.804L298.384 244.169H315.71L305.37 212.149H307.728C308.718 212.151 309.689 211.876 310.531 211.355C310.826 211.176 311.101 210.967 311.353 210.732C311.418 210.673 311.482 210.611 311.54 210.553C311.661 210.43 311.771 210.301 311.882 210.173C311.987 210.04 312.083 209.905 312.186 209.771C312.932 208.655 313.233 207.3 313.03 205.973C312.692 203.748 312.35 201.579 312.005 199.465C301.337 133.836 289.005 119.883 282.853 116.918L283.396 109.956C284.328 109.622 285.112 108.968 285.607 108.11C285.748 108.15 285.893 108.203 286.046 108.261C287.345 108.733 288.917 109.029 290.252 108.522C291.894 107.899 290.927 106.18 290.817 104.94C290.78 104.648 290.507 102.819 291.072 102.815H292.318C292.393 102.819 292.467 102.802 292.533 102.766C292.598 102.73 292.653 102.677 292.69 102.612C292.727 102.547 292.745 102.473 292.742 102.399C292.739 102.324 292.716 102.251 292.674 102.189C291.559 100.275 291.01 98.0829 291.09 95.8686C291.021 95.9673 290.946 96.0608 290.863 96.148C290.939 96.0555 291.014 95.9631 291.084 95.8686C291.124 95.8103 291.166 95.756 291.207 95.6977C291.247 95.6394 291.283 95.5771 291.323 95.5127C291.399 95.3831 291.466 95.2488 291.524 95.1106C291.65 94.8386 291.746 94.5534 291.81 94.2602C291.995 93.4637 291.949 92.631 291.677 91.8597C291.677 91.8597 291.677 91.8477 291.677 91.8416C291.663 91.7894 291.644 91.7389 291.619 91.6909C291.564 91.5304 291.497 91.3744 291.418 91.2244C291.371 91.138 291.325 91.0495 291.273 90.9631C291.233 90.8939 291.191 90.8268 291.144 90.762C291.052 90.6273 290.959 90.5007 290.859 90.372C290.709 90.1765 290.546 89.9918 290.37 89.8191C289.164 88.6129 287.473 87.7383 285.965 87.2056C285.815 87.1533 285.656 87.101 285.505 87.0548C285.354 87.0085 285.26 86.9784 285.139 86.9442C284.848 86.8577 284.556 86.7813 284.258 86.717C284.102 86.6828 283.945 86.6466 283.786 86.6245C283.585 86.5823 283.384 86.5481 283.163 86.52C283.006 86.4959 282.849 86.4778 282.69 86.4617C282.532 86.4456 282.371 86.4315 282.214 86.4195H282.174C279.429 86.2385 276.679 86.9201 274.564 88.8541C274.454 88.9607 274.343 89.0552 274.232 89.1818C274.285 89.1054 274.343 89.023 274.389 88.9426C274.545 88.6963 274.679 88.4374 274.791 88.1686C274.843 88.0487 274.888 87.9258 274.926 87.8006C274.966 87.678 275 87.5493 275.037 87.4227C275.135 87.0282 275.183 86.623 275.181 86.2164C275.182 85.6492 275.087 85.0859 274.902 84.5498C274.874 84.4734 274.85 84.399 274.821 84.3286C274.745 84.1352 274.657 83.9465 274.558 83.7637C274.437 83.548 274.303 83.3398 274.156 83.1404C273.68 82.4969 273.059 81.9744 272.344 81.615C271.629 81.2557 270.839 81.0695 270.039 81.0717C269.91 81.0717 269.787 81.0717 269.659 81.0898C269.516 81.0959 269.375 81.1113 269.234 81.136C267.957 81.3399 266.804 82.0175 266.003 83.0337C265.203 84.0499 264.815 85.3303 264.917 86.6198C265.018 87.9093 265.601 89.1132 266.551 89.9919C267.5 90.8706 268.745 91.3594 270.039 91.3612C270.903 91.3533 271.751 91.1242 272.501 90.6957H272.513C272.681 90.6031 272.845 90.5017 273.002 90.3921C273.039 90.3694 273.074 90.3445 273.109 90.3177C273.229 90.2232 273.34 90.1308 273.452 90.0322C271.241 92.8167 270.463 96.6667 271.185 100.127C271.447 101.362 271.813 102.572 272.28 103.746C272.775 104.998 273.667 105.907 273.83 107.288C273.953 108.353 271.82 114.401 271.138 117.059C269.787 118.253 268.633 119.936 267.721 121.964C267.763 121.848 267.809 121.737 267.849 121.62C267.739 121.852 267.634 122.091 267.528 122.336C267.306 122.848 267.112 123.372 266.947 123.904C266.525 125.228 266.223 126.586 266.044 127.963C265.979 128.424 265.921 128.884 265.875 129.351L265.857 129.552C265.856 129.587 265.852 129.622 265.845 129.656C265.823 129.899 265.805 130.145 265.786 130.39C265.762 130.698 265.74 131.007 265.728 131.317C265.716 131.626 265.7 131.898 265.682 132.195V132.254C265.664 132.591 265.652 132.929 265.648 133.273V133.396C265.618 134.614 265.624 135.842 265.648 137.067C265.676 139.007 265.734 140.941 265.734 142.805C265.734 143.09 265.734 143.375 265.734 143.655C265.734 143.934 265.734 144.22 265.722 144.493C265.71 144.767 265.71 145.024 265.7 145.281C265.7 145.573 265.676 145.858 265.664 146.144C265.664 146.172 265.664 146.196 265.664 146.224C265.666 146.254 265.666 146.283 265.664 146.313V146.353C265.652 146.58 265.634 146.807 265.616 147.035C264.982 155.773 263.588 164.44 261.45 172.937C258.509 184.471 253.796 195.523 251.436 207.193C250.877 209.937 250.557 213.036 251.384 215.611C251.472 215.89 251.575 216.165 251.693 216.433C251.752 216.566 251.814 216.701 251.878 216.835C251.983 217.036 252.095 217.219 252.206 217.406C252.316 217.593 252.449 217.772 252.584 217.947C252.67 218.064 252.771 218.174 252.869 218.291C252.968 218.407 253.07 218.512 253.179 218.617C254.643 220.062 256.653 220.715 258.704 221.093L249.93 233.136L255.336 235.734L255.726 235.92L255.65 236.037L255.423 235.927L244.566 250.078L262.739 259.033C263.106 259.218 263.517 259.299 263.927 259.266C264.39 259.3 264.853 259.194 265.256 258.962C265.659 258.73 265.983 258.383 266.187 257.965C266.349 257.643 266.433 257.288 266.432 256.928C266.431 256.49 266.308 256.061 266.076 255.689C265.845 255.318 265.514 255.018 265.121 254.825L261.09 252.838C260.395 252.496 259.788 252 259.315 251.387C258.842 250.775 258.515 250.062 258.36 249.303C258.205 248.545 258.225 247.761 258.419 247.011C258.614 246.262 258.977 245.567 259.482 244.98L263.292 240.191L264.234 240.01L275.543 245.438L283.076 236.361V244.185H289.357L285.831 261.831H306.402C307.023 261.831 307.618 261.584 308.058 261.145C308.497 260.706 308.744 260.11 308.744 259.489C308.744 258.868 308.497 258.272 308.058 257.833C307.618 257.394 307.023 257.147 306.402 257.147Z" fill="white"/>
<path d="M285.467 126.403C288.426 139.365 289.817 158.621 290.459 176.061C289.811 158.635 288.414 139.421 285.467 126.482C283.981 120.016 281.876 116.946 279.401 115.722C279.628 115.814 279.862 115.923 280.095 116.037C280.107 116.047 280.121 116.054 280.135 116.059C282.296 117.513 284.132 120.577 285.467 126.403Z" fill="#2E2E2E"/>
<path d="M290.925 196.681C290.821 196.542 290.724 196.441 290.724 196.441C290.803 196.203 290.866 195.96 290.911 195.714C290.925 196.039 290.925 196.361 290.925 196.681Z" fill="#2E2E2E"/>
<path d="M286.229 105.937C286.229 106.775 285.971 107.593 285.49 108.28C285.009 108.966 284.329 109.488 283.541 109.775C283.096 109.94 282.624 110.024 282.15 110.022C281.903 110.024 281.657 109.999 281.416 109.95C280.754 109.668 280.178 109.216 279.748 108.64C279.317 108.064 279.046 107.385 278.962 106.67C278.879 105.956 278.986 105.232 279.272 104.572C279.559 103.912 280.014 103.34 280.593 102.913C281.294 102.388 282.147 102.106 283.022 102.109C283.269 102.108 283.514 102.132 283.756 102.181C284.491 102.496 285.117 103.02 285.556 103.688C285.996 104.355 286.23 105.137 286.229 105.937Z" fill="black"/>
<path d="M290.965 202.099C290.965 201.831 290.965 201.558 290.953 201.282C292.172 201.12 290.965 201.835 290.965 202.099Z" fill="#3FBDF1"/>
<path d="M301.12 206.335C300.666 202.688 300.316 199.017 299.99 195.346C299.711 192.187 299.431 189.029 299.088 185.878C297.375 170.048 295.457 154.208 292.911 138.49C291.705 131.051 289.48 123.331 283.478 118.285C282.451 117.424 281.329 116.682 280.135 116.074C282.296 117.525 284.132 120.589 285.467 126.415C287.407 134.922 288.683 146.136 289.488 157.778C288.655 146.166 287.391 134.986 285.467 126.498C283.981 120.032 281.876 116.962 279.401 115.738C279.628 115.83 279.862 115.939 280.095 116.053C279.875 115.905 279.645 115.77 279.407 115.651L279.371 115.635C279.368 115.634 279.364 115.633 279.36 115.633C279.356 115.633 279.352 115.634 279.349 115.635C278.642 115.333 277.899 115.126 277.137 115.018H277.125C276.476 114.924 275.817 114.924 275.167 115.018C275.348 115.018 275.535 115.018 275.722 115.018C284.751 115.489 284.612 123.681 285.002 140.796C285.276 152.869 288.782 176.23 290.833 188.936C290.821 188.546 290.815 188.156 290.802 187.76C290.983 188.936 291.094 189.986 291.146 190.911C291.828 195.076 292.276 197.688 292.276 197.688L286.245 197.605L286.979 200.943H289.793C289.815 200.94 289.836 200.94 289.858 200.943C290.158 200.941 290.447 201.058 290.662 201.268C290.784 201.244 290.895 201.228 290.987 201.216C290.987 201.518 290.987 201.819 290.987 202.119V202.828C291 209.204 290.941 214.557 290.911 216.393C290.907 216.628 290.811 216.852 290.643 217.016C290.475 217.181 290.249 217.273 290.014 217.272H266.579C266.461 217.271 266.345 217.248 266.236 217.203C266.128 217.157 266.029 217.091 265.947 217.008C265.864 216.925 265.798 216.826 265.753 216.717C265.709 216.609 265.686 216.492 265.686 216.375V214.903H265.179V202.197C265.182 202.008 265.229 201.822 265.317 201.654C265.405 201.487 265.532 201.342 265.686 201.232V146.164C265.67 146.437 265.652 146.713 265.634 146.98C265 155.72 263.607 164.387 261.468 172.885C258.527 184.413 253.814 195.47 251.454 207.135C250.65 211.073 250.336 215.728 253.201 218.554C255.089 220.424 257.891 220.967 260.525 221.315C272.406 222.916 284.466 222.62 296.255 220.44C297.28 220.249 298.348 220.038 299.186 219.399C303.06 216.5 301.621 210.354 301.12 206.335ZM281.492 200.933L275.678 200.711L275.115 197.181H275.274C267.634 173.257 266.026 134.483 266.026 134.483C265.905 132.23 266.108 126.299 267.885 121.568C267.775 121.799 267.67 122.039 267.566 122.284C267.343 122.795 267.148 123.319 266.983 123.852C266.421 125.659 266.057 127.523 265.899 129.409C265.782 130.633 265.718 131.874 265.698 133.132V137.256C265.746 140.297 265.845 143.309 265.698 146.084V201.15C265.897 201.009 266.135 200.933 266.38 200.933H281.492Z" fill="#2E2E2E"/>
<path d="M285.467 126.403C288.426 139.365 289.817 158.621 290.459 176.061C289.811 158.635 288.414 139.421 285.467 126.482C283.981 120.016 281.876 116.946 279.401 115.722C279.628 115.814 279.862 115.923 280.095 116.037C280.107 116.047 280.121 116.054 280.135 116.059C282.296 117.513 284.132 120.577 285.467 126.403Z" fill="#2E2E2E"/>
<path d="M290.925 196.681C290.821 196.542 290.724 196.441 290.724 196.441C290.803 196.203 290.866 195.96 290.911 195.714C290.925 196.039 290.925 196.361 290.925 196.681Z" fill="#2E2E2E"/>
<path d="M307.767 212.103H305.406L299.988 195.346C299.709 192.187 299.429 189.029 299.086 185.878C297.373 170.048 295.457 154.208 292.909 138.49C291.703 131.051 289.48 123.331 283.478 118.285C282.45 117.424 281.328 116.682 280.133 116.074C280.133 116.074 281.16 116.027 282.907 116.878C289.252 119.938 302.192 134.71 313.08 205.941C313.193 206.704 313.14 207.483 312.924 208.225C312.709 208.966 312.337 209.652 311.833 210.237C311.329 210.821 310.704 211.291 310.003 211.613C309.301 211.935 308.539 212.102 307.767 212.103Z" fill="#3862F8"/>
<path d="M308.472 259.443C308.472 259.751 308.411 260.056 308.293 260.34C308.175 260.625 308.002 260.883 307.784 261.1C307.566 261.318 307.307 261.49 307.022 261.608C306.737 261.725 306.432 261.785 306.124 261.785H285.867L289.389 244.121H298.436L296.723 250.756C296.531 251.506 296.512 252.29 296.669 253.048C296.826 253.807 297.155 254.519 297.629 255.131C298.104 255.743 298.712 256.238 299.407 256.579C300.102 256.92 300.866 257.098 301.641 257.099H306.138C306.76 257.099 307.356 257.345 307.796 257.784C308.237 258.223 308.485 258.819 308.486 259.441L308.472 259.443Z" fill="#1740FF"/>
<path d="M266.14 256.861C266.142 257.222 266.058 257.577 265.895 257.899C265.76 258.175 265.572 258.423 265.341 258.626C265.11 258.83 264.842 258.986 264.55 259.085C264.259 259.184 263.951 259.225 263.644 259.205C263.336 259.184 263.036 259.103 262.761 258.966L244.59 250.012L255.447 235.86L263.607 239.78L259.184 244.913C258.68 245.5 258.316 246.195 258.122 246.945C257.927 247.694 257.907 248.478 258.062 249.237C258.218 249.995 258.544 250.708 259.017 251.321C259.491 251.934 260.098 252.43 260.793 252.772L264.813 254.764C265.209 254.955 265.543 255.252 265.777 255.623C266.012 255.994 266.137 256.423 266.14 256.861Z" fill="#1740FF"/>
<path d="M265.294 214.598C265.294 214.598 265.682 215.201 265.682 216.361C265.682 217.521 269.285 217.316 269.761 217.316L288.308 217.268C288.308 217.268 290.921 217.941 290.921 215.325C290.921 212.71 291.725 201.867 290.626 201.339C289.526 200.81 282.721 201.232 282.721 201.232L267.331 201.011C267.331 201.011 265.061 199.604 265.175 203.964C265.29 208.325 265.294 214.598 265.294 214.598Z" fill="#4361EE" fill-opacity="0.52"/>
<path d="M291.862 94.1919C291.735 94.7731 291.487 95.3211 291.134 95.8002C290.54 96.5781 289.755 97.1901 288.856 97.5775C286.782 98.5385 284.102 98.6852 282.222 98.2409C281.72 98.1155 281.207 98.0401 280.69 98.0157C280.087 98.0157 279.514 98.1263 279.072 98.5324C277.743 99.7568 278.448 101.335 279.496 102.535C278.963 102.927 278.529 103.44 278.231 104.031C277.934 104.622 277.779 105.275 277.781 105.937C277.643 106.347 277.41 106.719 277.099 107.021C276.924 107.021 276.496 107.638 276.347 107.624C275.125 107.409 274.63 108.014 274.228 107.021C273.394 104.886 272.871 102.643 272.674 100.36C272.415 97.7242 272.312 94.7588 273.478 92.3181C274.302 90.682 275.564 89.3076 277.125 88.3495C278.68 87.3359 280.426 86.6516 282.256 86.3391C283.535 86.4294 284.795 86.6946 286.002 87.1271C288.961 88.1786 292.654 90.5208 291.862 94.1919Z" fill="#1740FF"/>
<path d="M275.211 86.1521C275.213 87.2146 274.884 88.2512 274.269 89.1175C273.993 89.3911 273.735 89.6811 273.495 89.986C273.209 90.2435 272.894 90.4662 272.556 90.6494C271.362 90.8373 270.14 90.5983 269.104 89.9746C268.069 89.3509 267.286 88.3823 266.894 87.239C266.502 86.0957 266.525 84.8507 266.96 83.7228C267.395 82.5949 268.213 81.6562 269.271 81.0717C269.537 81.0297 269.805 81.0082 270.075 81.0073C271.438 81.0095 272.744 81.5524 273.707 82.517C274.671 83.4816 275.211 84.789 275.211 86.1521Z" fill="#1740FF"/>
<path d="M266.971 123.93C264.717 130.943 266.166 139.833 265.634 146.978C265 155.719 263.606 164.387 261.466 172.885C258.525 184.411 253.804 195.466 251.452 207.131C250.648 211.073 250.334 215.727 253.197 218.554C255.089 220.422 257.889 220.967 260.523 221.315C272.406 222.916 284.469 222.62 296.259 220.436C297.288 220.245 298.354 220.022 299.192 219.395C303.058 216.502 301.621 210.348 301.116 206.327C300.266 199.535 299.821 192.674 299.086 185.866C297.373 170.038 295.457 154.194 292.909 138.476C291.703 131.037 289.478 123.319 283.476 118.275C282.449 117.414 281.326 116.672 280.131 116.064C274.562 113.219 270.079 116.419 267.554 122.366C267.337 122.875 267.144 123.398 266.971 123.93Z" stroke="black" stroke-miterlimit="10"/>
<path d="M265.889 129.489C265.799 130.569 267.932 166.009 272.286 185.265C273.312 189.812 274.209 193.877 274.978 197.461C281.211 197.396 292.377 197.678 292.377 197.678C292.377 197.678 284.793 152.483 285.008 136.22" stroke="black" stroke-miterlimit="10"/>
<path d="M265.682 133.213V137.256V146.297V201.232" stroke="black" stroke-miterlimit="10"/>
<path d="M290.961 202.103C290.981 208.787 290.915 214.473 290.885 216.377C290.882 216.611 290.787 216.836 290.62 217C290.452 217.165 290.227 217.256 289.992 217.255H266.577C266.339 217.255 266.112 217.16 265.945 216.993C265.777 216.825 265.682 216.598 265.682 216.361V214.903" stroke="black" stroke-miterlimit="10"/>
<path d="M277.113 115.08C277.889 115.151 278.647 115.36 279.349 115.698C279.349 115.698 279.359 115.698 279.363 115.698C281.854 116.904 283.975 119.978 285.461 126.476C290.057 146.622 290.889 181.964 290.961 202.093" stroke="black" stroke-miterlimit="10"/>
<path d="M289.801 201.013H266.367C266.053 201.014 265.751 201.139 265.528 201.362C265.305 201.584 265.18 201.886 265.179 202.201V214.903H288.702V203.058" stroke="black" stroke-miterlimit="10"/>
<path d="M288.692 203.066V202.123C288.695 201.825 288.817 201.541 289.029 201.333C289.242 201.125 289.528 201.009 289.825 201.011C290.126 201.011 290.415 201.128 290.63 201.339C290.837 201.54 290.956 201.814 290.961 202.103" stroke="black" stroke-miterlimit="10"/>
<path d="M290.965 202.812H288.692" stroke="black" stroke-miterlimit="10"/>
<path d="M274.978 197.461L275.718 201.011H286.703L286 197.571" stroke="black" stroke-miterlimit="10"/>
<path d="M258.722 221.031L249.952 233.072L275.567 245.378L283.1 236.296" stroke="black" stroke-miterlimit="10"/>
<path d="M296.259 220.434L283.1 236.296V244.121H315.748L305.406 212.103L299.986 195.342" stroke="black" stroke-miterlimit="10"/>
<path d="M289.695 244.119L286.172 261.787H306.44C307.061 261.786 307.657 261.539 308.096 261.1C308.535 260.66 308.782 260.064 308.782 259.443V259.443C308.782 258.821 308.535 258.225 308.096 257.786C307.657 257.346 307.061 257.099 306.44 257.099H301.938C301.164 257.098 300.401 256.92 299.706 256.579C299.012 256.238 298.404 255.743 297.93 255.131C297.457 254.519 297.129 253.807 296.973 253.049C296.816 252.291 296.836 251.507 297.029 250.758L298.74 244.123" stroke="black" stroke-miterlimit="10"/>
<path d="M255.867 235.715L244.902 250.01L263.072 258.968C263.63 259.243 264.275 259.285 264.864 259.085C265.452 258.884 265.938 258.459 266.213 257.901V257.901C266.487 257.343 266.529 256.699 266.329 256.11C266.129 255.522 265.703 255.037 265.145 254.762L261.11 252.772C260.415 252.43 259.808 251.934 259.334 251.321C258.861 250.708 258.534 249.995 258.379 249.236C258.223 248.477 258.244 247.693 258.439 246.943C258.633 246.194 258.997 245.499 259.502 244.911L263.973 239.714" stroke="black" stroke-miterlimit="10"/>
<path d="M280.141 116.062C280.141 116.062 299.202 115.056 313.088 205.919C313.205 206.684 313.155 207.465 312.941 208.209C312.728 208.952 312.356 209.641 311.852 210.228C311.347 210.815 310.722 211.286 310.019 211.609C309.315 211.932 308.551 212.099 307.777 212.099H305.404" stroke="black" stroke-miterlimit="10"/>
<path d="M271.176 117.008C271.86 114.353 273.991 108.299 273.868 107.236C273.708 105.854 272.819 104.944 272.322 103.693C271.854 102.521 271.488 101.31 271.227 100.074C270.392 96.0817 271.548 91.5762 274.606 88.7837C277.716 85.941 282.186 85.7801 286.004 87.1271C288.967 88.1705 292.658 90.5107 291.864 94.1838C291.032 98.0358 285.451 98.9948 282.214 98.2469C281.209 98.0157 279.898 97.7684 279.063 98.5384C277.739 99.7588 278.442 101.335 279.486 102.535" stroke="black" stroke-miterlimit="10"/>
<path d="M285.658 108.052C285.798 108.092 285.943 108.144 286.094 108.203C287.395 108.675 288.967 108.971 290.302 108.464C291.944 107.841 290.977 106.122 290.867 104.881C290.831 104.59 290.557 102.76 291.122 102.756H292.369C292.443 102.76 292.517 102.744 292.583 102.708C292.649 102.672 292.703 102.619 292.74 102.554C292.777 102.489 292.795 102.415 292.792 102.34C292.789 102.266 292.766 102.193 292.724 102.131C291.607 100.214 291.058 98.018 291.14 95.8002" stroke="black" stroke-miterlimit="10"/>
<path d="M282.007 110.159C284.339 110.159 286.229 108.269 286.229 105.937C286.229 103.605 284.339 101.715 282.007 101.715C279.675 101.715 277.785 103.605 277.785 105.937C277.785 108.269 279.675 110.159 282.007 110.159Z" stroke="black" stroke-miterlimit="10"/>
<path d="M270.075 91.2948C272.915 91.2948 275.217 88.9923 275.217 86.1521C275.217 83.3118 272.915 81.0093 270.075 81.0093C267.235 81.0093 264.932 83.3118 264.932 86.1521C264.932 88.9923 267.235 91.2948 270.075 91.2948Z" stroke="black" stroke-miterlimit="10"/>
<path d="M283.446 109.901L282.909 116.86" stroke="black" stroke-miterlimit="10"/>
<path d="M273.868 107.236C273.868 107.236 276.78 108.669 277.785 105.937" stroke="black" stroke-miterlimit="10"/>
<path d="M272.58 96.5099C272.58 96.8778 272.562 97.2156 272.544 97.5352C272.55 97.1914 272.556 96.8537 272.58 96.5099Z" fill="#3FBDF1"/>
<path d="M210.666 261.785H329.719" stroke="black" stroke-width="4.35" stroke-miterlimit="10"/>
<defs>
<clipPath id="clip0_2115_3734">
<rect width="208.531" height="208.531" fill="white" transform="translate(-10)"/>
</clipPath>
</defs>
</svg>
