<svg width="325" height="140" viewBox="0 0 325 140" fill="none" xmlns="http://www.w3.org/2000/svg">
<path d="M0 68.509C0 41.8382 0 28.5028 6.10496 18.7603C9.31341 13.6401 13.6401 9.31341 18.7603 6.10496C28.5028 0 41.8382 0 68.509 0H256.559C283.165 0 296.468 0 306.194 6.07655C311.349 9.2973 315.703 13.6506 318.923 18.8057C325 28.5317 325 41.8347 325 68.4407C325 92.8193 325 105.009 319.475 114.398C316.59 119.303 312.48 123.732 307.805 126.976C298.854 133.188 286.994 134.077 263.272 135.855C189.166 141.411 132.326 141.32 61.6414 135.953C37.9392 134.153 26.0881 133.253 17.1328 127.013C12.4987 123.785 8.41254 119.376 5.54376 114.511C0 105.109 0 92.909 0 68.509Z" fill="#BDBDBD"/>
</svg>
