<svg width="293" height="293" viewBox="0 0 293 293" fill="none" xmlns="http://www.w3.org/2000/svg">
<path d="M29.593 281.529C14.8815 267.943 7.79674 244.702 23.6744 229.082C27.6035 225.22 32.3589 222.343 37.4454 220.292C37.6476 220.219 37.8468 220.137 38.049 220.063" stroke="#CCDDE2" stroke-width="2" stroke-miterlimit="10"/>
<path d="M123.646 166.263C138.431 167.523 144.074 174.218 151.15 183.02C151.736 183.749 152.301 184.485 152.858 185.22C159.187 193.568 163.925 206.717 176.72 205.082C186.717 203.802 195.276 197.485 204.233 193.395C218.997 186.656 236.756 179.999 252.628 187.139C269.639 194.789 278.022 215.648 278.35 233.243C278.669 250.931 271.163 273.548 253.949 281.529" stroke="#CCDDE2" stroke-width="2" stroke-miterlimit="10"/>
<path d="M133.798 200.825C133.599 208.707 130.946 216.33 126.21 222.633C126.199 222.643 126.19 222.655 126.183 222.668C125.735 223.152 125.278 223.635 124.812 224.101C121.093 227.835 116.673 230.796 111.806 232.815C106.938 234.834 101.719 235.87 96.4498 235.865H96.3414C90.2587 235.865 84.1789 235.886 78.105 235.886C73.3116 235.886 68.4624 236.179 63.7158 235.484C62.1893 235.264 60.7477 234.781 59.186 234.851C53.2323 235.127 49.142 240.761 46.3204 245.317C46.2833 245.376 46.2332 245.427 46.1739 245.464C46.1528 245.412 46.1428 245.356 46.1446 245.3C46.5196 238.432 45.0312 231.329 41.606 225.346C41.5445 225.229 41.48 225.118 41.4156 225.009C39.5081 221.786 36.9678 219.018 35.3329 215.633C32.5034 209.75 31.2335 203.239 31.645 196.723C32.0564 190.208 34.1355 183.908 37.6826 178.428C41.2297 172.947 46.1258 168.471 51.9011 165.427C57.6764 162.384 64.1369 160.875 70.6628 161.047L96.7691 161.751C106.861 162.023 116.431 166.292 123.375 173.62C130.319 180.948 134.069 190.733 133.798 200.825Z" fill="#1740FF"/>
<path d="M136.556 195.75C136.57 205.686 132.881 215.271 126.21 222.633C126.199 222.643 126.19 222.655 126.183 222.668C125.735 223.152 125.278 223.635 124.812 224.101C121.093 227.835 116.673 230.796 111.806 232.815C106.938 234.834 101.719 235.87 96.4497 235.865H96.3413C90.2587 235.865 84.1789 235.886 78.105 235.886C73.3115 235.886 68.4624 236.179 63.7158 235.484C62.1893 235.264 60.7477 234.781 59.186 234.851C53.2323 235.127 49.142 240.761 46.3204 245.317C46.2832 245.376 46.2332 245.427 46.1739 245.464C46.1068 245.506 46.0296 245.529 45.9505 245.53C45.8713 245.532 45.7933 245.512 45.7247 245.472C45.6561 245.433 45.5995 245.375 45.5609 245.306C45.5224 245.237 45.5033 245.159 45.5058 245.08C45.708 237.828 43.9354 230.398 40.1557 224.186C40.0912 224.069 40.018 223.949 39.9447 223.84C37.8439 220.506 35.0956 217.658 33.279 214.142C30.1243 208.027 28.5956 201.204 28.8397 194.327C29.0838 187.451 31.0925 180.753 34.6728 174.877C38.2531 169.001 43.2845 164.145 49.2836 160.776C55.2826 157.406 62.0476 155.636 68.9283 155.636H96.4497C101.717 155.636 106.933 156.674 111.799 158.69C116.665 160.706 121.087 163.661 124.811 167.386C128.535 171.111 131.489 175.534 133.504 180.4C135.52 185.267 136.556 190.483 136.556 195.75V195.75Z" stroke="black" stroke-width="2" stroke-miterlimit="10"/>
<path d="M112.442 174.402H89.658C85.8099 174.402 82.6904 177.522 82.6904 181.37V212.147C82.6904 215.995 85.8099 219.114 89.658 219.114H112.442C116.29 219.114 119.409 215.995 119.409 212.147V181.37C119.409 177.522 116.29 174.402 112.442 174.402Z" fill="#4361EE"/>
<path d="M101.255 186.808C102.815 186.808 104.079 185.543 104.079 183.983C104.079 182.424 102.815 181.159 101.255 181.159C99.695 181.159 98.4304 182.424 98.4304 183.983C98.4304 185.543 99.695 186.808 101.255 186.808Z" fill="white"/>
<path d="M93.3644 196.758C93.3644 194.666 94.1958 192.659 95.6755 191.179C97.1553 189.699 99.1622 188.868 101.255 188.868C103.348 188.868 105.355 189.699 106.834 191.179C108.314 192.659 109.145 194.666 109.145 196.758H93.3644Z" fill="white"/>
<path d="M108.02 203.494H94.0764C92.0941 203.494 90.4872 205.101 90.4872 207.084V208.845C90.4872 210.827 92.0941 212.434 94.0764 212.434H108.02C110.003 212.434 111.61 210.827 111.61 208.845V207.084C111.61 205.101 110.003 203.494 108.02 203.494Z" fill="#1740FF"/>
<path d="M71.24 188.663H49.0629" stroke="white" stroke-width="2" stroke-linecap="round" stroke-linejoin="round"/>
<path d="M71.24 193.849H49.0629" stroke="white" stroke-width="2" stroke-linecap="round" stroke-linejoin="round"/>
<path d="M71.24 198.478H49.0629" stroke="white" stroke-width="2" stroke-linecap="round" stroke-linejoin="round"/>
<path d="M71.24 203.664H49.0629" stroke="white" stroke-width="2" stroke-linecap="round" stroke-linejoin="round"/>
<path d="M71.24 184.033H49.0629" stroke="white" stroke-width="2" stroke-linecap="round" stroke-linejoin="round"/>
<path d="M71.24 208.297H49.0629" stroke="white" stroke-width="2" stroke-linecap="round" stroke-linejoin="round"/>
<path d="M77.4369 241.954C77.4369 241.954 67.1673 240.96 68.2778 230.527C69.3882 220.093 71.407 220.565 80.6306 216.225C80.6306 216.225 88.1637 216.19 90.2645 218.449C92.3653 220.708 93.5842 216.234 93.5842 216.234C93.5842 216.234 103.4 203.887 115.653 206.483C127.906 209.079 106.089 218.906 106.089 218.906C106.089 218.906 92.0108 219.1 95.6528 224.324C95.6528 224.324 97.7711 228.253 96.5523 231.526C95.3334 234.798 95.348 240.049 94.5423 240.201C93.7365 240.354 81.7147 242.973 81.7147 242.973L77.4369 241.954Z" fill="white"/>
<path d="M173.394 281.532H144.868C140.144 281.539 135.464 280.615 131.097 278.812C126.73 277.009 122.761 274.363 119.418 271.025C119.416 271.721 119.342 272.415 119.198 273.097V254.093C109.822 243.143 98.8992 248.713 97.4313 249.536C96.7808 243.316 96.2066 238.402 96.2066 238.402C96.2066 238.402 94.6273 225.059 106.992 220.175C107.092 220.131 107.191 220.093 107.285 220.058C113.072 217.875 118.313 218.953 122.688 221.098C122.761 221.142 122.834 221.171 122.908 221.215C127.528 223.536 131.153 227.025 133.391 229.062C133.629 229.27 133.848 229.472 134.056 229.648C136.359 231.658 142.366 237.594 149.114 242.378L149.225 242.46C154.182 245.956 159.533 248.833 164.101 249.079C164.109 249.097 175.677 260.732 173.394 281.532Z" fill="#2E2E2E"/>
<path d="M171.056 247.38C168.399 248.432 166.116 249.024 163.898 249.097C162.738 249.135 161.577 249.021 160.447 248.757C157.121 248.027 153.635 246.017 149.02 242.466L148.911 242.384C144.929 239.334 140.121 235.141 133.851 229.653C133.643 229.472 133.423 229.27 133.186 229.067C132.574 228.537 131.944 227.989 131.305 227.424C128.663 225.056 125.777 222.975 122.697 221.215C122.623 221.171 122.55 221.142 122.477 221.098C122.184 220.925 121.876 220.77 121.574 220.614C120.896 220.264 120.194 219.962 119.474 219.709C117.709 219.078 115.851 218.742 113.977 218.716L112.825 218.745C97.9792 219.182 94.7093 222.633 94.7093 222.633C96.2196 224.693 97.1467 227.123 97.3932 229.665C96.1684 229.466 94.9466 229.847 94.7357 231.2C94.4807 232.862 94.0969 234.385 92.5528 235.364C91.6114 235.914 90.4986 236.093 89.4324 235.865C89.4324 235.865 89.4119 235.865 89.4031 235.865C89.0925 235.774 88.7907 235.701 88.5241 235.645C88.4055 235.617 88.289 235.581 88.1754 235.537C85.0637 234.403 83.2471 234.842 83.839 238.174C84.5334 242.091 79.4206 242.604 76.0511 242C70.1061 239.325 68.4799 228.889 73.1914 222.46C73.3115 222.296 73.4463 222.123 73.584 221.948C73.7217 221.772 73.877 221.611 74.0147 221.446C74.3664 221.065 74.7412 220.704 75.1369 220.368C75.2746 220.251 75.4123 220.131 75.5559 220.023C75.6995 219.914 75.9046 219.756 76.0774 219.63C76.2457 219.496 76.4229 219.374 76.6078 219.264C78.2021 218.215 79.9933 217.501 81.8721 217.167C83.751 216.833 85.6783 216.884 87.5367 217.318C89.0354 217.851 90.4428 218.612 91.709 219.574C91.709 219.574 91.8262 219.393 92.0635 219.064C92.6147 219.391 93.1451 219.751 93.6516 220.143C93.6516 220.143 102.573 206.536 115.512 206.691C116.555 206.7 117.593 206.823 118.609 207.057C128.7 210.626 135.548 223.483 141.721 225.455C142.189 225.604 142.664 225.729 143.145 225.83C147.921 226.852 153.262 225.739 158.003 225.437C161.127 225.238 164.332 225.311 167.353 226.149C167.728 226.252 168.112 226.378 168.487 226.515H168.504C172.723 228.03 176.878 231.391 177.91 235.856C179.067 240.805 175.302 245.434 171.056 247.38Z" fill="#3862F8"/>
<path d="M259.616 207.151C259.488 207.671 259.244 208.156 258.902 208.569C258.56 208.981 258.128 209.311 257.641 209.533L249.422 213.451L231.115 220.163L232.873 214.054C233.419 213.254 234.198 212.64 235.103 212.296L251.004 206.205L254.91 204.681C255.686 204.398 256.535 204.392 257.315 204.663C258.095 204.935 258.758 205.466 259.191 206.169C259.382 206.473 259.525 206.804 259.616 207.151Z" fill="#3862F8"/>
<path d="M251.013 204.461L254.925 202.923C255.794 202.605 256.753 202.635 257.6 203.008C258.447 203.381 259.117 204.068 259.468 204.924C259.82 205.781 259.827 206.74 259.486 207.601C259.146 208.462 258.486 209.157 257.644 209.542L249.425 213.456L237.207 272.642C236.52 275.193 235.012 277.446 232.915 279.053C230.819 280.66 228.251 281.531 225.61 281.532H144.648C139.924 281.539 135.244 280.614 130.877 278.812C126.511 277.009 122.542 274.363 119.198 271.025" stroke="black" stroke-width="2" stroke-miterlimit="10"/>
<path d="M222.785 241.801L222.531 242.504C217.892 254.895 217.362 262.135 217.362 262.135" stroke="black" stroke-width="2" stroke-miterlimit="10"/>
<path d="M99.5937 273.422L95.9868 236.624C95.984 233.13 97.0038 229.712 98.9203 226.792C100.837 223.871 103.566 221.575 106.772 220.187C109.115 219.147 111.661 218.647 114.223 218.723C116.785 218.799 119.298 219.449 121.575 220.626C121.868 220.781 122.175 220.937 122.477 221.11C122.55 221.156 122.623 221.183 122.697 221.227C125.775 222.985 128.658 225.065 131.299 227.43C131.938 227.995 132.568 228.543 133.18 229.073C133.418 229.281 133.637 229.483 133.845 229.659C140.11 235.147 144.924 239.328 148.906 242.39L149.014 242.472C155.24 247.257 159.407 249.238 163.89 249.091C166.72 249 169.67 248.051 173.339 246.425C187.037 240.342 210.058 244.315 217.966 259.536" stroke="black" stroke-width="2" stroke-miterlimit="10"/>
<path d="M108.671 281.514C108.864 281.514 109.046 281.532 109.227 281.532C111.87 281.532 114.403 280.482 116.272 278.614C118.14 276.746 119.189 274.212 119.189 271.57V243.19" stroke="black" stroke-width="2" stroke-miterlimit="10"/>
<path d="M97.3844 229.665C96.3149 218.862 83.6339 212.744 74.6652 218.672C74.5187 218.754 74.3722 218.853 74.2374 218.965L74.126 219.047C73.9532 219.176 73.7803 219.305 73.6074 219.439C73.0564 219.874 72.5401 220.351 72.0633 220.866C71.9168 221.03 71.7703 221.203 71.6326 221.367C71.4949 221.531 71.3601 221.716 71.24 221.88" stroke="black" stroke-width="2" stroke-miterlimit="10"/>
<path d="M76.0716 241.974C77.7274 243.625 79.6784 244.951 81.8232 245.883C90.4257 249.352 94.6009 242.797 94.6009 242.797" stroke="black" stroke-width="2" stroke-miterlimit="10"/>
<path d="M168.674 248.268C168.938 248.174 169.205 248.083 169.459 248.001L169.542 247.975C169.61 247.954 169.678 247.93 169.744 247.901C169.969 247.828 170.189 247.746 170.418 247.655L170.848 247.482C175.176 245.587 179.087 240.89 177.921 235.853C176.79 230.989 171.959 227.432 167.373 226.149C164.352 225.311 161.147 225.238 158.024 225.437C152.799 225.765 146.855 227.09 141.733 225.455C134.584 223.172 126.52 206.281 113.581 206.117C100.643 205.953 91.709 219.571 91.709 219.571" stroke="black" stroke-width="2" stroke-miterlimit="10"/>
<path d="M94.7064 222.639C94.7064 222.639 97.3844 219.012 113.215 218.719" stroke="black" stroke-width="2" stroke-miterlimit="10"/>
<path d="M222.531 242.504L230.383 220.433L230.995 218.707L232.958 213.184C233.108 212.764 233.321 212.369 233.588 212.012C234.135 211.213 234.913 210.599 235.818 210.254L251.013 204.455" stroke="black" stroke-width="2" stroke-miterlimit="10"/>
<path d="M215.062 206.117L210.916 213.011L200.096 227.567L198.654 220.945C198.676 219.984 198.989 219.051 199.551 218.27L209.029 205.047L210.052 203.77C210.542 203.103 211.247 202.627 212.048 202.422C212.849 202.217 213.697 202.296 214.447 202.645C214.847 202.829 215.207 203.09 215.507 203.412C215.615 203.87 215.63 204.345 215.554 204.809C215.478 205.273 215.31 205.717 215.062 206.117Z" fill="#3862F8"/>
<path d="M224.066 238.209L210.922 213.011L215.062 206.114C215.426 205.53 215.614 204.854 215.604 204.166C215.594 203.478 215.387 202.808 215.006 202.234C214.645 201.686 214.138 201.249 213.541 200.975C212.792 200.627 211.946 200.548 211.146 200.75C210.346 200.953 209.639 201.426 209.146 202.088L208.121 203.377" stroke="black" stroke-width="2" stroke-miterlimit="10"/>
<path d="M208.112 203.377L198.633 216.589C198.077 217.375 197.771 218.312 197.754 219.275C197.732 219.723 197.775 220.172 197.88 220.608L199.287 226.296L199.726 228.077L204.485 247.327" stroke="black" stroke-width="2" stroke-miterlimit="10"/>
<path d="M74.6622 218.666C66.0363 224.016 67.0237 238.297 74.1554 241.438C76.8803 242.639 84.7034 242.932 83.8244 238.145C83.2384 234.825 85.052 234.385 88.1666 235.508C93.5549 237.459 94.6947 232.244 94.6947 231.883" stroke="black" stroke-width="2" stroke-miterlimit="10"/>
<path d="M93.0011 244.535L96.5259 245.584" stroke="black" stroke-width="2" stroke-miterlimit="10"/>
<path d="M65.1984 260.881L61.823 267.846C61.5872 268.332 61.1739 268.708 60.6685 268.898C60.163 269.088 59.6041 269.076 59.1069 268.866V268.866C58.8326 268.75 58.5861 268.577 58.3836 268.358C58.1811 268.14 58.0272 267.881 57.9322 267.599C57.8372 267.317 57.8032 267.018 57.8325 266.721C57.8617 266.425 57.9536 266.138 58.1019 265.88L58.7582 264.734C58.7789 264.675 58.8034 264.617 58.8315 264.561L59.2856 263.644L63.1474 255.862C63.615 254.908 64.3143 254.086 65.1814 253.472C66.0484 252.858 67.0556 252.471 68.1108 252.346H68.1987" stroke="black" stroke-width="2" stroke-miterlimit="10"/>
<path d="M72.664 260.336L67.683 261.778C67.402 261.86 67.1076 261.885 66.8167 261.853C66.5258 261.82 66.2441 261.731 65.9878 261.59C65.7314 261.449 65.5054 261.258 65.3227 261.03C65.14 260.801 65.0042 260.538 64.923 260.257V260.257C64.8414 259.976 64.816 259.682 64.8483 259.391C64.8806 259.1 64.9699 258.818 65.1111 258.562C65.2524 258.306 65.4428 258.08 65.6714 257.897C65.9 257.714 66.1625 257.578 66.4436 257.497L73.5108 255.446" stroke="black" stroke-width="2" stroke-miterlimit="10"/>
<path d="M68.8228 261.441C69.0102 262.197 68.8935 262.997 68.4976 263.668C67.5658 265.194 65.2072 265.719 63.3642 265.408" stroke="black" stroke-width="2" stroke-miterlimit="10"/>
<path d="M59.2798 263.644C57.3518 262.329 56.9592 259.9 57.554 257.764C59.9742 248.924 70.0739 251.025 76.7748 252.578C80.7685 253.527 84.686 254.771 88.4948 256.302C91.6475 257.562 94.7328 259.252 98.1286 259.718" stroke="black" stroke-width="2" stroke-miterlimit="10"/>
<path d="M68.5005 263.671C68.5005 263.671 69.1949 263.917 70.3816 264.383C75.5151 266.4 80.3993 269.001 84.9378 272.135C87.1675 273.671 90.0419 274.711 93.2766 275.405" stroke="black" stroke-width="2" stroke-miterlimit="10"/>
<path d="M98.952 268.781C97.8988 268.601 96.816 268.779 95.8754 269.285C94.9347 269.792 94.1902 270.598 93.76 271.576C91.9053 275.385 94.4955 279.894 98.6854 280.539C102.175 281.106 105.699 281.437 109.233 281.532" stroke="black" stroke-width="2" stroke-miterlimit="10"/>
<path d="M97.4401 249.671L97.276 249.636C97.276 249.636 97.3287 249.601 97.4401 249.536C97.4313 249.58 97.4401 249.636 97.4401 249.671Z" fill="#2E2E2E"/>
<path d="M84.508 277.048L43.0031 269.161C41.9539 268.961 40.9417 269.65 40.7423 270.699L40.5651 271.632C40.3657 272.681 41.0546 273.694 42.1038 273.893L83.6087 281.78C84.6579 281.98 85.6701 281.291 85.8695 280.242L86.0468 279.309C86.2462 278.26 85.5572 277.248 84.508 277.048Z" stroke="black" stroke-width="2" stroke-miterlimit="10"/>
<path d="M47.1818 274.86V281.532" stroke="black" stroke-width="2" stroke-miterlimit="10"/>
<path d="M16.2703 281.532H265.267" stroke="black" stroke-width="2" stroke-miterlimit="10"/>
</svg>
