<svg width="19" height="26" viewBox="0 0 19 26" fill="none" xmlns="http://www.w3.org/2000/svg">
<mask id="path-1-inside-1_2273_2985" fill="white">
<path d="M15.5269 0H2.95316C1.33958 0 0 1.30913 0 2.92272V23.0773C0 24.6909 1.30913 26 2.95316 26H15.5269C17.1405 26 18.4801 24.6909 18.4801 23.0773V2.92272C18.4801 1.30913 17.171 0 15.5269 0ZM17.5667 23.0773C17.5667 24.2037 16.6534 25.0867 15.5269 25.0867H2.95316C1.8267 25.0867 0.913349 24.1733 0.913349 23.0773V2.92272C0.913349 1.79625 1.8267 0.913349 2.95316 0.913349H15.5269C16.6534 0.913349 17.5667 1.8267 17.5667 2.92272V23.0773Z"/>
</mask>
<path d="M15.5269 0H2.95316C1.33958 0 0 1.30913 0 2.92272V23.0773C0 24.6909 1.30913 26 2.95316 26H15.5269C17.1405 26 18.4801 24.6909 18.4801 23.0773V2.92272C18.4801 1.30913 17.171 0 15.5269 0ZM17.5667 23.0773C17.5667 24.2037 16.6534 25.0867 15.5269 25.0867H2.95316C1.8267 25.0867 0.913349 24.1733 0.913349 23.0773V2.92272C0.913349 1.79625 1.8267 0.913349 2.95316 0.913349H15.5269C16.6534 0.913349 17.5667 1.8267 17.5667 2.92272V23.0773Z" fill="#EEEEEE"/>
<path d="M15.5269 -1H2.95316V1H15.5269V-1ZM2.95316 -1C0.80081 -1 -1 0.743428 -1 2.92272H1C1 1.87484 1.87835 1 2.95316 1V-1ZM-1 2.92272V23.0773H1V2.92272H-1ZM-1 23.0773C-1 25.2499 0.76362 27 2.95316 27V25C1.85465 25 1 24.1318 1 23.0773H-1ZM2.95316 27H15.5269V25H2.95316V27ZM15.5269 27C17.6793 27 19.4801 25.2566 19.4801 23.0773H17.4801C17.4801 24.1252 16.6017 25 15.5269 25V27ZM19.4801 23.0773V2.92272H17.4801V23.0773H19.4801ZM19.4801 2.92272C19.4801 0.750103 17.7165 -1 15.5269 -1V1C16.6254 1 17.4801 1.86816 17.4801 2.92272H19.4801ZM16.5667 23.0773C16.5667 23.6319 16.1209 24.0867 15.5269 24.0867V26.0867C17.1859 26.0867 18.5667 24.7756 18.5667 23.0773H16.5667ZM15.5269 24.0867H2.95316V26.0867H15.5269V24.0867ZM2.95316 24.0867C2.36919 24.0867 1.91335 23.6113 1.91335 23.0773H-0.0866511C-0.0866511 24.7353 1.28421 26.0867 2.95316 26.0867V24.0867ZM1.91335 23.0773V2.92272H-0.0866511V23.0773H1.91335ZM1.91335 2.92272C1.91335 2.36808 2.35924 1.91335 2.95316 1.91335V-0.0866511C1.29416 -0.0866511 -0.0866511 1.22443 -0.0866511 2.92272H1.91335ZM2.95316 1.91335H15.5269V-0.0866511H2.95316V1.91335ZM15.5269 1.91335C16.1109 1.91335 16.5667 2.38873 16.5667 2.92272H18.5667C18.5667 1.26467 17.1959 -0.0866511 15.5269 -0.0866511V1.91335ZM16.5667 2.92272V23.0773H18.5667V2.92272H16.5667Z" fill="#EEEEEE" mask="url(#path-1-inside-1_2273_2985)"/>
<mask id="path-3-inside-2_2273_2985" fill="white">
<path d="M12.9696 1.89233H5.44966C5.2061 1.89233 4.99298 2.10545 4.99298 2.34901C4.99298 2.59257 5.2061 2.80568 5.44966 2.80568H12.9696C13.2131 2.80568 13.4262 2.59257 13.4262 2.34901C13.4262 2.10545 13.2131 1.89233 12.9696 1.89233Z"/>
</mask>
<path d="M12.9696 1.89233H5.44966C5.2061 1.89233 4.99298 2.10545 4.99298 2.34901C4.99298 2.59257 5.2061 2.80568 5.44966 2.80568H12.9696C13.2131 2.80568 13.4262 2.59257 13.4262 2.34901C13.4262 2.10545 13.2131 1.89233 12.9696 1.89233Z" fill="#EEEEEE"/>
<path d="M12.9696 0.892334H5.44966V2.89233H12.9696V0.892334ZM5.44966 0.892334C4.65381 0.892334 3.99298 1.55316 3.99298 2.34901H5.99298C5.99298 2.52148 5.91933 2.65421 5.83709 2.73644C5.75485 2.81868 5.62212 2.89233 5.44966 2.89233V0.892334ZM3.99298 2.34901C3.99298 3.14485 4.65381 3.80568 5.44966 3.80568V1.80568C5.62212 1.80568 5.75485 1.87934 5.83709 1.96157C5.91933 2.04381 5.99298 2.17654 5.99298 2.34901H3.99298ZM5.44966 3.80568H12.9696V1.80568H5.44966V3.80568ZM12.9696 3.80568C13.7654 3.80568 14.4262 3.14485 14.4262 2.34901H12.4262C12.4262 2.17654 12.4999 2.04381 12.5821 1.96157C12.6644 1.87934 12.7971 1.80568 12.9696 1.80568V3.80568ZM14.4262 2.34901C14.4262 1.55316 13.7654 0.892334 12.9696 0.892334V2.89233C12.7971 2.89233 12.6644 2.81868 12.5821 2.73644C12.4999 2.65421 12.4262 2.52148 12.4262 2.34901H14.4262Z" fill="#EEEEEE" mask="url(#path-3-inside-2_2273_2985)"/>
<mask id="path-5-inside-3_2273_2985" fill="white">
<path d="M9.22488 19.3372C8.37243 19.3372 7.70264 20.0374 7.70264 20.8594C7.70264 21.2552 7.85486 21.651 8.15931 21.925C8.43332 22.199 8.8291 22.3512 9.22488 22.3512C10.0773 22.3512 10.7471 21.651 10.7471 20.829C10.7471 20.0069 10.0773 19.3372 9.22488 19.3372ZM9.25533 21.4683C9.10311 21.4683 8.95088 21.4074 8.8291 21.2856C8.70732 21.1639 8.64643 21.0116 8.64643 20.8594C8.64643 20.5245 8.92044 20.2505 9.25533 20.2505C9.59023 20.2505 9.86423 20.5245 9.86423 20.8594C9.86423 21.1943 9.59023 21.4683 9.25533 21.4683Z"/>
</mask>
<path d="M9.22488 19.3372C8.37243 19.3372 7.70264 20.0374 7.70264 20.8594C7.70264 21.2552 7.85486 21.651 8.15931 21.925C8.43332 22.199 8.8291 22.3512 9.22488 22.3512C10.0773 22.3512 10.7471 21.651 10.7471 20.829C10.7471 20.0069 10.0773 19.3372 9.22488 19.3372ZM9.25533 21.4683C9.10311 21.4683 8.95088 21.4074 8.8291 21.2856C8.70732 21.1639 8.64643 21.0116 8.64643 20.8594C8.64643 20.5245 8.92044 20.2505 9.25533 20.2505C9.59023 20.2505 9.86423 20.5245 9.86423 20.8594C9.86423 21.1943 9.59023 21.4683 9.25533 21.4683Z" fill="#EEEEEE"/>
<path d="M8.15931 21.925L8.86642 21.2179L8.84782 21.1993L8.82828 21.1817L8.15931 21.925ZM9.22488 18.3372C7.80718 18.3372 6.70264 19.4982 6.70264 20.8594H8.70264C8.70264 20.5766 8.93767 20.3372 9.22488 20.3372V18.3372ZM6.70264 20.8594C6.70264 21.5024 6.94964 22.1816 7.49035 22.6683L8.82828 21.1817C8.76008 21.1203 8.70264 21.008 8.70264 20.8594H6.70264ZM7.4522 22.6321C7.92955 23.1094 8.5871 23.3512 9.22488 23.3512V21.3512C9.0711 21.3512 8.93708 21.2885 8.86642 21.2179L7.4522 22.6321ZM9.22488 23.3512C10.6426 23.3512 11.7471 22.1902 11.7471 20.829H9.74713C9.74713 21.1117 9.5121 21.3512 9.22488 21.3512V23.3512ZM11.7471 20.829C11.7471 19.4415 10.6164 18.3372 9.22488 18.3372V20.3372C9.53829 20.3372 9.74713 20.5724 9.74713 20.829H11.7471ZM9.25533 20.4683C9.37666 20.4683 9.47643 20.5188 9.53621 20.5785L8.12199 21.9927C8.42533 22.2961 8.82955 22.4683 9.25533 22.4683V20.4683ZM9.53621 20.5785C9.59598 20.6383 9.64643 20.7381 9.64643 20.8594H7.64643C7.64643 21.2852 7.81866 21.6894 8.12199 21.9927L9.53621 20.5785ZM9.64643 20.8594C9.64643 21.0768 9.47272 21.2505 9.25533 21.2505V19.2505C8.36815 19.2505 7.64643 19.9722 7.64643 20.8594H9.64643ZM9.25533 21.2505C9.03794 21.2505 8.86423 21.0768 8.86423 20.8594H10.8642C10.8642 19.9722 10.1425 19.2505 9.25533 19.2505V21.2505ZM8.86423 20.8594C8.86423 20.642 9.03794 20.4683 9.25533 20.4683V22.4683C10.1425 22.4683 10.8642 21.7466 10.8642 20.8594H8.86423Z" fill="#EEEEEE" mask="url(#path-5-inside-3_2273_2985)"/>
<path d="M13.0204 8.27273V17H11.8102L7.37411 10.5994H7.29315V17H5.97638V8.27273H7.19514L11.6355 14.6818H11.7164V8.27273H13.0204Z" fill="#EEEEEE"/>
</svg>
