<svg width="299" height="216" viewBox="0 0 299 216" fill="none" xmlns="http://www.w3.org/2000/svg">
<path d="M281.845 7.63988L16.2117 17.474C6.99194 17.8162 0.0187112 26.3819 1.11326 36.0237L15.3551 161.529C16.2669 169.569 22.5622 175.744 30.2452 176.135L265.584 188.114C273.877 188.537 281.06 182.115 282.006 173.433L298.059 26.1135C299.158 16.0311 291.479 7.28419 281.845 7.63988Z" fill="#ECF1FE"/>
<path d="M12.9301 137.872H176.475" stroke="#A3BCF8" stroke-width="2" stroke-miterlimit="10" stroke-linecap="round" stroke-linejoin="round"/>
<path d="M12.9301 145.771H176.475" stroke="#A3BCF8" stroke-width="2" stroke-miterlimit="10" stroke-linecap="round" stroke-linejoin="round"/>
<path d="M41.8113 66.4208L115.607 130.298" stroke="#A3BCF8" stroke-width="2" stroke-miterlimit="10" stroke-linecap="round" stroke-linejoin="round"/>
<path d="M1.21952 31.2834L30.9381 57.0073" stroke="#A3BCF8" stroke-width="2" stroke-miterlimit="10" stroke-linecap="round" stroke-linejoin="round"/>
<path d="M40.7826 72.2774L115.607 137.045" stroke="#A3BCF8" stroke-width="2" stroke-miterlimit="10" stroke-linecap="round" stroke-linejoin="round"/>
<path d="M1.21952 38.0303L27.9138 61.1391" stroke="#A3BCF8" stroke-width="2" stroke-miterlimit="10" stroke-linecap="round" stroke-linejoin="round"/>
<path d="M92.5069 15.143V89.0554" stroke="#A3BCF8" stroke-width="2" stroke-miterlimit="10" stroke-linecap="round" stroke-linejoin="round"/>
<path d="M237.755 9.27289V36.5337" stroke="#A3BCF8" stroke-width="2" stroke-miterlimit="10" stroke-linecap="round" stroke-linejoin="round"/>
<path d="M241.166 9.14537V33.2251H285.436V7.93512" stroke="#A3BCF8" stroke-width="2" stroke-miterlimit="10" stroke-linecap="round" stroke-linejoin="round"/>
<path d="M289.249 9.27289V83.8474H291.768" stroke="#A3BCF8" stroke-width="2" stroke-miterlimit="10" stroke-linecap="round" stroke-linejoin="round"/>
<path d="M292.952 11.897V33.2251H297.285" stroke="#A3BCF8" stroke-width="2" stroke-miterlimit="10" stroke-linecap="round" stroke-linejoin="round"/>
<path d="M296.737 38.2585H292.952V71.1656" stroke="#A3BCF8" stroke-width="2" stroke-miterlimit="10" stroke-linecap="round" stroke-linejoin="round"/>
<path d="M255.514 33.2251C255.514 33.2251 252.919 32.29 252.987 28.9836C253.048 25.9927 258.696 13.9484 261.191 11.0313C261.52 10.6465 261.996 10.434 262.489 10.434H285.436" stroke="#A3BCF8" stroke-width="2" stroke-miterlimit="10" stroke-linecap="round" stroke-linejoin="round"/>
<path d="M277.103 20.5813H285.437" stroke="#A3BCF8" stroke-width="2" stroke-miterlimit="10" stroke-linecap="round" stroke-linejoin="round"/>
<path d="M266.991 10.4318H261.867L259.527 18.908C259.295 19.7446 259.892 20.5813 260.719 20.5813H272.863" stroke="#A3BCF8" stroke-width="2" stroke-miterlimit="10" stroke-linecap="round" stroke-linejoin="round"/>
<path d="M274.984 22.0242C275.741 22.0242 276.355 21.3782 276.355 20.5813C276.355 19.7844 275.741 19.1384 274.984 19.1384C274.227 19.1384 273.613 19.7844 273.613 20.5813C273.613 21.3782 274.227 22.0242 274.984 22.0242Z" stroke="#A3BCF8" stroke-width="2" stroke-miterlimit="10" stroke-linecap="round" stroke-linejoin="round"/>
<path d="M80.7794 209.856C79.959 209.474 73.9486 207.02 71.2685 204.666C69.9104 203.474 67.7553 200.743 67.6639 199.687C67.5725 198.633 76.4076 149.642 77.0239 143.024C77.6381 136.409 79.5509 111.746 78.7327 98.3839C77.9144 85.0219 73.4045 77.8052 73.4045 77.8052C72.6819 76.4585 66.0274 73.9216 61.7916 78.9662C57.5558 84.0108 56.4634 95.7822 57.9065 105.299C59.3517 114.815 63.5663 143.024 63.5663 143.024C62.0637 147.986 62.0169 157.239 61.9277 165.578C61.8363 173.92 60.3783 197.313 60.1976 198.846C60.0148 200.38 59.2179 207.474 58.8544 208.53C58.491 209.586 58.2848 212.46 59.1966 212.557C59.9809 212.639 74.8348 212.579 78.9665 212.561C79.7996 212.557 80.586 212.087 80.96 211.302C81.2618 210.669 81.2703 210.087 80.7794 209.856Z" fill="black"/>
<path d="M46.8271 76.6553C46.8271 76.6553 40.8273 84.3485 41.8368 98.8738C42.8464 113.399 48.3298 143.452 48.3298 143.452C48.3298 143.452 44.9356 158.268 44.993 172.936C45.0504 187.604 44.4361 198.749 43.8899 201.769C43.3437 204.789 40.8847 207.81 39.8603 209.176C38.8359 210.543 36.1495 213.196 36.1495 214.346C36.1495 215.496 36.9209 215.863 37.7413 215.934C38.5617 216.006 47.2373 215.95 48.3978 215.934C49.2288 215.923 50.1746 215.071 50.4466 213.633C50.7186 212.194 51.403 210.541 51.607 210.181C51.8111 209.821 52.0852 208.528 51.607 206.946C51.1288 205.364 50.895 201.291 50.9248 200.042C50.9822 197.595 55.9108 175.164 58.78 160.925C61.6492 146.686 61.6492 141.942 61.6492 141.942C61.6492 141.942 63.426 108.721 63.6981 106.419C63.9701 104.117 66.7033 103.111 67.5237 97.2161C67.7851 95.3392 67.9487 92.8225 67.9849 90.185C68.0635 84.532 67.5555 78.3174 66.1571 76.6508C64.1104 74.2102 46.8271 76.6553 46.8271 76.6553Z" fill="black"/>
<path d="M61.6514 141.946C61.6514 141.946 63.4282 108.726 63.7002 106.424C63.9722 104.122 66.7054 103.115 67.5258 97.2206C67.7872 95.3437 67.9509 92.827 67.987 90.1895" stroke="#32449E" stroke-width="2" stroke-miterlimit="10" stroke-linecap="round" stroke-linejoin="round"/>
<path d="M76.2709 143.49C76.5659 140.648 74.9605 138.132 72.6851 137.87C70.4097 137.609 68.326 139.7 68.031 142.543C67.7361 145.385 69.3415 147.901 71.6169 148.162C73.8923 148.424 75.976 146.332 76.2709 143.49Z" stroke="#32449E" stroke-width="2" stroke-miterlimit="10" stroke-linecap="round" stroke-linejoin="round"/>
<path d="M54.71 149.033C57.3241 149.033 59.4432 146.534 59.4432 143.452C59.4432 140.369 57.3241 137.87 54.71 137.87C52.096 137.87 49.9769 140.369 49.9769 143.452C49.9769 146.534 52.096 149.033 54.71 149.033Z" stroke="#32449E" stroke-width="2" stroke-miterlimit="10" stroke-linecap="round" stroke-linejoin="round"/>
<path d="M63.8617 105.742C63.8617 105.742 62.6375 103.108 60.5037 101.842" stroke="#32449E" stroke-width="2" stroke-miterlimit="10" stroke-linecap="round" stroke-linejoin="round"/>
<path d="M64.3867 104.701C64.3867 104.701 66.6863 103.932 67.9955 102.301" stroke="#32449E" stroke-width="2" stroke-miterlimit="10" stroke-linecap="round" stroke-linejoin="round"/>
<path d="M53.8876 184.486C53.6623 184.748 52.3403 186.074 49.0141 185.88C45.9813 185.703 45.1248 184.077 44.9165 183.502C44.738 192.812 44.2959 199.53 43.89 201.772C43.3437 204.792 40.8847 207.812 39.8582 209.176C38.8338 210.543 36.1495 213.196 36.1495 214.348C36.1495 215.498 36.921 215.865 37.7414 215.937C38.5617 216.008 47.2374 215.95 48.3978 215.937C49.2288 215.926 50.1746 215.073 50.4487 213.635C50.7208 212.196 51.4052 210.543 51.6092 210.183C51.8132 209.825 52.0874 208.53 51.6092 206.948C51.131 205.367 50.8972 201.291 50.9269 200.045C50.9567 198.799 52.2489 192.374 53.8876 184.486Z" fill="#DECDD1"/>
<path d="M51.4264 206.17C50.9737 207.534 50.1108 208.713 49.5136 209.418C49.1587 209.838 48.5891 209.966 48.0939 209.756C43.1907 207.684 39.8582 209.176 39.8582 209.176C38.8338 210.543 36.1495 213.196 36.1495 214.348C36.1495 215.498 36.921 215.865 37.7414 215.937C38.5617 216.008 47.2374 215.95 48.3978 215.937C49.2288 215.926 50.1746 215.073 50.4487 213.635C50.7208 212.196 51.4051 210.543 51.6092 210.183C51.8132 209.825 52.0874 208.53 51.6092 206.948C51.5433 206.731 51.4817 206.467 51.4264 206.17Z" fill="black"/>
<path d="M80.7794 209.856C79.959 209.472 73.9486 207.02 71.2685 204.664C69.9104 203.472 67.7532 200.74 67.664 199.684C67.63 199.297 68.8053 192.414 70.3355 183.542C70.021 184.121 69.207 184.956 67.1156 185.041C63.9425 185.17 61.2901 183.063 61.1944 182.987C60.7651 190.777 60.2933 198.016 60.1934 198.846C60.0128 200.38 59.2157 207.476 58.8502 208.53C58.4868 209.583 58.2806 212.46 59.1924 212.557C59.9766 212.639 74.8306 212.579 78.9623 212.561C79.7975 212.559 80.5818 212.087 80.9579 211.302C81.2597 210.666 81.2704 210.085 80.7794 209.856Z" fill="#DECDD1"/>
<path d="M80.7794 209.856C79.9994 209.49 74.5267 207.257 71.6872 205.011C70.8179 205.371 69.3451 206.156 67.817 207.758C66.6629 208.968 65.0923 209.637 63.4622 209.637H58.6164C58.4549 210.888 58.5165 212.485 59.1923 212.557C59.9766 212.639 74.8306 212.579 78.9622 212.561C79.7975 212.559 80.5817 212.087 80.9579 211.302C81.2597 210.666 81.2703 210.085 80.7794 209.856Z" fill="black"/>
<path d="M132.028 32.715C131.481 33.1468 126.33 38.1086 125.235 38.4665C124.141 38.8245 115.057 41.019 108.702 42.529C102.349 44.039 95.8587 45.9092 95.8587 45.9092C95.8587 45.9092 87.3191 41.6678 80.4883 37.5672C73.6575 33.4689 70.4737 32.9365 70.4737 32.9365C69.6129 33.9141 70.5141 42.0257 71.0603 43.8936C71.6065 45.7638 74.5437 48.4237 78.8475 50.6518C81.8804 52.2222 89.1554 54.985 93.1872 56.4771C95.0808 57.1773 97.1403 57.1795 99.034 56.4838C102.415 55.2445 107.576 53.1125 112.617 50.4571C119.631 46.766 126.37 43.4574 127.645 42.8825C128.92 42.3076 134.385 39.9519 134.385 39.9519C134.202 40.1913 134.07 41.1845 134.686 41.0324C135.273 40.887 136.935 40.2472 136.935 40.2472C136.935 40.2472 136.631 41.6163 137.573 40.9653C138.893 40.0526 140.276 38.8916 140.414 38.4598C140.552 38.0281 140.926 36.2317 140.414 35.7642C139.643 35.064 132.574 32.2833 132.028 32.715Z" fill="#3862F8"/>
<path d="M91.7547 55.6136C92.4561 54.2848 94.2647 53.3385 96.3837 53.3385C98.4027 53.3385 100.139 54.1975 100.906 55.4257" stroke="#3862F8" stroke-width="2" stroke-miterlimit="10" stroke-linecap="round" stroke-linejoin="round"/>
<path d="M132.028 32.715C131.481 33.1468 126.33 38.1064 125.235 38.4665C124.143 38.8267 115.057 41.019 108.704 42.529C107.608 42.7885 106.509 43.0592 105.44 43.3299C105.129 44.1621 104.681 45.954 105.395 48.2402C106.13 50.6026 107.544 52.0477 108.232 52.6405C109.673 51.9649 111.153 51.2357 112.621 50.4639C119.635 46.7727 126.374 43.4641 127.649 42.8892C128.925 42.3143 134.391 39.9586 134.391 39.9586C134.208 40.198 134.074 41.1913 134.691 41.0391C135.277 40.8937 136.941 40.2517 136.941 40.2517C136.941 40.2517 136.638 41.6208 137.579 40.972C138.899 40.0593 140.282 38.8983 140.418 38.4665C140.555 38.0348 140.931 36.2384 140.418 35.7709C139.645 35.0639 132.574 32.2833 132.028 32.715Z" fill="#DECDD1"/>
<path d="M146.123 30.7375H134.714C134.421 30.7375 134.185 30.9881 134.185 31.2946V37.9095C134.185 38.2183 134.423 38.4666 134.714 38.4666H146.123C146.416 38.4666 146.652 38.216 146.652 37.9095V31.2946C146.652 30.9858 146.414 30.7375 146.123 30.7375Z" fill="#F7CB71"/>
<path d="M146.652 32.7151H134.185V34.1177H146.652V32.7151Z" fill="black"/>
<path d="M145.234 35.9498H143.8C143.602 35.9498 143.441 36.1198 143.441 36.3279V37.0102C143.441 37.2182 143.602 37.3883 143.8 37.3883H145.234C145.432 37.3883 145.594 37.2182 145.594 37.0102V36.3279C145.594 36.1198 145.432 35.9498 145.234 35.9498Z" fill="#DECDD1"/>
<path d="M133.728 37.4957C133.273 37.4487 131.7 37.1847 131.7 37.1847C128.151 36.999 126.189 42.6745 126.634 42.8176C127.078 42.9608 128.682 43.1062 130.425 42.4575C132.168 41.811 133.362 39.8692 134.546 39.2943C135.73 38.7193 137.938 38.4308 137.392 37.7127C136.846 36.9946 134.185 37.5427 133.728 37.4957Z" fill="#DECDD1"/>
<path d="M131.703 37.1847C131.703 37.1847 133.273 37.4487 133.73 37.4956C134.185 37.5426 136.85 36.9923 137.396 37.7104C137.943 38.4285 135.734 38.7171 134.55 39.292C133.367 39.8669 132.17 41.8087 130.429 42.4552" stroke="black" stroke-width="0.5" stroke-miterlimit="10" stroke-linecap="round" stroke-linejoin="round"/>
<path d="M136.939 40.2517C136.939 40.2517 137.171 39.7036 137.828 39.1131C138.374 38.6209 138.614 38.4666 138.614 38.4666" stroke="black" stroke-width="0.5" stroke-miterlimit="10" stroke-linecap="round" stroke-linejoin="round"/>
<path d="M134.389 39.9587C134.389 39.9587 134.969 39.2585 136.814 38.7372" stroke="black" stroke-width="0.5" stroke-miterlimit="10" stroke-linecap="round" stroke-linejoin="round"/>
<path d="M73.362 9.21694C71.9954 7.68232 71.7233 7.1566 71.7233 7.1566C71.7233 7.1566 72.3163 3.36926 68.4907 3.22609C64.6651 3.08292 58.1446 4.71374 55.5495 5.2126C52.9545 5.71146 52.3169 6.86131 50.9035 9.11403C49.4923 11.3667 48.7633 12.785 48.9907 15.1451C49.2181 17.503 50.6294 20.4291 49.4456 23.3999C48.2617 26.3729 45.0737 28.2409 46.3936 32.3638C47.7134 36.4867 54.2276 37.0616 56.0022 36.9184C57.779 36.7752 63.9276 35.48 64.7012 33.7552C65.4748 32.0305 65.4302 25.2231 70.4396 24.6951C70.4396 24.6951 72.6585 24.7063 73.6616 22.6997C74.6627 20.6953 73.6361 16.8878 74.0463 15.3062C74.4565 13.7246 74.7286 10.7516 73.362 9.21694Z" fill="black"/>
<path d="M71.5554 33.0976C70.1421 32.648 68.4971 32.422 66.7352 32.3392C58.9883 31.9746 48.9313 34.5427 45.6944 35.4398C44.8251 35.6814 44.0749 36.2608 43.6073 37.0684C42.8082 38.4487 41.9304 40.9251 41.839 45.0882C41.703 51.343 45.9388 61.9131 46.417 66.5886C46.8952 71.2618 46.8272 76.6553 46.8272 76.6553C46.8272 76.6553 50.1746 81.3286 60.763 81.6887C71.3514 82.0489 73.4003 77.8052 73.4003 77.8052C73.4003 77.8052 72.3036 73.5056 72.2526 72.2439C72.0315 66.611 73.0347 62.9825 73.0347 62.9825C73.0347 62.9825 76.7328 56.401 77.3619 52.4839C77.9633 48.7413 76.8645 45.1419 75.6404 43.3903C75.2089 42.7706 73.9932 33.8739 71.5554 33.0976Z" fill="#3862F8"/>
<path d="M66.4397 32.328C61.3368 32.1356 55.2987 33.1758 50.8717 34.1557C50.8717 34.1557 53.3838 35.1802 55.6388 41.4373C57.8938 47.6921 60.0807 47.54 64.9988 47.2469C72.2547 46.8152 72.582 44.8734 71.0113 39.7684C69.2749 34.1266 66.4397 32.328 66.4397 32.328Z" fill="#DECDD1"/>
<path d="M70.5353 38.386C65.4685 39.7908 60.1828 40.3501 54.9332 39.6611C55.1691 40.2024 55.405 40.7908 55.6388 41.4373C57.8938 47.6921 60.0807 47.54 64.9988 47.247C72.2547 46.8152 72.582 44.8734 71.0113 39.7685C70.8604 39.2786 70.701 38.8199 70.5353 38.386Z" fill="white"/>
<path d="M66.1592 19.4918C66.1592 19.4918 60.0106 17.55 57.2774 20.2099C57.2774 20.2099 56.8673 31.4981 56.6632 33.6568C56.4592 35.8134 59.6684 39.4083 63.6322 38.9788C67.5938 38.547 66.9116 34.3056 66.1592 32.724C65.409 31.1401 66.1592 19.4918 66.1592 19.4918Z" fill="#DECDD1"/>
<path d="M65.8723 30.7353C63.0094 30.5966 60.3868 28.3573 58.9012 25.807C59.1094 30.1335 62.884 32.0372 66.4376 33.4511C66.3526 33.1737 66.2591 32.9254 66.1613 32.7218C66.0104 32.4041 65.919 31.6838 65.8723 30.7353Z" fill="black"/>
<path d="M59.1924 7.84342C53.0438 10.0715 52.0874 18.4851 53.7281 20.8228C55.3668 23.1606 57.2796 22.2255 57.2796 22.2255C57.2796 22.2255 57.6217 29.9187 64.3378 30.7822C70.4333 31.5652 71.0092 25.2455 71.0772 22.0107C71.1453 18.7759 72.4013 12.8075 71.5682 10.5055C70.7372 8.20135 65.341 5.61307 59.1924 7.84342Z" fill="#DECDD1"/>
<path d="M70.6691 6.47655C69.3026 5.4229 64.3378 4.60637 60.6503 5.80543C56.9607 7.0045 52.4529 9.92834 51.8153 17.1294C51.1777 24.3305 57.1733 25.0754 57.1733 25.0754L57.2817 22.2232L57.3263 17.6932C62.1529 20.7602 66.3887 16.0154 68.0741 13.7134C69.7595 11.4115 70.1697 11.7471 70.1697 11.7471C70.1697 11.7471 70.7053 11.6151 70.5969 13.7917C70.4609 16.5232 72.9029 17.5008 72.9029 17.5008C72.9029 17.5008 72.4013 14.2168 72.9943 12.7314C73.583 11.246 72.0357 7.53021 70.6691 6.47655Z" fill="black"/>
<path d="M55.9576 17.2503C53.8131 18.1317 55.456 21.9011 58.068 22.2859L58.9628 19.5992C58.9649 19.5992 57.8258 16.483 55.9576 17.2503Z" fill="#DECDD1"/>
<path d="M57.2795 22.2233C52.2234 22.2479 49.3542 28.0955 49.3542 28.0955C49.3542 28.0955 47.6922 34.9119 49.1268 34.5181C50.5592 34.1267 51.9513 34.6143 55.32 34.5181C58.6908 34.4219 59.6918 31.5451 58.372 28.2387C57.0521 24.9323 57.2795 22.2233 57.2795 22.2233Z" fill="black"/>
<path d="M68.3164 22.6975C69.3982 22.3887 69.1985 21.7892 68.9073 21.0935C68.7033 20.6058 68.4907 19.9146 68.4907 19.9146" stroke="#1F296F" stroke-miterlimit="10" stroke-linecap="round" stroke-linejoin="round"/>
<path d="M66.8521 25.1716C66.2379 25.288 65.1539 24.6951 64.8585 24.1873" stroke="#1F296F" stroke-miterlimit="10" stroke-linecap="round" stroke-linejoin="round"/>
<path d="M64.6162 15.6372C63.9255 15.4873 62.7141 15.55 61.7045 16.588C60.3252 18.004 63.6343 16.6148 64.4568 16.9593C65.2793 17.3016 65.4621 15.8207 64.6162 15.6372Z" fill="#1F296F"/>
<path d="M69.1815 15.4024C68.8499 15.5925 68.7564 16.7893 69.3897 16.5209C70.0231 16.2525 71.3663 16.9415 70.7648 15.8073C70.6012 15.4963 69.6639 15.125 69.1815 15.4024Z" fill="#1F296F"/>
<path d="M63.3984 18.4403C63.0265 18.7244 62.9457 19.2703 63.2135 19.6617C63.4834 20.0532 64.002 20.1382 64.3739 19.8564C64.7459 19.5745 64.8266 19.0264 64.5588 18.6349C64.2889 18.2434 63.7703 18.1562 63.3984 18.4403Z" fill="black"/>
<path d="M69.2006 17.8922C68.8711 18.201 68.8286 18.7535 69.1028 19.1226C69.3791 19.494 69.8679 19.5432 70.1974 19.2345C70.5268 18.9258 70.5693 18.3732 70.2951 18.0041C70.0209 17.6327 69.53 17.5835 69.2006 17.8922Z" fill="black"/>
<path d="M36.1686 105.927C36.0878 105.735 36.0219 105.529 35.8561 105.413C34.819 104.686 33.2399 107.681 33.5735 108.824C33.937 110.07 35.0761 111.316 34.4853 112.037C33.8923 112.755 33.5289 114.193 34.6681 113.667C35.4566 113.303 36.1771 112.73 36.5469 112.412C36.7148 112.269 36.8232 112.061 36.8487 111.835C37.0123 110.439 36.7424 108.12 36.617 107.366C36.5044 106.695 36.5426 106.804 36.1686 105.927Z" fill="#DECDD1"/>
<path d="M47.8686 128.81C47.7411 127.555 46.7358 126.604 45.5371 126.604H25.5695C24.3709 126.604 23.3656 127.555 23.2381 128.81L20.32 157.673C20.1733 159.131 21.2572 160.4 22.6515 160.4H48.453C49.8451 160.4 50.9312 159.129 50.7845 157.673L47.8686 128.81Z" fill="#E9B371"/>
<path d="M44.6572 35.9275C44.6572 35.9275 39.9729 37.2048 36.1473 47.0792C33.1442 54.8328 30.8127 60.4591 29.9519 62.5171C29.6502 63.2375 29.4397 63.9936 29.325 64.7698C28.8383 68.1143 28.0498 78.2481 30.3643 103.261C30.3643 103.261 33.1655 104.842 35.8285 102.9C35.8285 102.9 35.9645 93.8404 37.1951 86.3619C38.4257 78.8834 39.1079 69.3916 39.0399 67.3067C39.0399 67.3067 41.6583 62.0697 44.1237 57.2444C45.9111 53.7456 47.6199 50.4616 48.1937 49.5467C48.9886 48.2783 49.5327 45.9405 49.5858 43.5514C49.6772 39.5716 48.4041 35.451 44.6572 35.9275Z" fill="#3862F8"/>
<path d="M44.1237 57.2466C45.9111 53.7478 47.6199 50.4639 48.1937 49.5489C48.9886 48.2805 49.5327 45.9428 49.5858 43.5536" stroke="#DECDD1" stroke-width="2" stroke-miterlimit="10" stroke-linecap="round" stroke-linejoin="round"/>
<path d="M30.3133 61.6491C30.3133 61.6491 32.0986 62.5529 31.41 67.0203C30.8638 70.5682 28.8468 71.1902 28.8468 71.1902" stroke="#3862F8" stroke-width="2" stroke-miterlimit="10" stroke-linecap="round" stroke-linejoin="round"/>
<path d="M39.0399 67.3089C39.0399 67.3089 38.6063 66.3022 38.0601 65.9197" stroke="#DECDD1" stroke-width="2" stroke-miterlimit="10" stroke-linecap="round" stroke-linejoin="round"/>
<path d="M42.0642 128.81C41.9367 127.555 40.9314 126.604 39.7327 126.604H19.7652C18.5665 126.604 17.5612 127.555 17.4337 128.81L14.5156 157.673C14.369 159.131 15.4529 160.4 16.8471 160.4H42.6487C44.0408 160.4 45.1268 159.129 44.9802 157.673L42.0642 128.81Z" fill="#F7CB71"/>
<path d="M40.4065 154.984H35.0783C34.7127 154.984 34.4173 155.295 34.4173 155.679V156.304C34.4173 156.688 34.7127 156.999 35.0783 156.999H40.4065C40.7721 156.999 41.0675 156.688 41.0675 156.304V155.679C41.0654 155.295 40.77 154.984 40.4065 154.984Z" fill="#DECDD1"/>
<path d="M23.4633 126.604C23.4633 126.604 25.2528 112.439 31.8733 112.439C38.4937 112.439 39.7328 126.604 39.7328 126.604" stroke="#E9B371" stroke-width="2" stroke-miterlimit="10" stroke-linecap="round" stroke-linejoin="round"/>
<path d="M26.1285 126.604C26.1285 126.604 27.121 112.726 32.8743 112.439C38.6297 112.151 41.9771 120.781 43.2736 126.604" stroke="#E9B371" stroke-width="2" stroke-miterlimit="10" stroke-linecap="round" stroke-linejoin="round"/>
<path d="M33.7797 79.0042C30.5917 78.6687 28.8808 80.6843 28.8808 80.6843C29.0487 86.344 29.4801 93.7196 30.3643 103.261C30.3643 103.261 33.1633 104.842 35.8285 102.9C35.8285 102.9 35.9645 93.8404 37.1951 86.3619C37.4586 84.7557 37.6988 83.0556 37.9092 81.3576C37.9092 81.3576 36.9677 79.3398 33.7797 79.0042Z" fill="#DECDD1"/>
<path d="M30.3643 103.261C30.3643 103.261 29.8861 105.706 29.6119 106.209C29.3377 106.712 28.1327 109.972 27.9499 110.404C27.7671 110.835 28.3367 114.359 28.5641 114.981C28.7915 115.603 30.3621 116.683 30.3621 116.683C30.3621 116.683 31.7011 116.632 32.3387 116.486C32.3387 116.486 33.8243 116.347 34.2345 115.963C34.6447 115.58 34.7807 113.471 34.7807 113.471C34.7807 113.471 34.4619 112.752 33.6883 113.039C33.6883 113.039 34.2579 111.372 34.2579 110.99C34.2579 110.607 35.5565 110.354 35.5565 110.354C35.5565 110.354 36.6468 109.954 36.6914 108.565C36.736 107.176 36.0113 103.932 35.8285 102.9C35.6457 101.871 31.5013 101.008 30.3643 103.261Z" fill="#DECDD1"/>
<path d="M33.6883 113.041C33.6883 113.041 34.2579 111.374 34.2579 110.992C34.2579 110.609 35.5565 110.357 35.5565 110.357" stroke="black" stroke-width="0.5" stroke-miterlimit="10" stroke-linecap="round" stroke-linejoin="round"/>
<path d="M30.6342 116.703C30.6342 116.703 29.2527 115.62 29.0466 115.368C28.8425 115.117 28.5854 112.265 28.5174 112.014C28.4494 111.764 28.3473 111.493 28.3473 111.493" stroke="black" stroke-width="0.5" stroke-miterlimit="10" stroke-linecap="round" stroke-linejoin="round"/>
<path d="M31.6267 116.594C31.6267 116.594 30.4748 115.379 30.2708 115.05C30.1921 114.922 29.8351 111.914 29.7989 111.77C29.7649 111.627 29.5609 111.267 29.5609 111.267" stroke="black" stroke-width="0.5" stroke-miterlimit="10" stroke-linecap="round" stroke-linejoin="round"/>
<path d="M33.6883 113.041L33.5289 114.309" stroke="black" stroke-width="0.5" stroke-miterlimit="10" stroke-linecap="round" stroke-linejoin="round"/>
<path d="M32.8743 116.415C32.8743 116.415 31.8732 115.359 31.7372 115.037C31.6012 114.712 31.6012 112.213 31.5629 111.71C31.5247 111.207 31.4227 110.992 31.4227 110.992" stroke="black" stroke-width="0.5" stroke-miterlimit="10" stroke-linecap="round" stroke-linejoin="round"/>
<path d="M228.095 0.00250244H210.939C210.436 0.00250244 210.027 0.432019 210.027 0.962202V13.5255C210.027 13.926 210.489 14.1295 210.759 13.8454L212.682 11.8343H228.095C228.599 11.8343 229.007 11.4048 229.007 10.8746V0.962202C229.007 0.432019 228.599 0.00250244 228.095 0.00250244Z" fill="#F7CB71"/>
<path d="M219.734 9.1901C221.347 9.1901 222.654 7.81395 222.654 6.11638C222.654 4.41881 221.347 3.04266 219.734 3.04266C218.121 3.04266 216.814 4.41881 216.814 6.11638C216.814 7.81395 218.121 9.1901 219.734 9.1901Z" stroke="white" stroke-width="2" stroke-miterlimit="10" stroke-linecap="round" stroke-linejoin="round"/>
<path d="M219.887 5.83675C219.417 5.63094 219.218 5.4833 219.218 5.188C219.218 4.95983 219.375 4.69809 219.789 4.69809C220.136 4.69809 220.357 4.82336 220.469 4.89047L220.605 4.51465C220.448 4.41846 220.227 4.32673 219.904 4.31555V3.763H219.568V4.33792C219.071 4.42293 218.752 4.78086 218.752 5.25287C218.752 5.74726 219.092 6.00901 219.643 6.23719C220.042 6.4072 220.253 6.60183 220.253 6.91501C220.253 7.23939 219.993 7.47204 219.609 7.47204C219.307 7.47204 219.024 7.36466 218.831 7.2282L218.701 7.6085C218.89 7.75167 219.215 7.85234 219.528 7.85905V8.43398H219.868V7.84339C220.425 7.7472 220.722 7.32663 220.722 6.87698C220.724 6.37141 220.442 6.07612 219.887 5.83675Z" fill="white"/>
<path d="M179.578 35.914C179.578 35.914 177.216 37.4509 172.388 45.3768C168.864 51.1618 167.31 53.7411 167.31 53.7411C167.31 53.7411 166.836 51.7434 165.625 48.229C163.882 43.1666 162.152 38.3658 161.833 35.31C161.833 35.31 159.387 35.2004 157.017 37.2093C157.017 37.2093 159.221 64.0249 165.612 66.4208C172.003 68.8167 181.865 47.5803 181.865 47.5803C181.865 47.5803 185.197 35.3928 179.578 35.914Z" fill="#DECDD1"/>
<path d="M179.578 35.9141C179.578 35.9141 177.216 37.4509 172.388 45.3768C171.427 46.9539 170.615 48.2895 169.937 49.4035C173.746 49.4527 176.128 52.824 176.991 56.5442C179.82 51.9761 181.86 47.5803 181.86 47.5803C181.86 47.5803 185.197 35.3928 179.578 35.9141Z" fill="black"/>
<path d="M167.31 53.7411C167.31 53.7411 167.425 54.1729 167.514 54.9402" stroke="black" stroke-width="0.5" stroke-miterlimit="10" stroke-linecap="round" stroke-linejoin="round"/>
<path d="M161.833 35.31C161.846 34.8536 162.141 29.5787 162.165 28.7174C162.188 27.8561 161.719 27.1604 160.826 26.2029C159.933 25.2432 159.157 24.3999 158.871 24.3529C158.584 24.3059 156.769 24.024 156.518 24.0442C156.267 24.0621 154.046 24.1918 153.527 24.2142C153.009 24.2366 153.319 25.3081 154.212 25.5564C155.2 25.8316 156.312 25.892 156.312 25.892C156.312 25.892 155.389 26.1314 154.985 26.2275C154.582 26.3237 154.49 26.7846 154.503 27.1604C154.503 27.1604 153.746 27.3819 153.419 27.8181C153.092 28.2543 153.226 28.4825 153.226 28.4825C153.226 28.4825 152.667 29.1648 152.656 29.7397C152.648 30.3147 153.583 31.5048 153.88 31.7352C154.178 31.9678 154.392 32.1669 154.985 31.6479C154.985 31.6479 154.648 32.7821 155.304 34.1959C155.961 35.612 157.019 37.2093 157.019 37.2093L157.508 39.8289C157.508 39.8289 159.253 41.7415 162.192 39.2718C162.19 39.2718 161.821 35.7664 161.833 35.31Z" fill="#DECDD1"/>
<path d="M154.501 27.1582C154.501 27.1582 155.019 30.6346 155.292 31.1133C155.564 31.5921 156.231 31.4735 156.418 31.4511C156.605 31.4287 157.083 31.1066 157.119 30.8896" stroke="black" stroke-width="0.5" stroke-miterlimit="10" stroke-linecap="round" stroke-linejoin="round"/>
<path d="M155.2 31.498C155.2 31.498 154.839 31.5696 154.503 31.498C154.167 31.4264 153.802 30.5808 153.636 29.9522C153.47 29.3258 153.226 28.478 153.226 28.478" stroke="black" stroke-width="0.5" stroke-miterlimit="10" stroke-linecap="round" stroke-linejoin="round"/>
<path d="M160.826 30.0865C160.826 30.0865 160.452 30.1379 159.846 29.6145C159.238 29.091 158.416 28.9165 157.731 28.2745C157.047 27.6324 156.505 27.1112 156.01 27.2387C155.515 27.3662 155.523 28.4512 156.208 29.3818C156.892 30.3124 157.7 31.3594 157.861 31.7732C158.025 32.1893 157.121 33.2184 157.787 34.8738" stroke="black" stroke-width="0.5" stroke-miterlimit="10" stroke-linecap="round" stroke-linejoin="round"/>
<path d="M156.312 25.8898C156.312 25.8898 157.277 26.0128 157.625 26.0799C157.974 26.147 158.333 26.6638 158.639 26.9143C158.945 27.1649 159.374 27.1291 159.816 26.798" stroke="black" stroke-width="0.5" stroke-miterlimit="10" stroke-linecap="round" stroke-linejoin="round"/>
<path d="M156.947 27.5765C156.947 27.5765 157.119 27.2186 157.043 26.798" stroke="black" stroke-width="0.5" stroke-miterlimit="10" stroke-linecap="round" stroke-linejoin="round"/>
<path d="M211.213 48.8039C211.396 39.887 210.302 34.9029 209.026 33.7508C207.796 32.6412 192.848 29.9276 180.921 34.9767C180.054 35.3435 179.372 36.0706 179.04 36.99C178.415 38.726 177.463 41.925 177.225 45.8242C176.862 51.768 178.513 60.497 179.605 65.0987C180.698 69.7003 182.288 73.5995 181.418 79.0333C180.549 84.4671 180.558 91.2722 180.558 91.2722H212.852C212.852 91.2722 211.668 80.9169 211.122 73.3444C210.576 65.7742 211.033 57.7208 211.213 48.8039Z" fill="#3862F8"/>
<path d="M211.101 73.0067L195.565 83.3173C201.231 82.1585 206.737 82.8117 212.112 84.3642C211.766 80.9661 211.377 76.8589 211.122 73.3467C211.116 73.2348 211.109 73.1207 211.101 73.0067Z" fill="black"/>
<path d="M185.641 45.8443C183.541 45.6742 181.673 45.9069 180.895 46.0299C180.67 46.0657 180.504 46.2648 180.5 46.5042C180.494 46.9158 180.487 47.5847 180.504 48.2424C180.509 48.4549 180.689 48.616 180.891 48.5847C181.622 48.4706 183.35 48.258 185.329 48.4012C185.505 48.4146 185.66 48.2804 185.682 48.097C185.756 47.4035 185.892 45.8644 185.641 45.8443Z" fill="#F7CB71"/>
<path d="M202.914 6.69582C202.196 3.40735 198.578 1.98905 196.865 2.05617C195.15 2.12328 193.754 0.452191 190.666 0.0517572C187.577 -0.348676 185.881 1.65573 184.296 3.2597C182.708 4.86367 182.262 4.46771 180.428 6.04931C178.475 7.73381 177.786 12.0849 180.791 16.3152C181.765 17.6865 180.989 20.0622 182.717 22.7355C184.253 25.1135 184.993 24.7757 184.993 24.7757C186.389 28.0888 196.485 28.8516 198.897 28.2834C201.309 27.7152 201.69 25.7108 201.626 23.8406C201.562 21.9705 204.289 22.1472 204.99 18.9616C205.475 16.7626 205.277 14.8857 203.881 13.2817C202.485 11.6777 203.928 11.34 202.914 6.69582Z" fill="black"/>
<path d="M195.107 39.7474C198.181 37.8317 199.477 34.1499 198 31.5239C196.523 28.8979 192.833 28.3222 189.759 30.238C186.684 32.1538 185.389 35.8356 186.866 38.4615C188.343 41.0875 192.032 41.6632 195.107 39.7474Z" fill="white"/>
<path d="M188.298 26.0352V32.9857C187.971 34.4241 187.896 37.0594 190.719 37.2048C193.543 37.348 197.139 34.281 196.776 32.026C196.412 29.7711 197.392 22.8295 197.392 22.8295C193.159 19.1361 188.298 26.0352 188.298 26.0352Z" fill="#DECDD1"/>
<path d="M188.298 32.9857C188.153 33.621 188.06 34.4912 188.241 35.2742C191.724 34.1959 194.723 31.2989 195.76 27.6637C193.82 29.5026 191.171 31.5249 188.298 31.5227V32.9857Z" fill="black"/>
<path d="M182.156 15.0624C182.205 17.21 182.164 18.1518 181.603 23.6371C181.269 26.8942 183.869 32.8985 189.809 31.9276C196.357 30.8561 197.501 25.1359 197.975 22.7221C198.449 20.3083 201.692 13.3981 199.003 9.31766C196.315 5.23727 181.903 3.73174 182.156 15.0624Z" fill="#DECDD1"/>
<path d="M190.36 18.7066C189.988 18.9907 189.907 19.5366 190.175 19.928C190.445 20.3195 190.963 20.4045 191.335 20.1227C191.707 19.8386 191.788 19.2927 191.52 18.9012C191.252 18.5097 190.731 18.4225 190.36 18.7066Z" fill="black"/>
<path d="M186.109 23.8563C184.723 23.174 184.358 22.0398 184.978 21.3977C185.325 21.0398 185.573 20.5879 185.626 20.0801L185.629 20.0622" stroke="#1F296F" stroke-miterlimit="10" stroke-linecap="round" stroke-linejoin="round"/>
<path d="M190.017 25.1672C190.017 25.1672 189.584 26.6146 188.024 26.59" stroke="#1F296F" stroke-miterlimit="10" stroke-linecap="round" stroke-linejoin="round"/>
<path d="M183.954 17.7156C183.554 17.6754 183.195 18.0109 183.153 18.465C183.11 18.9191 183.401 19.3196 183.803 19.3598C184.202 19.4001 184.562 19.0646 184.604 18.6104C184.647 18.1563 184.355 17.7559 183.954 17.7156Z" fill="black"/>
<path d="M193.524 16.3733C192.221 15.2727 190.787 15.3443 189.99 15.6015C189.552 15.7425 189.023 17.503 190.321 17.1384C192.064 16.6507 195.301 17.8789 193.524 16.3733Z" fill="#1F296F"/>
<path d="M183.048 15.5747C182.117 16.6821 183.833 15.9975 184.715 16.6642C185.346 17.1429 185.384 15.7515 184.957 15.3555C184.485 14.9215 183.303 15.2727 183.048 15.5747Z" fill="#1F296F"/>
<path d="M192.489 4.26642C187.373 3.65571 180.783 3.98903 180.993 7.54147C181.204 11.0939 181.837 11.7046 181.837 11.7046C181.837 11.7046 181.599 9.11189 185.397 11.6017C190.814 15.1542 194.6 14.0357 194.6 14.0357C194.6 14.0357 194.336 16.1385 195.55 17.5299C196.763 18.9214 195.932 21.0287 196.391 21.5074C196.85 21.9862 197.08 19.5299 198.793 18.8095C200.506 18.0892 201.507 17.4785 200.716 11.982C199.926 6.48558 197.605 4.87714 192.489 4.26642Z" fill="black"/>
<path d="M200.716 17.6418C198.608 16.8655 197.394 20.3061 197.394 20.3061V23.7467C200.453 24.7466 202.825 18.4203 200.716 17.6418Z" fill="#DECDD1"/>
<path d="M215.13 44.4909C213.133 37.9945 211.097 35.3905 209.953 34.3749C209.439 33.9186 208.769 33.715 208.1 33.7866C203.171 34.3123 202.251 40.5067 203.197 44.3969C203.947 47.4841 210.863 64.3403 210.863 64.3403C206.597 67.7943 192.812 80.2547 192.812 80.2547C192.629 84.4738 196.831 83.3866 196.831 83.3866C210.293 76.6754 216.029 71.9441 218.62 68.7384C219.978 67.0583 220.465 64.7877 219.963 62.6469C219.045 58.7342 217.22 51.2871 215.13 44.4909Z" fill="#DECDD1"/>
<path d="M198.657 83.0935C198.698 82.8363 198.734 82.409 198.479 81.9929C198.151 81.4627 197.184 81.0578 197.184 81.0578V81.06C197.082 80.6462 196.842 80.1943 196.668 79.9796C196.44 79.7022 195.133 78.7961 195.133 78.7961C195.133 78.7961 194.53 77.0132 194.177 76.2705C193.824 75.5278 192.9 75.2705 192.103 75.2638C191.459 75.2571 190.39 78.8297 190.39 78.8297C190.39 78.8297 189.756 79.0154 188.991 79.1563C188.594 79.2301 187.204 79.899 186.828 80.2167C186.451 80.5343 185.62 83.2099 185.518 83.74C185.418 84.2702 186.621 84.1047 187.155 83.3418C187.684 82.5857 187.86 81.9638 187.86 81.9638L188.483 81.7535C188.524 82.4761 188.802 83.5902 190.024 84.2859C191.233 84.9727 191.76 85.9503 192.84 86.3753C192.898 86.8428 193.184 86.9077 193.395 86.8115C193.463 86.7802 193.569 86.693 193.701 86.5699C193.801 86.5789 193.907 86.5833 194.018 86.5833C194.156 86.8786 194.56 87.024 194.834 86.8473C194.876 86.8205 194.929 86.7869 194.987 86.7511C194.812 87.0643 195.01 87.5497 195.38 87.3909C195.75 87.2321 197.048 86.7824 197.376 86.4894C197.703 86.1963 199.087 84.8988 199.214 84.2814C199.333 83.6729 198.657 83.0935 198.657 83.0935Z" fill="#DECDD1"/>
<path d="M195.131 78.7984C195.131 78.7984 196.44 79.7044 196.665 79.9818C196.891 80.2592 197.231 80.9348 197.231 81.4135C197.231 81.8923 195.594 84.2747 195.373 84.6327C195.154 84.9906 193.739 86.6594 193.39 86.8182C193.116 86.9435 192.706 86.7981 192.855 85.825C192.936 85.2926 193.142 84.7915 193.429 84.3441L194.06 83.362L195.042 81.0623" stroke="black" stroke-width="0.5" stroke-miterlimit="10" stroke-linecap="round" stroke-linejoin="round"/>
<path d="M192.916 78.3912L192.1 80.2994C190.889 83.7736 190.051 83.7892 189.701 83.2591C189.35 82.7289 190.102 79.6686 190.304 79.0869C190.506 78.5031 191.456 75.2594 192.1 75.2661" stroke="black" stroke-width="0.5" stroke-miterlimit="10" stroke-linecap="round" stroke-linejoin="round"/>
<path d="M197.184 81.0601C197.184 81.0601 198.151 81.465 198.478 81.9951C198.806 82.5253 198.655 83.0824 198.629 83.2658C198.604 83.4492 197.118 85.1472 196.617 85.6237C196.115 86.1002 195.182 86.6281 194.829 86.854C194.476 87.08 193.911 86.7757 193.968 86.306" stroke="black" stroke-width="0.5" stroke-miterlimit="10" stroke-linecap="round" stroke-linejoin="round"/>
<path d="M198.657 83.0935C198.657 83.0935 199.333 83.6729 199.207 84.2904C199.082 84.9078 197.696 86.2053 197.369 86.4983C197.042 86.7914 195.745 87.241 195.373 87.3999C195.001 87.5587 194.806 87.0733 194.98 86.7601" stroke="black" stroke-width="0.5" stroke-miterlimit="10" stroke-linecap="round" stroke-linejoin="round"/>
<path d="M190.387 78.832C190.387 78.832 189.754 79.0176 188.989 79.1586C188.591 79.2324 187.201 79.9013 186.825 80.2189C186.447 80.5366 185.618 83.2121 185.516 83.7423C185.416 84.2725 186.619 84.1069 187.153 83.3441C187.682 82.588 187.858 81.9661 187.858 81.9661L188.487 81.7536" stroke="black" stroke-width="0.5" stroke-miterlimit="10" stroke-linecap="round" stroke-linejoin="round"/>
<path d="M192.729 78.8923C192.729 78.8923 192.827 79.5568 192.94 79.8543C193.052 80.1518 193.363 80.6551 193.815 80.5768" stroke="black" stroke-width="0.5" stroke-miterlimit="10" stroke-linecap="round" stroke-linejoin="round"/>
<path d="M210.865 64.338C210.865 64.338 211.624 63.6647 212.444 63.5215" stroke="black" stroke-width="0.5" stroke-miterlimit="10" stroke-linecap="round" stroke-linejoin="round"/>
<path d="M209.955 34.3727C209.441 33.9163 208.771 33.7128 208.102 33.7843C203.173 34.3078 202.253 40.5045 203.199 44.3947C203.639 46.209 206.208 52.777 208.255 57.8842C208.255 57.8842 208.153 54.5621 213.218 53.2646C216.042 52.5421 217.895 54.3026 217.895 54.3026C217.084 51.1931 216.138 47.7637 215.13 44.4887C213.135 37.9922 211.097 35.3883 209.955 34.3727Z" fill="black"/>
<path d="M145.666 209.295C145.666 211.12 147.071 212.599 148.805 212.599H270.557C271.949 212.599 272.869 211.076 272.276 209.749L268.903 202.19L284.752 94.0551H145.666V209.295Z" fill="#BCE2F0"/>
<path d="M145.666 97.3638H284.268L284.754 94.0574H145.666V97.3638Z" fill="#A3BCF8"/>
<path d="M291.73 90.1895H82.3989C81.723 90.1895 81.1768 90.7644 81.1768 91.4758V92.7711C81.1768 93.4825 81.723 94.0574 82.3989 94.0574H291.73C292.406 94.0574 292.952 93.4825 292.952 92.7711V91.4758C292.952 90.7667 292.403 90.1895 291.73 90.1895Z" fill="#BCE2F0"/>
<path d="M230.337 90.1895H82.3989C81.723 90.1895 81.1768 90.7644 81.1768 91.4758V92.7711C81.1768 93.4825 81.723 94.0574 82.3989 94.0574H230.337C231.013 94.0574 231.559 93.4825 231.559 92.7711V91.4758C231.559 90.7667 231.013 90.1895 230.337 90.1895Z" fill="white"/>
<path d="M86.8238 209.295C86.8238 211.12 88.2287 212.599 89.9629 212.599H222.771C224.505 212.599 225.91 211.12 225.91 209.295V94.0574H86.8238V209.295Z" fill="white"/>
<path d="M225.912 94.0574H86.8238V97.366H225.912V94.0574Z" fill="#BCE2F0"/>
<path d="M268.904 202.192H86.8238" stroke="#A3BCF8" stroke-width="2" stroke-miterlimit="10" stroke-linecap="round" stroke-linejoin="round"/>
<path d="M177.248 113.497H125.853C124.714 113.497 123.79 114.471 123.79 115.67V135.045C123.79 136.244 124.714 137.217 125.853 137.217H177.248C178.388 137.217 179.312 136.244 179.312 135.045V115.67C179.312 114.471 178.388 113.497 177.248 113.497Z" fill="#ECF1FE"/>
<path d="M157.217 118.645H130.697C130.098 118.645 129.611 119.157 129.611 119.788C129.611 120.419 130.098 120.931 130.697 120.931H157.219C157.819 120.931 158.305 120.419 158.305 119.788C158.305 119.157 157.816 118.645 157.217 118.645Z" fill="#BCE2F0"/>
<path d="M157.217 124.215H130.697C130.098 124.215 129.611 124.727 129.611 125.358C129.611 125.989 130.098 126.501 130.697 126.501H157.219C157.819 126.501 158.305 125.989 158.305 125.358C158.303 124.727 157.816 124.215 157.217 124.215Z" fill="#BCE2F0"/>
<path d="M216.017 182.987H208.995C207.607 182.987 206.482 184.171 206.482 185.631V193.023C206.482 194.483 207.607 195.667 208.995 195.667H216.017C217.405 195.667 218.529 194.483 218.529 193.023V185.631C218.531 184.173 217.405 182.987 216.017 182.987Z" fill="#ECF1FE"/>
<path d="M227.768 87.9211H198.799C198.204 87.9211 197.722 88.4289 197.722 89.0553C197.722 89.6817 198.204 90.1895 198.799 90.1895H227.768C228.363 90.1895 228.845 89.6817 228.845 89.0553C228.845 88.4289 228.363 87.9211 227.768 87.9211Z" fill="white"/>
<path d="M178.777 86.4179C178.587 85.4895 177.839 84.8027 176.94 84.7289L159.047 83.2524C158.454 83.2032 157.942 82.7983 157.729 82.2144L153.124 69.4967C152.773 68.5281 151.889 67.8861 150.903 67.8861H125.737C124.255 67.8861 123.135 69.2977 123.399 70.8323L126.719 90.194H178.317C178.951 90.194 179.423 89.5788 179.289 88.9278L178.777 86.4179Z" fill="#BCE2F0"/>
<path d="M144.909 67.8838H119.771C118.455 67.8838 117.463 69.1366 117.694 70.4989L121.072 90.1917H150.72L147.247 69.9419C147.043 68.7495 146.059 67.8838 144.909 67.8838Z" fill="white"/>
<path d="M120.708 88.0643L121.071 90.1895H150.72L150.356 88.0643H120.708Z" fill="#BCE2F0"/>
<path d="M143.844 90.1895L142.903 84.7042C142.733 83.7088 141.908 82.9839 140.946 82.9839H127.008C126.262 82.9839 125.698 83.6953 125.83 84.4671L126.812 90.1895" stroke="#BCE2F0" stroke-width="2" stroke-miterlimit="10" stroke-linecap="round" stroke-linejoin="round"/>
<path d="M139.972 56.6672H122.848C122.245 56.6672 121.756 57.1817 121.756 57.817V61.6513C121.756 62.2867 122.245 62.8012 122.848 62.8012H139.972C140.576 62.8012 141.064 62.2867 141.064 61.6513V57.817C141.064 57.1817 140.576 56.6672 139.972 56.6672Z" fill="#BCE2F0"/>
<path d="M130.363 62.8012H129.611V67.8815H130.363V62.8012Z" fill="white"/>
<path d="M130.978 62.8012H130.363V67.8815H130.978V62.8012Z" fill="#BCE2F0"/>
<path d="M137.832 56.6672H120.708C120.104 56.6672 119.616 57.1817 119.616 57.817V61.6513C119.616 62.2867 120.104 62.8012 120.708 62.8012H137.832C138.435 62.8012 138.924 62.2867 138.924 61.6513V57.817C138.924 57.1817 138.435 56.6672 137.832 56.6672Z" fill="white"/>
<path d="M283.957 36.9229H232.501C231.517 36.9229 230.656 37.6231 230.409 38.6275L220.482 79.0803C220.38 79.4986 220.539 79.908 220.835 80.1451L220.841 80.1496C220.862 80.1652 220.884 80.1809 220.905 80.1966L222.705 81.5209L223.657 80.3509H272.874C273.858 80.3509 274.718 79.6485 274.965 78.6463L284.425 40.0928L285.583 40.4105L286.482 38.5828L284.684 37.2697C284.51 37.0616 284.253 36.9229 283.957 36.9229Z" fill="white"/>
<path d="M285.772 38.2585H234.316C233.332 38.2585 232.471 38.9609 232.224 39.9631L222.297 80.4158C222.14 81.0601 222.601 81.6887 223.234 81.6887H274.691C275.675 81.6887 276.536 80.9885 276.782 79.9841L286.71 39.5314C286.867 38.8871 286.406 38.2585 285.772 38.2585Z" fill="#BCE2F0"/>
<path d="M244.949 81.5232H254.504L249.782 60.6783L244.949 81.5232Z" fill="#A3BCF8"/>
<path d="M257.935 60.6178C257.85 60.2398 257.531 59.9735 257.163 59.9735H250.362C250.005 59.9735 249.731 60.3069 249.782 60.6782L253.112 85.0107C253.323 86.5453 252.192 87.9211 250.717 87.9211H237.719C237.504 87.9211 237.293 87.9882 237.115 88.1157C236.235 88.7421 236.656 90.1895 237.719 90.1895H261.182C262.893 90.1895 264.156 88.5117 263.765 86.7578L257.935 60.6178Z" fill="#BCE2F0"/>
<path d="M257.935 60.6178C257.85 60.2398 257.531 59.9735 257.163 59.9735H250.362" stroke="#A3BCF8" stroke-width="2" stroke-miterlimit="10" stroke-linecap="round" stroke-linejoin="round"/>
<path d="M250.362 59.9735C250.005 59.9735 249.731 60.3069 249.782 60.6782L253.112 85.0107C253.323 86.5453 252.192 87.9211 250.717 87.9211H237.718" stroke="#A3BCF8" stroke-width="2" stroke-miterlimit="10" stroke-linecap="round" stroke-linejoin="round"/>
<path d="M263.352 163.778C256.517 163.778 250.978 164.057 250.978 164.522C250.978 164.988 256.517 165.46 263.352 165.46C270.187 165.46 275.726 164.977 275.726 164.514C275.726 164.048 270.187 163.778 263.352 163.778Z" fill="#A1B8DF"/>
<path d="M276.999 138.447C266.478 150.601 265.781 165.084 265.781 165.084C275.222 158.4 280.223 149.382 282.848 142.275C284.255 138.467 279.613 135.427 276.999 138.447Z" fill="#12AE67"/>
<path d="M253.956 146.991C257.048 157.013 261.996 164.816 261.996 164.816C263.369 156.08 262.37 149.42 260.54 144.481C258.9 140.054 252.562 142.472 253.956 146.991Z" fill="#12AE67"/>
<path d="M261.775 129.83C259.852 137.121 258.949 148.765 264.198 164.815C264.198 164.815 273.048 150.803 268.57 130.025C267.762 126.282 262.751 126.132 261.775 129.83Z" fill="#14C664"/>
<path d="M250.254 144.818C247.272 142.353 243.227 145.935 245.002 149.46C247.368 154.158 251.948 160.013 260.812 165.082C260.812 165.084 259.157 152.181 250.254 144.818Z" fill="#14C664"/>
<path d="M250.978 164.493L253.442 212.062C253.505 213.387 254.543 214.424 255.801 214.424H270.128C271.373 214.424 272.404 213.409 272.485 212.1L275.726 164.493C261.012 165.907 250.978 164.493 250.978 164.493Z" fill="white"/>
<path d="M264.198 164.816C264.198 164.816 265.044 134.539 265.05 129.819" stroke="#32449E" stroke-width="2" stroke-miterlimit="10" stroke-linecap="round" stroke-linejoin="round"/>
<path d="M265.781 165.084C265.781 165.084 275.56 148.27 279.928 140.722" stroke="#32449E" stroke-width="2" stroke-miterlimit="10" stroke-linecap="round" stroke-linejoin="round"/>
<path d="M261.996 164.815C261.996 164.815 260.1 153.096 257.046 144.543" stroke="#32449E" stroke-width="2" stroke-miterlimit="10" stroke-linecap="round" stroke-linejoin="round"/>
<path d="M260.812 165.084C260.812 165.084 252.547 151.648 248.415 147.317" stroke="#32449E" stroke-width="2" stroke-miterlimit="10" stroke-linecap="round" stroke-linejoin="round"/>
</svg>
