<svg width="334" height="225" viewBox="0 0 334 225" fill="none" xmlns="http://www.w3.org/2000/svg">
<path d="M314.345 9.90769L33.6779 21.995C23.4712 22.4335 15.8383 31.535 17.1828 41.662L34.7057 173.676C35.8331 182.173 42.9832 188.581 51.5508 188.778L296.169 194.369C305.1 194.572 312.733 187.981 313.829 179.114L332.356 29.4219C333.678 18.7478 325.093 9.44475 314.345 9.90769Z" fill="#ECF1FE"/>
<path d="M287.127 10.8735V72.1449C287.127 73.3365 288.093 74.3023 289.285 74.3023H324.636" stroke="#A3BCF8" stroke-width="2" stroke-miterlimit="10" stroke-linecap="round" stroke-linejoin="round"/>
<path d="M332.493 26.7107H291.91V10.8735" stroke="#A3BCF8" stroke-width="2" stroke-miterlimit="10" stroke-linecap="round" stroke-linejoin="round"/>
<path d="M101.665 69.8058H62.6812C59.7574 69.8058 57.3874 72.1759 57.3874 75.0997V127.099H106.959V75.0997C106.959 72.1759 104.589 69.8058 101.665 69.8058Z" stroke="#A3BCF8" stroke-width="2" stroke-miterlimit="10" stroke-linecap="round" stroke-linejoin="round"/>
<path d="M29.5824 127.099H50.5718V75.0997C50.5718 72.1759 48.2017 69.8058 45.2779 69.8058H21.9318" stroke="#A3BCF8" stroke-width="2" stroke-miterlimit="10" stroke-linecap="round" stroke-linejoin="round"/>
<path d="M29.5824 133.08H112.572C114.224 133.08 115.562 131.742 115.562 130.089C115.562 128.437 114.224 127.099 112.572 127.099H29.5824" stroke="#A3BCF8" stroke-width="2" stroke-miterlimit="10" stroke-linecap="round" stroke-linejoin="round"/>
<path d="M50.5718 133.08V152.957" stroke="#A3BCF8" stroke-width="2" stroke-miterlimit="10" stroke-linecap="round" stroke-linejoin="round"/>
<path d="M57.3896 133.08V152.957" stroke="#A3BCF8" stroke-width="2" stroke-miterlimit="10" stroke-linecap="round" stroke-linejoin="round"/>
<path d="M107.22 133.08V152.957" stroke="#A3BCF8" stroke-width="2" stroke-miterlimit="10" stroke-linecap="round" stroke-linejoin="round"/>
<path d="M1 152.957H332.493" stroke="#A3BCF8" stroke-width="2" stroke-miterlimit="10" stroke-linecap="round" stroke-linejoin="round"/>
<path d="M147.545 18.8076V152.957" stroke="#A3BCF8" stroke-width="2" stroke-miterlimit="10" stroke-linecap="round" stroke-linejoin="round"/>
<path d="M18.6359 52.0681H62.0455C63.5495 52.0681 64.7677 50.8498 64.7677 49.3458V20.6549" stroke="#A3BCF8" stroke-width="2" stroke-miterlimit="10" stroke-linecap="round" stroke-linejoin="round"/>
<path d="M17.772 47.009H59.0796C59.7175 47.009 60.2336 46.4929 60.2336 45.855V21.5542" stroke="#A3BCF8" stroke-width="2" stroke-miterlimit="10" stroke-linecap="round" stroke-linejoin="round"/>
<path d="M327.266 69.8058H292.705C292.266 69.8058 291.912 69.4514 291.912 69.0128V31.0699H330.648" stroke="#A3BCF8" stroke-width="2" stroke-miterlimit="10" stroke-linecap="round" stroke-linejoin="round"/>
<path d="M271.357 19.7911H253.477C252.952 19.7911 252.527 20.2164 252.527 20.7413V33.1808C252.527 33.5773 253.007 33.7788 253.289 33.4975L255.293 31.5062H271.357C271.882 31.5062 272.307 31.0809 272.307 30.556V20.7413C272.309 20.2164 271.882 19.7911 271.357 19.7911Z" fill="#F2A4D2"/>
<path d="M257.161 26.6842H260.634H264.322H267.795" stroke="white" stroke-width="2" stroke-miterlimit="10" stroke-linecap="round" stroke-linejoin="round"/>
<path d="M262.477 23.8423C261.36 23.8423 260.457 24.746 260.457 25.8624C260.457 26.157 260.519 26.4316 260.632 26.6841H264.32C264.432 26.4316 264.495 26.1547 264.495 25.8624C264.497 24.746 263.593 23.8423 262.477 23.8423Z" stroke="white" stroke-width="2" stroke-miterlimit="10" stroke-linecap="round" stroke-linejoin="round"/>
<path d="M134.768 0H116.889C116.364 0 115.939 0.425289 115.939 0.950245V13.3897C115.939 13.7862 116.419 13.9877 116.701 13.7064L118.705 11.7152H134.768C135.293 11.7152 135.719 11.2899 135.719 10.7649V0.950245C135.721 0.425289 135.293 0 134.768 0Z" fill="#F7CB71"/>
<path d="M119.596 5.78337H132.425L126.01 1.93591L119.596 5.78337Z" stroke="white" stroke-width="2" stroke-miterlimit="10" stroke-linecap="round" stroke-linejoin="round"/>
<path d="M121.097 5.78333V9.83899" stroke="white" stroke-width="2" stroke-miterlimit="10" stroke-linecap="round" stroke-linejoin="round"/>
<path d="M124.322 5.78333V9.83899" stroke="white" stroke-width="2" stroke-miterlimit="10" stroke-linecap="round" stroke-linejoin="round"/>
<path d="M127.548 5.78333V9.83899" stroke="white" stroke-width="2" stroke-miterlimit="10" stroke-linecap="round" stroke-linejoin="round"/>
<path d="M130.773 5.78333V9.83899" stroke="white" stroke-width="2" stroke-miterlimit="10" stroke-linecap="round" stroke-linejoin="round"/>
<path d="M120.466 9.83905H131.554" stroke="white" stroke-width="2" stroke-miterlimit="10" stroke-linecap="round" stroke-linejoin="round"/>
<path d="M126.01 4.66255C126.255 4.66255 126.453 4.46421 126.453 4.21955C126.453 3.97489 126.255 3.77655 126.01 3.77655C125.766 3.77655 125.567 3.97489 125.567 4.21955C125.567 4.46421 125.766 4.66255 126.01 4.66255Z" stroke="white" stroke-width="2" stroke-miterlimit="10" stroke-linecap="round" stroke-linejoin="round"/>
<path d="M172.069 78.2583C172.069 78.2583 175.629 82.8145 178.834 93.2095C178.834 93.2095 189.176 97.1966 190.626 96.1289C190.626 96.1289 189.37 84.6663 185.171 78.2583H172.069Z" fill="#F7CB71"/>
<path d="M170.931 80.0369C170.931 80.0369 175.274 84.5223 177.516 96.2707L190.081 96.1289C190.081 96.1289 186.735 82.9585 184.172 80.0391H170.931V80.0369Z" fill="white"/>
<path d="M190.624 96.1289H187.986C187.618 96.1289 187.288 95.9008 187.16 95.5552L184.241 87.7296C184.112 87.3841 183.782 87.1559 183.417 87.1559H174.087C173.6 87.1559 173.205 87.5502 173.205 88.0375V102.132H191.504V97.0083C191.506 96.5232 191.111 96.1289 190.624 96.1289Z" fill="#212B6C"/>
<path d="M181.359 93.2095H173.208V96.2707H181.359C181.614 96.2707 181.822 96.0625 181.822 95.8077V93.6725C181.822 93.4155 181.616 93.2095 181.359 93.2095Z" fill="white"/>
<path d="M97.7004 205.594C96.8941 205.499 93.0954 203.627 91.1971 202.631C89.2988 201.634 86.3551 199.838 85.9276 199.222C85.5001 198.604 86.9952 195.306 86.9952 195.306C86.0937 192.054 78.7266 193.23 78.7266 193.23L75.8781 203.982C75.8781 203.982 75.8781 206.046 75.8781 207.329C75.8781 208.611 78.0843 208.35 81.3138 208.729C84.5432 209.107 95.6581 209.107 96.7501 208.492C97.8421 207.871 98.5066 205.687 97.7004 205.594Z" fill="#DECDD1"/>
<path d="M78.7267 193.228L77.3201 198.54C78.7422 199.592 80.4388 199.492 82.1333 199.869C83.438 200.07 84.7404 199.68 86.045 199.357C85.9963 199.306 85.9564 199.262 85.9276 199.22C85.5001 198.602 86.9953 195.303 86.9953 195.303C86.0938 192.054 78.7267 193.228 78.7267 193.228Z" fill="#25293D"/>
<path d="M98.3671 205.594C97.7867 205.526 95.0911 203.96 92.9159 202.715C91.9015 202.134 90.7009 202.172 89.6156 202.604C89.0707 202.819 87.8879 203.384 86.2133 204.917C85.066 205.969 79.3468 205.419 75.8781 204.821V207.326C75.8781 208.607 78.0865 208.345 81.3138 208.726C84.541 209.105 96.327 209.105 97.4168 208.489C98.5088 207.871 99.1733 205.687 98.3671 205.594Z" fill="#212B6C"/>
<path d="M89.8127 212.332C89.29 212 85.447 210.086 83.5465 208.6C81.646 207.114 77.7565 203.552 77.3755 203.125C76.9967 202.697 78.1574 199.042 78.1574 199.042C78.1574 199.042 70.1147 198.141 68.8809 200.774C68.8809 200.774 68.8101 203.125 68.4535 205.472C68.1721 207.331 67.8908 210.527 67.7845 211.781C67.7469 212.219 67.9905 212.642 68.4003 212.802C68.5886 212.875 68.8256 212.933 69.118 212.948C70.8744 213.043 72.2035 213.803 72.8192 214.656C73.4372 215.511 73.7163 216.364 78.1574 216.412C82.5985 216.459 88.2932 216.366 89.8127 214.942C91.3322 213.52 90.3355 212.665 89.8127 212.332Z" fill="#DECDD1"/>
<path d="M68.881 200.777C68.881 200.777 68.8522 201.758 68.7348 203.087C70.1103 204.327 72.3231 204.487 74.1593 204.077C75.3244 203.911 76.6158 203.619 77.9381 203.672C77.6502 203.399 77.4508 203.204 77.3777 203.125C76.999 202.697 78.1596 199.042 78.1596 199.042C78.1596 199.042 70.117 198.141 68.881 200.777Z" fill="#25293D"/>
<path d="M89.9678 97.1965C89.9678 97.1965 72.4538 86.6598 61.773 92.9238C61.773 92.9238 58.0718 105.454 63.4808 119.267C67.5941 129.768 72.806 148.717 72.806 148.717C72.806 148.717 70.3052 175.218 69.3085 185.327C68.3117 195.436 68.1988 201.417 68.1988 201.417C68.1988 201.417 69.6651 202.699 73.2955 202.626C76.9259 202.555 77.7809 201.559 77.7809 201.559C77.7809 201.559 81.0436 188.86 84.0161 176.469C86.3441 166.759 89.0752 154.018 90.0365 150.361C90.5105 148.562 90.712 146.708 90.6367 144.85C90.4307 139.729 88.2224 123.845 88.1138 119.553C88.1138 119.553 90.5349 118.128 90.8184 114C91.1041 109.871 90.8184 107.733 90.8184 107.733L89.9678 97.1965Z" fill="black"/>
<path d="M98.8854 96.3415C96.3226 89.0785 78.164 92.5915 76.6711 97.48C75.1804 102.371 77.8096 113.57 80.3724 119.836C82.9351 126.102 88.1315 148.432 88.1315 148.432C84.4303 157.261 77.803 196.223 77.803 196.223C77.803 196.223 77.8938 197.76 82.1665 198.141C86.4393 198.52 87.1968 196.433 87.1968 196.433C87.1968 196.433 101.947 152.027 103.187 148.155C103.902 145.924 104.261 143.596 104.243 141.253C104.217 137.403 102.254 125.626 101.446 116.988C100.168 103.319 98.8854 96.3415 98.8854 96.3415Z" fill="black"/>
<path d="M89.3764 151.805C88.5325 152.574 87.518 153.006 86.4681 152.95C84.0227 152.822 82.3172 150.097 82.6561 146.866C82.995 143.634 85.2498 141.118 87.6952 141.246C88.6122 141.295 89.4251 141.707 90.0653 142.376" stroke="#32449E" stroke-width="2" stroke-miterlimit="10" stroke-linecap="round" stroke-linejoin="round"/>
<path d="M102.516 149.619C101.842 150.086 101.08 150.339 100.287 150.31C97.8665 150.226 96.0679 147.555 96.2673 144.345C96.4666 141.136 98.593 138.604 101.012 138.688C102.221 138.73 103.278 139.419 104.004 140.5" stroke="#32449E" stroke-width="2" stroke-miterlimit="10" stroke-linecap="round" stroke-linejoin="round"/>
<path d="M60.7763 107.999C60.7763 107.999 64.1453 106.404 65.0003 102.132" stroke="#32449E" stroke-width="2" stroke-miterlimit="10" stroke-linecap="round" stroke-linejoin="round"/>
<path d="M88.1161 119.553C88.1161 119.553 88.0695 116.184 87.6886 114.806" stroke="#32449E" stroke-width="2" stroke-miterlimit="10" stroke-linecap="round" stroke-linejoin="round"/>
<path d="M90.6389 144.85C90.433 139.729 88.2246 123.845 88.1161 119.553C88.1161 119.553 90.537 118.128 90.8206 114C91.1063 109.871 90.8206 107.733 90.8206 107.733" stroke="#32449E" stroke-width="2" stroke-miterlimit="10" stroke-linecap="round" stroke-linejoin="round"/>
<path d="M89.8149 212.332C89.3631 212.044 86.4238 210.576 84.4104 209.22C81.285 207.732 74.9921 211.265 74.208 211.014C73.579 210.815 70.1413 210.946 67.9861 209.557C67.8997 210.472 67.8288 211.282 67.7867 211.783C67.7491 212.219 67.9927 212.645 68.4025 212.804C68.5908 212.877 68.8278 212.935 69.1202 212.95C70.8767 213.046 72.2057 213.805 72.8215 214.658C73.4394 215.513 73.7185 216.368 78.1596 216.415C82.5985 216.463 88.2955 216.368 89.8149 214.944C91.3322 213.52 90.3355 212.665 89.8149 212.332Z" fill="#212B6C"/>
<path d="M77.7809 201.559C77.7809 201.559 81.0436 188.86 84.0161 176.469C86.3441 166.759 89.0752 154.018 90.0365 150.361" stroke="#32449E" stroke-width="2" stroke-miterlimit="10" stroke-linecap="round" stroke-linejoin="round"/>
<path d="M136.769 81.0846C133.322 79.7068 108.118 69.0239 108.118 69.0239C108.118 69.0239 107.076 56.3408 106.625 48.369C106.228 41.3474 102.895 40.0649 102.895 40.0649C97.3282 37.8256 93.6668 45.8882 93.5738 51.5852C93.483 57.2822 96.2385 67.8521 97.3415 74.1915C98.4446 80.533 100.031 81.5674 104.717 82.8765C109.404 84.1856 133.182 89.4241 133.182 89.4241C138.078 89.9069 140.213 82.4645 136.769 81.0846Z" fill="black"/>
<path d="M136.769 81.0846C136.29 80.8941 135.391 80.522 134.199 80.0258C133.579 80.1476 131.588 80.739 130.653 83.4303C129.446 86.9123 130.93 88.64 131.311 89.0121C132.487 89.2735 133.183 89.4263 133.183 89.4263C138.078 89.9069 140.213 82.4645 136.769 81.0846Z" fill="white"/>
<path d="M148.542 94.4344C148.526 94.4772 148.517 94.5109 148.508 94.538C148.531 94.4704 148.542 94.4344 148.542 94.4344Z" fill="#DECDD1"/>
<path d="M143.442 84.3406C142.091 84.1236 138.498 82.088 136.921 81.738C136.35 81.6118 135.787 81.8355 135.369 82.2452C134.983 82.6218 132.892 84.2919 133.685 87.3951C133.805 87.8625 134.146 88.2413 134.613 88.3609L136.111 89.6522C138.421 89.3997 139.794 90.0443 141.442 90.4607C143.141 90.8904 145.077 91.0986 145.077 91.0986L144.579 96.1289C144.512 97.3383 145.505 97.6484 145.788 97.15C146.072 96.6516 146.785 93.9471 146.785 93.9471C146.785 93.9471 146.714 95.8697 146.714 96.7956C146.714 97.7215 147.332 97.8522 147.545 97.3538C147.733 96.9174 148.357 94.9992 148.508 94.5363C148.515 94.5097 148.526 94.4765 148.541 94.4344C148.541 94.4344 148.53 94.4721 148.508 94.5363C148.335 95.141 149.966 91.9824 149.966 91.3024C149.966 90.5914 149.97 88.2147 149.824 87.8846C149.554 87.2844 145.219 84.6242 143.442 84.3406Z" fill="#DECDD1"/>
<path d="M137.976 96.5542L138.516 94.0401C139.008 91.7565 141.207 90.2591 143.513 90.6423C145.837 91.0277 147.438 93.1829 147.139 95.5175L132.44 210.046" stroke="#212B6C" stroke-width="8" stroke-miterlimit="10" stroke-linecap="round" stroke-linejoin="round"/>
<path d="M140.627 89.6544C139.905 88.5425 139.037 87.3973 139.037 87.3973L135.18 88.2523C135.322 89.5813 136.795 91.5283 139.214 92.0023C141.635 92.4763 142.793 94.2816 142.889 92.6203C142.984 90.9569 141.349 90.7664 140.627 89.6544Z" fill="#DECDD1"/>
<path d="M139.037 87.3973C139.037 87.3973 139.905 88.5425 140.627 89.6544C141.349 90.7664 142.984 90.9568 142.889 92.6181" stroke="#212B6C" stroke-width="2" stroke-miterlimit="10" stroke-linecap="round" stroke-linejoin="round"/>
<path d="M141.305 89.0874C141.305 89.0874 141.732 89.4662 143.44 89.7275" stroke="#212B6C" stroke-width="2" stroke-miterlimit="10" stroke-linecap="round" stroke-linejoin="round"/>
<path d="M147.545 92.6181C147.545 92.6181 147.762 91.6014 147.808 91.4132C147.808 91.4132 147.257 90.6911 147.177 90.0089" stroke="#212B6C" stroke-width="2" stroke-miterlimit="10" stroke-linecap="round" stroke-linejoin="round"/>
<path d="M103.734 38.922C101.918 37.3383 98.48 35.2252 92.6236 34.5429C82.8466 33.4044 77.7188 36.1577 74.0176 39.7637C70.4182 43.2701 61.7044 75.5338 60.8294 92.5029C60.7763 93.5484 61.124 94.5784 61.8129 95.3669C63.3745 97.1567 67.0137 100.271 74.7286 102.747C83.3782 105.525 92.6967 104.776 97.8554 101.226C100.23 99.5909 101.3 96.6295 100.64 93.8253C100.219 92.0356 97.6051 86.992 97.6051 84.8213C97.6051 80.5486 103.632 71.1348 104.629 60.1705C105.626 49.2063 105.265 43.8083 105.338 42.8182C105.451 41.3408 104.855 39.8988 103.734 38.922Z" fill="#3862F8"/>
<path d="M78.4631 71.1171C78.4631 71.1171 89.5049 92.3589 92.1008 92.195C94.6968 92.0289 95.8508 88.8415 95.8508 88.8415" stroke="#E9B371" stroke-width="2" stroke-miterlimit="10" stroke-linecap="round" stroke-linejoin="round"/>
<path d="M87.157 101.325C71.9687 100.924 63.8396 94.0535 60.9291 90.9503C60.8915 91.4819 60.8582 92.0002 60.8317 92.5052C60.7785 93.5507 61.1263 94.5784 61.8151 95.367C63.3767 97.1589 67.0137 100.273 74.7308 102.75C83.3804 105.525 92.6989 104.779 97.8576 101.228C100.022 99.7394 101.1 97.1478 100.777 94.5784C99.005 98.4015 95.1354 101.536 87.157 101.325Z" fill="white"/>
<path d="M149.487 48.7921C149.177 48.6193 146.694 48.5152 145.68 48.7921C144.665 49.0689 142.727 49.4123 142.175 49.8265C141.624 50.2407 139.834 51.6273 139.834 51.6273C139.46 53.8777 143.52 53.9995 144.452 53.448C145.383 52.8965 145.832 50.965 147.764 50.3913C149.695 49.8198 149.797 48.9648 149.487 48.7921Z" fill="#DECDD1"/>
<path d="M151.509 43.9656C148.544 46.1584 146.636 50.79 146.636 50.79C147.66 52.4911 153.662 52.4114 153.662 52.4114C156.506 48.183 160.365 45.3079 160.365 45.3079C157.481 43.7618 151.509 43.9656 151.509 43.9656Z" fill="#14C664"/>
<path d="M152.821 44.4241C149.923 46.5394 147.026 52.3804 147.026 52.3804C147.516 53.1822 153.649 53.2531 153.649 53.2531C157.559 47.74 162.157 45.618 162.157 45.618C159.399 44.1937 152.821 44.4241 152.821 44.4241Z" fill="#12AE67"/>
<path d="M152.765 49.1133C152.01 49.1775 151.25 49.8442 151.069 50.6017C150.887 51.3593 151.352 51.9219 152.107 51.8598C152.863 51.7956 153.623 51.1289 153.804 50.3714C153.986 49.6138 153.521 49.0512 152.765 49.1133Z" fill="#14C664"/>
<path d="M138.14 52.655C134.589 52.3782 102.507 55.6896 102.507 55.6896C96.6682 50.2473 87.3209 43.5359 84.7138 41.6908C83.7481 41.0063 82.6716 40.488 81.5242 40.1979C79.7278 39.746 77.2625 39.6884 75.1893 41.6598C71.4172 45.2481 72.5667 50.3049 74.7751 52.9275C76.4806 54.952 89.8703 63.7256 95.8796 67.6152C97.7624 68.8334 100.042 69.2742 102.243 68.8445C111.759 66.9817 135.278 61.9514 138.14 60.6534C141.489 59.1406 141.693 52.9319 138.14 52.655Z" fill="black"/>
<path d="M138.14 52.6551C137.504 52.6063 135.956 52.6706 133.84 52.8123C133.413 53.1114 132.115 54.2033 132.075 56.3829C132.028 58.8438 133.063 61.1385 134.682 61.71C136.39 61.2603 137.613 60.8971 138.14 60.6579C141.489 59.1406 141.693 52.9319 138.14 52.6551Z" fill="white"/>
<path d="M149.97 51.0004C146.244 50.8631 142.796 49.8973 141.416 50.7235C140.036 51.5497 136.933 53.2066 136.933 53.2066C136.933 53.2066 135.448 54.035 135.448 56.6221C135.448 59.2092 136.933 60.381 136.933 60.381L138.864 60.5537C138.864 60.5537 147.914 61.3821 148.397 61.072C148.88 60.7619 150.26 57.6321 150.466 57.2202C150.672 56.8059 151.95 55.9443 152.052 55.5301C152.156 55.1159 152.176 54.2432 152.176 54.2432C152.176 54.2432 155.246 53.4502 155.556 53.036C155.866 52.6218 156.004 51.4833 155.833 51.346C155.663 51.2064 153.696 51.1377 149.97 51.0004Z" fill="#DECDD1"/>
<path d="M152.178 54.2432C152.178 54.2432 150.891 54.272 150.477 54.4758C150.063 54.6795 149.879 54.9099 149.879 54.9099" stroke="#212B6C" stroke-width="0.5" stroke-miterlimit="10" stroke-linecap="round" stroke-linejoin="round"/>
<path d="M150.885 56.7462C150.885 56.7462 149.58 57.2778 149.328 57.5059" stroke="#212B6C" stroke-width="0.5" stroke-miterlimit="10" stroke-linecap="round" stroke-linejoin="round"/>
<path d="M149.6 59.0542C149.6 59.0542 149.122 59.5304 148.732 59.6921C148.342 59.8538 148.202 59.969 148.202 59.969" stroke="#212B6C" stroke-width="0.5" stroke-miterlimit="10" stroke-linecap="round" stroke-linejoin="round"/>
<path d="M95.5274 66.9374C96.3935 65.9318 97.6849 65.2075 99.1911 65.0037C101.82 64.6471 104.237 65.9982 105.041 68.118" stroke="white" stroke-width="2" stroke-miterlimit="10" stroke-linecap="round" stroke-linejoin="round"/>
<path d="M102.507 55.6918C102.507 55.6918 101.386 55.8159 100.912 56.1946" stroke="#212B6C" stroke-width="2" stroke-miterlimit="10" stroke-linecap="round" stroke-linejoin="round"/>
<path d="M108.348 12.7119C104.516 12.7783 107.453 24.4336 109.194 23.5676C110.935 22.7015 111.755 19.9084 111.041 16.6324C110.328 13.3564 108.348 12.7119 108.348 12.7119Z" fill="white"/>
<path d="M93.8839 32.7488C90.1184 32.0865 87.3829 34.0645 87.7771 37.1655C88.1714 40.2665 91.8793 43.2944 95.6448 43.9567C99.4103 44.619 101.809 42.6632 101.415 39.5622C101.023 36.4612 97.6494 33.4089 93.8839 32.7488Z" fill="#212B6C"/>
<path d="M91.6755 25.24C91.6755 25.24 90.2513 33.4045 89.8725 35.2075C89.4938 37.0105 92.3888 40.8092 95.9483 41.5667C98.7348 42.1604 99.84 39.859 99.4613 37.675C99.0825 35.491 101.455 26.6642 101.455 26.6642C101.455 26.6642 96.3271 22.8677 91.6755 25.24Z" fill="#DECDD1"/>
<path d="M98.3205 8.94196C92.2448 8.88659 88.7938 13.5115 87.9743 16.061C85.3849 24.1191 90.4418 28.5912 90.4418 28.5912C90.7275 33.7168 94.8076 39.3185 102.308 38.273C109.808 37.2298 108.479 30.8683 110.377 22.2298C112.275 13.5935 106.226 9.01506 98.3205 8.94196Z" fill="#DECDD1"/>
<path d="M107.801 29.6434C107.464 29.5105 107.074 29.5703 106.627 29.5193C102.44 29.0453 99.5078 32.3678 96.7302 30.8018C93.9526 29.2358 94.2383 24.0372 95.1642 20.8343L92.6723 22.8278C92.6723 22.8278 93.1817 26.2743 92.3865 29.5924C91.5914 32.9105 92.1451 37.0326 97.9396 38.9907C103.45 40.8535 108.463 38.8511 109.245 32.1552C109.369 31.092 108.793 30.0354 107.801 29.6434Z" fill="white"/>
<path d="M93.2415 14.4485C91.5338 13.3565 91.1927 11.744 90.794 11.4582C90.393 11.1725 86.8823 12.9777 85.932 17.534C85.1125 21.4656 85.839 25.7605 89.2302 29.2225C89.9722 29.9801 91.2569 29.6301 91.5138 28.6023C91.8239 27.3641 92.2758 25.9421 92.834 25.2931C93.9282 24.0217 94.8253 22.1478 95.0778 21.1489C95.0778 21.1489 95.9483 17.771 96.09 16.8229C96.2318 15.8727 94.9493 15.5405 93.2415 14.4485Z" fill="white"/>
<path d="M89.8371 21.9706C87.4515 22.8433 88.5413 29.8028 91.959 28.5912L92.8318 25.2909C92.8318 25.2931 92.2226 21.0979 89.8371 21.9706Z" fill="#DECDD1"/>
<path d="M102.438 24.4603C102.445 24.2321 102.363 23.9995 102.19 23.8246C101.853 23.4834 101.306 23.4812 100.967 23.8157C100.797 23.984 100.711 24.2033 100.711 24.4248" stroke="#1F296F" stroke-miterlimit="10" stroke-linecap="round" stroke-linejoin="round"/>
<path d="M106.151 29.5792C108.04 29.6102 108.463 28.3875 107.71 27.3708C107.409 26.9633 107.229 26.4782 107.256 25.9731V25.9554C107.194 25.5324 107.765 22.8323 107.765 22.8323" stroke="#1F296F" stroke-miterlimit="10" stroke-linecap="round" stroke-linejoin="round"/>
<path d="M109.48 24.7992C109.513 24.3495 109.234 23.9641 108.86 23.9398C108.485 23.9154 108.153 24.2609 108.122 24.7128" stroke="#1F296F" stroke-miterlimit="10" stroke-linecap="round" stroke-linejoin="round"/>
<path d="M102.974 20.5264C102.139 20.2806 100.644 20.223 99.2996 21.3283C97.4611 22.8367 100.824 21.5852 102.646 22.0526C104 22.4003 103.431 20.6615 102.974 20.5264Z" fill="#1F296F"/>
<path d="M108.501 21.2707C108.12 21.4036 107.756 22.6883 108.554 22.5333C109.666 22.3162 110.614 23.468 110.215 22.2985C110.084 21.9197 109.116 21.0559 108.501 21.2707Z" fill="#1F296F"/>
<path d="M95.853 33.8142C95.853 33.8142 95.7068 36.2729 97.6095 38.18" stroke="#ECF1FE" stroke-width="2" stroke-miterlimit="10" stroke-linecap="round" stroke-linejoin="round"/>
<path d="M93.8817 17.8418C93.8817 17.8418 90.0364 18.5529 88.2578 16.6324" stroke="#ECF1FE" stroke-width="2" stroke-miterlimit="10" stroke-linecap="round" stroke-linejoin="round"/>
<path d="M92.8318 19.6935C92.8318 19.6935 90.0697 20.121 88.559 19.6935" stroke="#ECF1FE" stroke-width="2" stroke-miterlimit="10" stroke-linecap="round" stroke-linejoin="round"/>
<path d="M85.6485 21.2352C85.6485 21.2352 86.9044 21.7004 88.2578 21.5852" stroke="#ECF1FE" stroke-width="2" stroke-miterlimit="10" stroke-linecap="round" stroke-linejoin="round"/>
<path d="M107.409 35.4267C107.409 35.4267 106.93 37.3006 105.353 38.7847" stroke="#ECF1FE" stroke-width="2" stroke-miterlimit="10" stroke-linecap="round" stroke-linejoin="round"/>
<path d="M98.3427 37.2475C98.3427 37.2475 98.5996 38.4059 99.6185 39.1147" stroke="#ECF1FE" stroke-width="2" stroke-miterlimit="10" stroke-linecap="round" stroke-linejoin="round"/>
<path d="M103.355 32.3324C103.355 32.3324 104.534 33.2583 106.37 32.9105" stroke="#DECDD1" stroke-miterlimit="10" stroke-linecap="round" stroke-linejoin="round"/>
<path d="M103.355 32.3324C103.355 32.3324 104.534 33.2583 106.37 32.9105" stroke="#1F296F" stroke-miterlimit="10" stroke-linecap="round" stroke-linejoin="round"/>
<path d="M281.94 53.4591C278.112 54.2587 277.583 57.7141 273.268 68.2332C268.953 78.7522 260.206 100.889 260.206 100.889C260.206 100.889 267.46 106.593 272.282 105.753C272.282 105.753 284.494 67.3715 286.777 61.1075C289.411 53.8777 285.765 52.6595 281.94 53.4591Z" fill="#BCE2F0"/>
<path d="M280.999 53.6234C277.153 54.3344 276.442 56.1419 271.886 66.5591C267.33 76.9762 258.073 98.9047 258.073 98.9047C258.073 98.9047 265.192 104.774 270.034 104.046C270.034 104.046 283.129 65.9544 285.555 59.7457C288.357 52.5802 284.844 52.9124 280.999 53.6234Z" fill="white"/>
<path d="M230.82 60.9879C230.82 60.9879 213.08 66.5343 211.844 66.913C211.844 66.913 196.086 60.4585 191.718 58.1793C189.561 57.0541 187.776 56.1592 186.52 55.5434C185.41 54.9985 184.07 55.4548 183.523 56.5645L182.345 58.9567C181.844 59.9756 182.183 61.2072 183.135 61.8252C186.159 63.7855 192.598 67.9496 196.56 70.4238C200.131 72.6565 205.288 75.3588 208.289 76.8938C209.85 77.6912 211.62 77.9748 213.352 77.7023C217.266 77.0865 224.709 75.8927 230.071 74.887C237.664 73.4628 236.125 60.093 230.82 60.9879Z" fill="black"/>
<path d="M185.7 55.5567C184.98 55.1912 183.964 54.6707 183.674 54.5157C183.443 54.3916 182.927 54.086 182.462 53.8069C181.868 53.4503 181.509 53.3838 180.506 53.2066C178.96 52.9319 177.135 52.8677 175.166 52.8677C172.849 52.8655 165.411 52.325 164.912 52.8456C164.414 53.3661 166.122 53.7759 172.102 54.8612C172.102 54.8612 167.079 57.8315 165.905 58.6489C164.731 59.4684 167.333 59.4175 168.578 58.99C168.578 58.99 167.154 59.845 166.727 60.4851C166.299 61.1252 167.723 61.8385 172.92 58.8128C172.92 58.8128 169.573 62.3723 169.325 62.9415C169.077 63.5108 170.452 63.595 173.56 60.4142C173.56 60.4142 175.793 61.7742 178.258 61.3157C181.512 60.711 181.89 60.5671 181.89 60.5671L183.06 61.1518C183.605 61.4243 184.261 61.3069 184.679 60.8661C185.379 60.1307 186.305 58.815 186.445 56.9035C186.489 56.3431 186.199 55.8092 185.7 55.5567Z" fill="#DECDD1"/>
<path d="M188.73 56.6465C188.73 56.6465 189.557 58.2524 188.372 60.5648C186.987 63.2693 185.029 63.0523 185.029 63.0523" stroke="#32449E" stroke-width="2" stroke-miterlimit="10" stroke-linecap="round" stroke-linejoin="round"/>
<path d="M172.805 54.8568C172.805 54.8568 172.805 57.7252 173.564 59.6611" stroke="#212B6C" stroke-width="0.5" stroke-miterlimit="10" stroke-linecap="round" stroke-linejoin="round"/>
<path d="M168.581 58.9878C168.581 58.9878 171.752 57.4749 172.331 57.0408" stroke="#212B6C" stroke-width="0.5" stroke-miterlimit="10" stroke-linecap="round" stroke-linejoin="round"/>
<path d="M180.79 53.9331C180.79 53.9331 178.03 54.2897 177.104 54.3252C176.178 54.3606 173.897 55.065 173.469 55.3153C173.042 55.5656 173.529 56.4715 177.048 56.3519C177.048 56.3519 177.565 56.7816 178.24 57.5657C178.916 58.3498 180.198 58.7042 180.909 58.3853" stroke="#212B6C" stroke-width="0.5" stroke-miterlimit="10" stroke-linecap="round" stroke-linejoin="round"/>
<path d="M207.228 76.1496C208.109 75.3433 209.352 74.8405 210.73 74.8405C212.63 74.8405 214.276 75.7996 215.067 77.1928" stroke="#32449E" stroke-width="0.5" stroke-miterlimit="10" stroke-linecap="round" stroke-linejoin="round"/>
<path d="M211.844 66.9131C211.844 66.9131 212.311 67.252 212.597 67.4668" stroke="#212B6C" stroke-width="0.5" stroke-miterlimit="10" stroke-linecap="round" stroke-linejoin="round"/>
<path d="M251.22 51.7203C249.986 48.7766 251.457 45.8816 251.694 43.547C251.931 41.2124 250.385 34.1155 244.909 33.8829C238.094 33.5905 237.277 33.1209 233.29 33.2627C229.303 33.4045 230.306 36.7513 230.306 36.7513C230.306 36.7513 228.729 36.6118 228.098 38.3749C227.15 41.0241 228.882 44.825 229.309 46.391C229.737 47.957 227.256 54.2831 227.743 56.4737C228.882 61.5948 233.044 62.596 233.044 62.596C238.264 63.1187 236.43 60.5848 237.237 62.2948C238.043 64.0025 244.451 65.285 246.303 65.4268C248.154 65.5685 254.941 64.9993 256.317 60.917C257.694 56.8348 252.454 54.6641 251.22 51.7203Z" fill="#212B6C"/>
<path d="M262.417 84.8235C262.251 81.532 261.872 65.11 259.498 61.8828C257.123 58.6555 252.188 58.3698 246.207 58.6555C240.227 58.9412 230.997 59.9114 230.259 61.504C230.259 61.504 228.835 63.5927 229.026 66.82C229.121 68.4458 228.47 70.0229 227.909 71.7595C227.544 72.8935 227.216 74.0941 227.161 75.4186C227.132 76.0942 227.174 76.8008 227.318 77.5473C228.173 82.0083 232.058 84.5888 233.086 86.1858C234.439 88.2922 238.369 92.4631 239.602 94.6471C240.836 96.8311 237.381 102.134 237.381 102.134H268.422C268.422 102.134 267.852 98.4325 265.859 94.5385C263.865 90.6468 262.583 88.115 262.417 84.8235Z" fill="#3862F8"/>
<path d="M265.762 94.3481C258.578 100.078 248.163 100.676 239.279 98.417C238.544 100.344 237.381 102.132 237.381 102.132H268.422C268.422 102.132 267.853 98.4303 265.859 94.5363C265.826 94.4743 265.795 94.4123 265.762 94.3481Z" fill="#212B6C"/>
<path d="M236.577 58.5713C232.782 60.2437 232.397 69.478 234.153 69.5245C235.91 69.571 238.353 66.5586 238.353 66.5586L240.322 58.5691C240.322 58.5713 240.371 56.899 236.577 58.5713Z" fill="white"/>
<path d="M242.553 57.8271C240.136 58.1283 238.566 64.6383 238.353 66.5587C238.353 66.5587 240.276 70.0451 242.364 69.9986C244.453 69.952 247.009 64.7844 247.302 61.6923C247.594 58.6001 244.969 57.5259 242.553 57.8271Z" fill="white"/>
<path d="M238.353 66.5587C238.019 66.2663 236.648 67.8788 236.306 68.5654C236.306 68.5654 236.395 69.323 237.604 69.715C238.814 70.1071 239.957 69.1413 240.045 68.8047C240.132 68.468 238.685 66.851 238.353 66.5587Z" fill="#F7CB71"/>
<path d="M237.062 68.9442C236.873 68.9265 236.696 69.0372 236.605 69.2011C235.923 70.4504 232.765 76.298 232.68 77.8042C232.585 79.492 233.772 78.6858 234.864 79.5873C235.937 80.4733 235.726 73.4318 237.576 69.7194C237.66 69.5511 237.647 69.3517 237.536 69.2011C237.445 69.0815 237.297 68.9663 237.062 68.9442Z" fill="#F7CB71"/>
<path d="M238.539 69.3119C238.417 69.4404 238.375 69.622 238.426 69.7903C238.801 71.0241 240.517 76.7455 240.734 78.7833C240.978 81.0736 242.287 78.3314 243.337 78.3668C244.387 78.4023 241.957 72.7407 239.574 69.2942C239.571 69.2942 239.069 68.7537 238.539 69.3119Z" fill="#F7CB71"/>
<path d="M245.045 49.0668C245.401 46.6458 236.851 46.8606 236.714 55.3153C236.714 55.3153 236.643 58.6799 236.428 60.031C236.216 61.3844 236.001 64.687 238.351 66.5586C238.351 66.5586 244.544 64.5873 245.328 59.176C245.33 59.176 244.69 51.4878 245.045 49.0668Z" fill="#DECDD1"/>
<path d="M236.43 60.031C236.368 60.4297 236.304 60.999 236.309 61.6524C238.913 60.6335 241.259 59.1561 242.601 56.4715C240.869 57.8182 238.8 58.9988 236.546 58.9922C236.512 59.3931 236.475 59.7541 236.43 60.031Z" fill="#212B6C"/>
<path d="M242.98 36.6384C236.572 34.4322 230.948 36.995 230.08 39.272C229.212 41.5512 230.521 47.4587 230.592 50.6638C230.663 53.8667 231.265 60.124 237.615 59.3488C244.617 58.4938 244.972 50.8764 244.972 50.8764C244.972 50.8764 246.965 51.8023 248.673 49.4876C250.385 47.1751 249.388 38.8445 242.98 36.6384Z" fill="#DECDD1"/>
<path d="M242.114 35.5397C238.269 34.3525 232.184 36.2751 230.76 37.3206C229.336 38.3639 227.98 40.0096 228.598 41.4804C229.216 42.9511 230.067 46.7321 229.925 44.0276C229.812 41.8746 231.542 40.508 231.542 40.508C231.542 40.508 231.969 40.1757 233.726 42.455C235.482 44.7342 239.897 49.4322 244.927 46.3954L244.974 50.8808L245.087 53.705C245.087 53.705 251.335 52.9696 250.671 45.8373C250.006 38.705 245.959 36.727 242.114 35.5397Z" fill="#212B6C"/>
<path d="M246.351 45.9547C244.404 45.1949 243.219 48.2804 243.219 48.2804L244.152 50.9407C246.872 50.5575 248.586 46.8274 246.351 45.9547Z" fill="#DECDD1"/>
<path d="M244.972 50.7147C244.972 50.7147 244.847 51.665 244.048 53.2465C242.912 55.4881 243.503 58.6311 247.014 58.6909C250.525 58.7508 251.975 58.4429 253.468 58.6909C254.961 58.939 253.231 54.6087 253.231 54.6087C253.231 54.6087 250.241 50.7302 244.972 50.7147Z" fill="#212B6C"/>
<path d="M233.473 51.346C232.346 51.0403 232.554 50.4467 232.858 49.7578C233.07 49.2749 233.292 48.5905 233.292 48.5905" stroke="#1F296F" stroke-miterlimit="10" stroke-linecap="round" stroke-linejoin="round"/>
<path d="M234.997 53.7958C235.638 53.911 236.767 53.324 237.075 52.8212" stroke="#1F296F" stroke-miterlimit="10" stroke-linecap="round" stroke-linejoin="round"/>
<path d="M237.328 44.3554C236.446 44.5371 236.636 46.0034 237.494 45.6645C238.351 45.3234 241.8 46.6989 240.362 45.2968C239.31 44.269 238.047 44.207 237.328 44.3554Z" fill="#1F296F"/>
<path d="M232.57 44.1229C232.067 43.8482 231.09 44.2181 230.92 44.5238C230.293 45.6468 231.693 44.9624 232.353 45.2304C233.013 45.4984 232.915 44.3111 232.57 44.1229Z" fill="#1F296F"/>
<path d="M238.597 47.1309C238.209 46.8495 237.669 46.9359 237.387 47.3236C237.106 47.7112 237.192 48.2516 237.58 48.533C237.968 48.8143 238.508 48.7279 238.789 48.3403C239.069 47.9526 238.984 47.4122 238.597 47.1309Z" fill="#1F2970"/>
<path d="M231.407 46.6989C231.119 47.0666 231.165 47.6115 231.509 47.9172C231.852 48.2228 232.364 48.1741 232.649 47.8064C232.937 47.4387 232.891 46.8938 232.548 46.5882C232.206 46.2847 231.695 46.3334 231.407 46.6989Z" fill="#1F2970"/>
<path d="M229.026 66.8178C229.121 68.4436 228.47 70.0207 227.909 71.7573C227.544 72.8913 227.216 74.0919 227.161 75.4165" stroke="#212B6C" stroke-width="2" stroke-miterlimit="10" stroke-linecap="round" stroke-linejoin="round"/>
<path d="M207.146 94.9661C205.722 94.4433 201.602 98.1047 200.691 98.9531C200.02 99.5777 201.309 101.088 201.879 101.611C202.448 102.134 204.014 101.753 205.296 101.325C205.296 101.325 206.579 101.943 209.806 102.132C213.033 102.322 213.175 101.658 215.313 101.325C215.313 101.325 216.072 98.6673 214.839 96.2707C214.834 96.2707 208.568 95.4866 207.146 94.9661Z" fill="#DECDD1"/>
<path d="M205.294 101.325C205.294 101.325 206.577 101.943 209.804 102.132C213.031 102.322 213.173 101.658 215.31 101.325" stroke="#212B6C" stroke-width="0.5" stroke-miterlimit="10" stroke-linecap="round" stroke-linejoin="round"/>
<path d="M252.638 61.0012C249.136 62.9238 248.414 68.2398 248.414 68.2398C248.414 68.2398 247.501 79.038 246.566 88.29C246.566 88.29 232.977 91.2006 228.434 92.3214C224.64 93.2583 217.463 95.1034 215.202 95.6859C214.659 95.8255 214.212 96.2131 214.008 96.7336C213.68 97.5731 213.445 99.0084 214.292 100.989C214.586 101.675 215.288 102.098 216.035 102.043C221.067 101.675 241.113 100.105 250.551 97.8212C252.901 97.2519 254.777 95.4068 255.495 92.9615C257.435 86.3519 260.884 73.2125 261.422 68.4613C262.162 61.9492 256.908 58.6555 252.638 61.0012Z" fill="black"/>
<path d="M216.932 95.2407C216.932 95.2407 216.123 96.428 216.316 98.5389C216.529 100.862 217.844 101.908 217.844 101.908" stroke="#32449E" stroke-width="2" stroke-miterlimit="10" stroke-linecap="round" stroke-linejoin="round"/>
<path d="M249.448 97.8788C249.426 96.6827 249.869 95.4179 250.779 94.3857C252.035 92.9593 253.843 92.359 255.411 92.6846" stroke="#32449E" stroke-width="0.5" stroke-miterlimit="10" stroke-linecap="round" stroke-linejoin="round"/>
<path d="M246.569 88.2901C246.569 88.2901 247.237 88.1107 247.787 88.2901" stroke="#212B6C" stroke-width="0.5" stroke-miterlimit="10" stroke-linecap="round" stroke-linejoin="round"/>
<path d="M203.199 100.289C203.199 100.289 204.242 100.43 204.623 100.667C205.002 100.904 205.294 101.325 205.294 101.325" stroke="#212B6C" stroke-width="0.5" stroke-miterlimit="10" stroke-linecap="round" stroke-linejoin="round"/>
<path d="M220.048 17.6691H176.643C175.604 17.6691 174.76 18.5108 174.76 19.5518V28.7862C174.76 29.825 175.602 30.6689 176.643 30.6689H220.048C221.087 30.6689 221.931 29.8272 221.931 28.7862V19.5518C221.931 18.513 221.087 17.6691 220.048 17.6691Z" stroke="#A3BCF8" stroke-width="2" stroke-miterlimit="10" stroke-linecap="round" stroke-linejoin="round"/>
<path d="M209.56 17.6691V14.4197" stroke="#A3BCF8" stroke-width="2" stroke-miterlimit="10" stroke-linecap="round" stroke-linejoin="round"/>
<path d="M187.82 17.6691V15.3566" stroke="#A3BCF8" stroke-width="2" stroke-miterlimit="10" stroke-linecap="round" stroke-linejoin="round"/>
<path d="M221.931 105.961V220.063C221.931 221.87 223.395 223.334 225.203 223.334H288.111C289.562 223.334 290.521 221.826 289.903 220.512L286.388 213.028L302.905 105.959H221.931V105.961Z" fill="#BCE2F0"/>
<path d="M221.931 109.235H302.4L302.905 105.961H221.931V109.235Z" fill="#A3BCF8"/>
<path d="M310.175 102.132H155.995C155.29 102.132 154.721 102.701 154.721 103.405V104.688C154.721 105.392 155.29 105.961 155.995 105.961H310.175C310.879 105.961 311.448 105.392 311.448 104.688V103.405C311.448 102.703 310.877 102.132 310.175 102.132Z" fill="#BCE2F0"/>
<path d="M246.192 102.132H155.995C155.29 102.132 154.721 102.701 154.721 103.405V104.688C154.721 105.392 155.29 105.961 155.995 105.961H246.192C246.896 105.961 247.466 105.392 247.466 104.688V103.405C247.466 102.703 246.896 102.132 246.192 102.132Z" fill="white"/>
<path d="M160.606 220.063C160.606 221.87 162.071 223.334 163.878 223.334H238.307C240.114 223.334 241.578 221.87 241.578 220.063V105.961H160.606V220.063Z" fill="white"/>
<path d="M241.58 105.961H160.606V109.237H241.58V105.961Z" fill="#BCE2F0"/>
<path d="M227.229 119.338H173.666C172.479 119.338 171.515 120.301 171.515 121.488V140.673C171.515 141.86 172.479 142.823 173.666 142.823H227.229C228.417 142.823 229.38 141.86 229.38 140.673V121.488C229.382 120.301 228.419 119.338 227.229 119.338Z" fill="#ECF1FE"/>
<path d="M177 203.769H169.681C168.235 203.769 167.063 204.941 167.063 206.387V213.706C167.063 215.152 168.235 216.324 169.681 216.324H177C178.446 216.324 179.618 215.152 179.618 213.706V206.387C179.618 204.941 178.446 203.769 177 203.769Z" fill="#ECF1FE"/>
<path d="M282.562 174.15C275.439 174.15 269.667 174.427 269.667 174.888C269.667 175.348 275.439 175.816 282.562 175.816C289.686 175.816 295.458 175.337 295.458 174.879C295.458 174.42 289.684 174.15 282.562 174.15Z" fill="#A1B8DF"/>
<path d="M296.783 149.07C285.818 161.104 285.092 175.444 285.092 175.444C294.931 168.825 300.143 159.897 302.878 152.86C304.347 149.09 299.507 146.079 296.783 149.07Z" fill="#12AE67"/>
<path d="M272.768 157.529C275.99 167.452 281.147 175.178 281.147 175.178C282.578 166.528 281.537 159.934 279.63 155.044C277.922 150.66 271.314 153.054 272.768 157.529Z" fill="#12AE67"/>
<path d="M280.919 140.538C278.914 147.756 277.973 159.285 283.444 175.178C283.444 175.178 292.667 161.303 288 140.73C287.158 137.025 281.935 136.876 280.919 140.538Z" fill="#14C664"/>
<path d="M268.909 155.38C265.801 152.939 261.586 156.485 263.436 159.976C265.901 164.628 270.674 170.424 279.913 175.444C279.913 175.444 278.188 162.668 268.909 155.38Z" fill="#14C664"/>
<path d="M269.664 174.861L272.231 221.961C272.298 223.272 273.379 224.3 274.69 224.3H289.621C290.919 224.3 291.994 223.294 292.078 221.999L295.456 174.861C280.124 176.259 269.664 174.861 269.664 174.861Z" fill="white"/>
<path d="M283.444 175.178C283.444 175.178 284.325 145.2 284.332 140.526" stroke="#32449E" stroke-width="2" stroke-miterlimit="10" stroke-linecap="round" stroke-linejoin="round"/>
<path d="M285.094 175.444C285.094 175.444 295.285 158.796 299.837 151.322" stroke="#32449E" stroke-width="2" stroke-miterlimit="10" stroke-linecap="round" stroke-linejoin="round"/>
<path d="M281.147 175.178C281.147 175.178 279.171 163.574 275.988 155.106" stroke="#32449E" stroke-width="2" stroke-miterlimit="10" stroke-linecap="round" stroke-linejoin="round"/>
<path d="M279.913 175.444C279.913 175.444 271.299 162.14 266.993 157.852" stroke="#32449E" stroke-width="2" stroke-miterlimit="10" stroke-linecap="round" stroke-linejoin="round"/>
</svg>
