<svg width="228" height="228" viewBox="0 0 228 228" fill="none" xmlns="http://www.w3.org/2000/svg">
<path d="M171.433 55.5568C170.485 52.9256 169.429 50.3128 168.273 47.7728C165.97 42.7181 165.441 37.9278 162.206 33.7007" stroke="#CCDDE2" stroke-width="2" stroke-miterlimit="10"/>
<path d="M154.707 28.8557C151.923 26.024 149.319 22.9802 144.588 20.707C134.591 15.919 121.807 15.4334 105.489 22.205" stroke="#CCDDE2" stroke-width="2" stroke-miterlimit="10"/>
<path d="M36.8859 214.429C21.0741 192.079 15.96 166.809 18.6025 140.966" stroke="#CCDDE2" stroke-width="2" stroke-miterlimit="10"/>
<path d="M180.33 104.399V104.675C180.175 109.691 184.81 130.484 197.956 137.09C211.103 143.695 220.476 172.687 190.836 184.062C161.196 195.437 162.81 214.429 162.81 214.429" stroke="#CCDDE2" stroke-width="2" stroke-miterlimit="10"/>
<path d="M105.487 43.6734V19.1086C105.482 17.421 104.81 15.8037 103.617 14.6104C102.423 13.4171 100.806 12.7448 99.1185 12.7406H17.7681C16.0805 12.7448 14.4632 13.4171 13.2698 14.6104C12.0765 15.8037 11.4042 17.421 11.4 19.1086V134.613C11.403 136.3 12.0754 137.917 13.2693 139.108C14.4633 140.3 16.0813 140.968 17.7681 140.968H99.1185C99.9076 140.973 100.69 140.822 101.421 140.525" stroke="black" stroke-width="2" stroke-linecap="round" stroke-linejoin="round"/>
<path d="M96.941 16.6326H19.9454C16.8037 16.6326 14.2568 19.1794 14.2568 22.3212V131.399C14.2568 134.54 16.8037 137.087 19.9454 137.087H96.941C100.083 137.087 102.63 134.54 102.63 131.399V22.3212C102.63 19.1794 100.083 16.6326 96.941 16.6326Z" fill="#1740FF"/>
<path d="M95.5479 25.9532H22.3052C20.7337 25.9532 19.4598 27.2272 19.4598 28.7987V45.6616C19.4598 47.2331 20.7337 48.507 22.3052 48.507H95.5479C97.1194 48.507 98.3934 47.2331 98.3934 45.6616V28.7987C98.3934 27.2272 97.1194 25.9532 95.5479 25.9532Z" fill="#3862F8"/>
<path d="M58.4432 35.4517C59.7314 35.4517 60.7757 34.4075 60.7757 33.1193C60.7757 31.8311 59.7314 30.7869 58.4432 30.7869C57.155 30.7869 56.1108 31.8311 56.1108 33.1193C56.1108 34.4075 57.155 35.4517 58.4432 35.4517Z" fill="#D7E8F0"/>
<path d="M51.9247 43.6734C51.9247 41.9446 52.6115 40.2866 53.834 39.0641C55.0564 37.8417 56.7144 37.1549 58.4433 37.1549C60.1721 37.1549 61.8301 37.8417 63.0526 39.0641C64.275 40.2866 64.9618 41.9446 64.9618 43.6734H51.9247Z" fill="#D7E8F0"/>
<path d="M58.9175 72.6727C56.4309 72.6714 53.9997 73.4076 51.9316 74.7883C49.8635 76.1689 48.2513 78.1319 47.2991 80.429C46.3469 82.7261 46.0974 85.254 46.5822 87.6929C47.067 90.1318 48.2643 92.3721 50.0226 94.1304C51.7809 95.8888 54.0212 97.086 56.4601 97.5708C58.899 98.0556 61.4269 97.8061 63.724 96.8539C66.0211 95.9017 67.9841 94.2895 69.3648 92.2214C70.7454 90.1533 71.4816 87.7222 71.4803 85.2355C71.4785 81.9042 70.1543 78.7099 67.7987 76.3543C65.4431 73.9987 62.2488 72.6745 58.9175 72.6727ZM58.9175 94.7682C58.431 94.7682 57.9645 94.575 57.6205 94.231C57.2765 93.887 57.0832 93.4204 57.0832 92.934C57.0832 92.4475 57.2765 91.9809 57.6205 91.6369C57.9645 91.2929 58.431 91.0997 58.9175 91.0997C59.404 91.0997 59.8705 91.2929 60.2145 91.6369C60.5585 91.9809 60.7517 92.4475 60.7517 92.934C60.7517 93.4204 60.5585 93.887 60.2145 94.231C59.8705 94.575 59.404 94.7682 58.9175 94.7682ZM61.2454 80.6322C60.8509 83.3545 60.5181 86.2251 59.7178 88.8721C59.5217 89.5014 58.327 89.5014 58.1218 88.8721C57.5482 86.8797 57.108 84.8514 56.8039 82.8005C56.5577 81.3094 55.6844 78.8971 56.5212 77.4425C57.2485 76.1497 59.3165 75.9901 60.5112 76.6673C61.9955 77.52 61.4164 79.287 61.2454 80.6413V80.6322Z" fill="#D7E8F0"/>
<path d="M27.3531 58.5754H88.7285" stroke="white" stroke-width="2" stroke-miterlimit="10"/>
<path d="M27.3531 64.6152H88.7285" stroke="white" stroke-width="2" stroke-miterlimit="10"/>
<path d="M27.3531 103.519H88.7285" stroke="white" stroke-width="2" stroke-miterlimit="10"/>
<path d="M41.61 109.233H74.4716" stroke="white" stroke-width="2" stroke-miterlimit="10"/>
<path d="M33.874 146.65C33.874 146.65 44.7952 103.252 78.8105 92.6524L92.6364 89.3533C92.6364 89.3533 94.8229 79.588 94.0181 78.562C93.2132 77.536 91.5602 75.4339 88.5324 75.8899C85.5046 76.3459 77.6773 76.4918 75.6732 66.9226C73.6691 57.3534 81.0745 34.6082 100.32 31.2064C119.565 27.8046 120.015 41.9361 120.015 41.9361L105.879 74.6929L108.072 101.118L108.348 140.482L33.874 146.65Z" fill="white"/>
<path d="M151.419 113.124C151.191 113.191 148.282 114.036 147.138 116.052C146.92 115.591 146.575 115.201 146.144 114.928C145.713 114.655 145.213 114.51 144.703 114.511H110.537C109.929 114.51 109.339 114.715 108.863 115.093C108.387 115.471 108.053 116 107.917 116.592L101.189 145.441C100.733 145.352 100.277 145.298 99.8025 145.252L83.9246 141.289C83.2434 141.118 82.5231 141.208 81.9042 141.539C81.2853 141.871 80.8123 142.422 80.5775 143.084C80.4717 143.381 80.4193 143.694 80.4225 144.009C80.4225 144.725 80.694 145.415 81.1823 145.939C81.6705 146.463 82.3393 146.782 83.0536 146.832L90.5617 147.315C83.3295 150.719 74.531 157.204 67.1871 163.161C60.0416 151.973 66.7471 140.788 71.7904 134.764C71.1406 128.125 67.8483 112.709 51.4209 113.129C57.0799 105.872 64.1365 99.6519 72.8803 95.4886C102.83 128.685 137.094 101.544 137.821 100.961C142.945 104.303 147.531 108.406 151.419 113.129" fill="#2E2E2E"/>
<path d="M148.307 208.356V214.092H49.3985V205.966C53.2517 206.194 57.3055 205.282 60.9923 203.62C65.6595 201.495 69.6905 198.194 73.1379 194.427C76.6833 190.528 78.6304 185.122 80.8899 180.421C84.2825 173.342 88.7764 168.298 95.9082 166.162L95.4522 168.123C95.3607 168.517 95.3593 168.928 95.4483 169.323C95.5372 169.718 95.7141 170.088 95.9659 170.406C96.2176 170.723 96.5377 170.98 96.9024 171.157C97.267 171.333 97.6668 171.426 98.0719 171.426H132.409C131.725 177.354 128.841 209.73 148.307 208.362" fill="#2E2E2E"/>
<path d="M132.425 57.4856C132.397 60.5527 131.997 63.6051 131.235 66.576C130.886 67.9844 130.139 69.2625 129.083 70.2569C128.027 71.2514 126.706 71.9199 125.279 72.1825C125.222 70.1122 124.342 68.2951 122.999 67.1665C123.122 65.4138 123.104 63.6541 122.947 61.9042C122.858 60.7483 122.719 59.6698 122.573 58.7008C122.486 58.1493 122.36 57.6045 122.197 57.0706C121.738 56.5782 121.198 56.1686 120.601 55.86C118.487 54.6698 114.137 53.4044 106.077 55.2649C104.761 55.5661 103.523 56.1401 102.443 56.9498C102.419 56.9646 102.397 56.9831 102.379 57.0045C101.652 57.6748 100.726 58.523 99.7682 58.963C98.7764 59.419 97.7413 59.4373 96.8726 58.3588C96.8498 58.336 96.8384 58.3155 96.8179 58.2927C96.3619 57.6976 95.9264 56.9247 95.1216 56.772C93.4253 56.4528 92.5999 58.14 92.3856 59.5581C92.1986 60.8691 92.584 62.0251 93.1471 63.1263C93.6187 64.0216 94.235 64.8328 94.9711 65.5271C95.16 65.7098 95.3332 65.9081 95.4887 66.12C95.4179 66.1324 95.3484 66.1515 95.2812 66.177C95.1253 66.2293 94.973 66.2917 94.8252 66.3639C92.7732 67.2873 91.3117 69.6015 91.2798 72.3102C91.2798 72.3945 87.8393 72.3443 87.4038 72.3102C85.7257 72.1551 84.0727 71.6717 82.8917 70.4063C79.5401 66.8153 79.556 61.487 80.9332 57.3191C82.2373 53.3633 83.8972 49.501 86.0723 45.9419C90.785 38.2401 98.097 32.5583 107.354 32.0476C109.574 31.936 111.799 32.066 113.991 32.4352C115.028 32.5987 116.054 32.8271 117.062 33.1192C126.499 37.2369 132.489 46.5712 132.434 57.4856" fill="#2E2E2E"/>
<path d="M126.96 145.288C125.845 148.15 123.191 149.787 121.032 148.936C118.872 148.086 118.024 145.095 119.137 142.233C120.249 139.372 122.906 137.733 125.065 138.585C127.224 139.438 128.074 142.429 126.96 145.291" fill="#3862F8"/>
<path d="M132.696 170.843C132.696 170.843 126.64 213.057 150.863 208.378C174.954 203.72 184.071 105.714 114.34 91.6195" stroke="black" stroke-width="2" stroke-miterlimit="10"/>
<path d="M75.9833 130.202C75.9833 130.202 56.4392 146.684 66.9705 163.168" stroke="black" stroke-width="2" stroke-miterlimit="10"/>
<path d="M133.136 159.117C132.801 159.137 132.322 158.914 131.996 158.825C131.583 158.715 131.173 158.598 130.767 158.474C128.386 157.733 126.146 156.598 124.139 155.118C123.683 154.791 122.871 154.582 122.315 154.796C122.006 154.91 121.732 155.104 121.524 155.36C121.315 155.615 121.179 155.922 121.13 156.248C120.959 157.425 121.788 158.576 122.694 159.331C123.768 160.229 124.882 161.057 126.184 161.595C127.441 162.1 128.737 162.498 130.06 162.787C130.66 162.927 131.269 163.015 131.864 163.168" stroke="black" stroke-width="2" stroke-miterlimit="10"/>
<path d="M140.637 147.696C140.884 148.996 141.064 150.345 140.941 151.666C140.838 152.783 140.437 154.087 139.194 154.358C138.958 154.421 138.713 154.443 138.469 154.424C133.79 154.148 129.935 152.532 125.532 149.349C121.13 146.166 119.579 153.496 123.601 154.796" stroke="black" stroke-width="2" stroke-miterlimit="10"/>
<path d="M123.77 160.216C123.662 160.127 123.559 160.031 123.462 159.931C121.271 157.639 120.874 162.243 123.175 163.597L123.471 163.772C123.626 163.838 123.793 163.916 123.957 164C124.034 164.021 124.121 164.055 124.201 164.078C126.28 164.99 128.494 165.574 130.674 166.169C128.517 165.464 126.367 164.771 124.201 164.078C124.014 164 123.836 163.923 123.649 163.834C123.592 163.81 123.532 163.792 123.471 163.779C123.432 163.762 123.39 163.754 123.347 163.758C123.305 163.762 123.264 163.777 123.229 163.802C123.177 163.845 123.139 163.902 123.12 163.966C122.767 164.814 123.054 165.884 123.505 166.643C123.98 167.445 124.794 168.063 125.596 168.503C127.755 169.714 130.266 170.43 132.689 170.859C133.139 170.952 133.599 170.982 134.057 170.948" stroke="black" stroke-width="2" stroke-miterlimit="10"/>
<path d="M153.608 176.171C153.608 176.171 146.178 163.508 145.35 152.498C144.844 145.683 142.842 144.24 141.41 144.142" stroke="black" stroke-width="2" stroke-miterlimit="10"/>
<path d="M139.194 154.356L140.64 147.696L141.41 144.139L147.124 117.769C147.209 117.376 147.204 116.969 147.111 116.579C147.019 116.188 146.839 115.823 146.587 115.51C146.335 115.197 146.016 114.945 145.653 114.772C145.291 114.599 144.894 114.509 144.493 114.508H110.325C109.717 114.508 109.127 114.713 108.651 115.091C108.175 115.47 107.842 115.998 107.705 116.59L100.977 145.441L96.0656 166.492L95.6096 168.465C95.5188 168.859 95.5182 169.269 95.6076 169.664C95.697 170.059 95.8742 170.429 96.1261 170.746C96.378 171.063 96.698 171.32 97.0625 171.496C97.427 171.673 97.8266 171.765 98.2316 171.766H132.566" stroke="black" stroke-width="2" stroke-miterlimit="10"/>
<path d="M96.8317 57.5996C96.8317 57.5996 98.6397 49.932 108.85 48.9151C119.059 47.8982 121.618 55.5271 121.618 55.5271L121.296 56.2955C121.296 56.2955 107.874 50.9101 100.461 58.596C100.461 58.596 97.7915 59.8067 96.8317 57.6042" fill="#3862F8"/>
<path d="M99.5859 145.252L83.7057 141.285C83.3269 141.191 82.9328 141.177 82.5483 141.244C82.1638 141.31 81.7974 141.456 81.4724 141.672C81.1474 141.888 80.8709 142.169 80.6604 142.498C80.4499 142.827 80.31 143.195 80.2497 143.581C80.1894 143.966 80.2099 144.36 80.31 144.737C80.4101 145.115 80.5876 145.467 80.8311 145.772C81.0746 146.077 81.3789 146.328 81.7247 146.508C82.0704 146.689 82.45 146.797 82.8393 146.823L90.3473 147.318" stroke="black" stroke-width="2" stroke-miterlimit="10"/>
<path d="M137.616 100.949C137.616 100.949 102.931 129.048 72.6659 95.4886" stroke="black" stroke-width="2" stroke-miterlimit="10"/>
<path d="M71.5784 134.759C70.9286 128.12 67.6385 112.694 51.1974 113.124" stroke="black" stroke-width="2" stroke-miterlimit="10"/>
<path d="M151.212 113.12C151.212 113.12 148.113 113.973 146.925 116.057" stroke="black" stroke-width="2" stroke-miterlimit="10"/>
<path d="M25.3354 214.434H172.603" stroke="black" stroke-width="2" stroke-miterlimit="10"/>
<path d="M122.999 67.1757C124.388 68.343 125.279 70.2491 125.279 72.406C125.279 75.9856 122.792 78.8812 119.718 78.8812C119.371 78.8793 119.024 78.8388 118.685 78.7603C122.265 76.0243 122.99 67.1757 122.99 67.1757" fill="#3FBDF1"/>
<path d="M102.751 81.624C104.476 82.4827 106.364 82.9652 108.29 83.0395C110.216 83.1138 112.136 82.7782 113.923 82.0549C123.996 77.8483 123.61 65.4497 122.564 58.71C122.48 58.1633 122.362 57.6225 122.208 57.0912V57.0798C121.052 53.2266 118.036 50.087 114.062 49.1956C106.364 47.4559 99.326 51.8198 96.4053 57.6954" stroke="black" stroke-width="2" stroke-miterlimit="10"/>
<path d="M122.304 57.2121C122.304 57.2121 122.272 57.1665 122.206 57.0912V57.0799C121.522 56.3092 117.561 52.6316 106.098 55.2741C104.782 55.5748 103.545 56.1489 102.465 56.959C102.44 56.9736 102.417 56.9921 102.397 57.0137" stroke="black" stroke-width="2" stroke-miterlimit="10"/>
<path d="M91.7472 75.8898H86.0769C81.9843 75.8898 78.7398 72.1415 77.3285 68.6234C75.3449 63.6758 76.6148 58.612 78.4001 53.8034C79.8958 49.7792 81.7973 45.869 84.2985 42.3692C89.8981 34.5374 98.3524 30.1005 108.07 30.9213C108.932 30.9943 109.79 31.1007 110.644 31.2406C123.692 33.3564 132.491 44.2662 132.425 57.4788C132.397 60.5482 131.998 63.6029 131.235 66.576C130.884 67.9834 130.136 69.2603 129.079 70.2543C128.023 71.2484 126.703 71.9177 125.277 72.1825" stroke="black" stroke-width="2" stroke-miterlimit="10"/>
<path d="M95.4933 66.1199C95.3371 65.9079 95.1641 65.7089 94.9757 65.5249C94.2392 64.8318 93.6228 64.0213 93.1517 63.1263C92.5886 62.025 92.2033 60.8691 92.3902 59.5581C92.6 58.1491 93.4253 56.4527 95.1262 56.7719C95.9311 56.927 96.3597 57.6976 96.8225 58.2927C98.5827 60.5727 101.006 58.2813 102.493 56.9042" stroke="black" stroke-width="2" stroke-miterlimit="10"/>
<path d="M122.999 67.1757C124.388 68.343 125.279 70.2491 125.279 72.406C125.279 75.9856 122.792 78.8812 119.718 78.8812C119.371 78.8793 119.024 78.8388 118.685 78.7603" fill="#3862F8"/>
<path d="M122.999 67.1757C124.388 68.343 125.279 70.2491 125.279 72.406C125.279 75.9856 122.792 78.8812 119.718 78.8812C119.371 78.8793 119.024 78.8388 118.685 78.7603" stroke="black" stroke-width="2" stroke-miterlimit="10"/>
<path d="M111.1 71.5692C112.345 72.406 115.352 73.0923 114.748 70.6116C114.023 67.6727 113.047 61.3936 119.023 60.9148C119.023 60.9148 121.654 61.0265 122.954 61.9203" stroke="black" stroke-width="2" stroke-miterlimit="10"/>
<path d="M113.35 76.4826C113.35 76.4826 110.341 78.0785 108.849 74.8979" stroke="black" stroke-width="2" stroke-miterlimit="10"/>
<path d="M107.247 65.2079C107.13 66.218 107.525 67.0912 108.129 67.1619C108.733 67.2326 109.317 66.4779 109.435 65.461C109.554 64.4441 109.155 63.58 108.553 63.5093C107.951 63.4387 107.363 64.1933 107.247 65.2079Z" fill="black"/>
<path d="M117.046 65.803C116.93 66.8108 117.324 67.6863 117.928 67.757C118.533 67.8277 119.116 67.073 119.233 66.0561C119.349 65.0392 118.954 64.1728 118.353 64.1044C117.751 64.036 117.162 64.7884 117.046 65.803Z" fill="black"/>
<path d="M111.1 61.56C111.1 61.56 109.258 58.7192 105.083 61.4141" stroke="black" stroke-width="2" stroke-miterlimit="10"/>
<path d="M114.337 81.8679V97.6273" stroke="black" stroke-width="2" stroke-miterlimit="10"/>
<path d="M52.0342 176.171C52.0342 176.171 58.5299 170.015 66.9659 163.175C74.3098 157.217 83.1174 150.722 90.3519 147.32C91.2775 146.889 92.1759 146.504 93.0491 146.18C95.1327 145.386 97.3691 145.074 99.5904 145.268C100.055 145.306 100.518 145.369 100.977 145.455" stroke="black" stroke-width="2" stroke-miterlimit="10"/>
<path d="M96.0655 166.492C88.9314 168.629 84.4375 173.672 81.0472 180.751C78.7922 185.453 76.8406 190.859 73.2952 194.758C69.8501 198.522 65.819 201.826 61.1519 203.95C52.684 207.804 42.2575 207.507 36.7559 199.128C33.0349 193.447 31.5712 186.388 30.8279 179.748C29.5511 168.209 33.5821 135.683 51.1974 113.122C56.8564 105.865 63.9153 99.6451 72.6568 95.4818C78.7923 92.5679 85.728 90.6619 93.5895 90.1215L95.7919 78.7603" stroke="black" stroke-width="2" stroke-miterlimit="10"/>
<path d="M148.464 208.739V214.434" stroke="black" stroke-width="2" stroke-miterlimit="10"/>
<path d="M49.5558 206.705V214.434" stroke="black" stroke-width="2" stroke-miterlimit="10"/>
<path d="M102.386 72.406C102.407 74.1152 101.801 75.7729 100.68 77.064C100.052 77.3545 99.3682 77.5047 98.6761 77.5041C95.605 77.5041 93.1152 74.6085 93.1152 71.0289C93.0932 69.3199 93.7011 67.6625 94.8229 66.3731C95.4507 66.0811 96.1347 65.9301 96.827 65.9308C99.8982 65.9308 102.386 68.8287 102.386 72.406Z" fill="#3862F8"/>
<path d="M96.8316 78.8812C99.899 78.8812 102.386 75.9821 102.386 72.406C102.386 68.8298 99.899 65.9308 96.8316 65.9308C93.7642 65.9308 91.2775 68.8298 91.2775 72.406C91.2775 75.9821 93.7642 78.8812 96.8316 78.8812Z" stroke="black" stroke-width="2" stroke-miterlimit="10"/>
<path d="M162.865 15.8187C159.443 14.7986 155.796 14.8161 152.384 15.869C148.972 16.9219 145.949 18.9629 143.697 21.7338C141.446 24.5048 140.066 27.8812 139.733 31.4362C139.4 34.9912 140.129 38.5651 141.827 41.7059C143.526 44.8468 146.117 47.4135 149.274 49.0814C152.431 50.7494 156.012 51.4438 159.563 51.0767C163.115 50.7096 166.478 49.2976 169.227 47.0192C171.976 44.7409 173.988 41.6984 175.008 38.2767C176.376 33.6882 175.865 28.7444 173.588 24.5327C171.31 20.321 167.453 17.1865 162.865 15.8187ZM153.795 46.243C153.463 46.1439 153.154 45.9803 152.885 45.7617C152.616 45.5431 152.393 45.2736 152.228 44.9687C152.063 44.6639 151.96 44.3295 151.925 43.9848C151.889 43.6401 151.922 43.2918 152.021 42.9598C152.12 42.6277 152.284 42.3184 152.503 42.0496C152.721 41.7807 152.991 41.5576 153.295 41.3929C153.911 41.0602 154.634 40.9858 155.304 41.1859C155.975 41.3861 156.539 41.8444 156.871 42.4602C157.204 43.0759 157.278 43.7985 157.078 44.4691C156.878 45.1397 156.42 45.7034 155.804 46.036C155.188 46.3687 154.466 46.4431 153.795 46.243ZM162.915 27.7887C162.877 27.8799 162.841 27.9688 162.806 28.0554C161.326 31.6948 159.486 35.177 157.313 38.4499C156.786 39.2479 155.136 38.7555 155.131 37.7979C155.162 34.822 155.39 31.8514 155.815 28.9059C156.08 26.7535 155.874 23.0691 157.614 21.4138C159.158 19.9318 162.069 20.5679 163.442 21.9906C164.958 23.5707 163.645 26.0536 162.908 27.7887H162.915Z" fill="#4361EE" fill-opacity="0.8"/>
<path d="M175.355 119.335C174.102 120.609 173.255 122.225 172.922 123.98C172.588 125.735 172.782 127.55 173.479 129.194C174.177 130.839 175.346 132.24 176.84 133.219C178.334 134.199 180.085 134.714 181.871 134.699C183.657 134.683 185.399 134.139 186.876 133.133C188.352 132.128 189.498 130.707 190.167 129.051C190.836 127.395 190.999 125.577 190.635 123.828C190.271 122.079 189.397 120.478 188.123 119.226C186.415 117.548 184.11 116.617 181.716 116.637C179.322 116.658 177.034 117.628 175.355 119.335ZM186.682 130.468C186.436 130.718 186.102 130.86 185.751 130.863C185.401 130.866 185.064 130.73 184.815 130.484C184.565 130.239 184.423 129.904 184.42 129.554C184.417 129.204 184.553 128.867 184.799 128.617C184.92 128.493 185.065 128.395 185.224 128.327C185.384 128.259 185.556 128.224 185.729 128.222C185.902 128.221 186.074 128.254 186.235 128.319C186.396 128.384 186.542 128.48 186.666 128.601C186.79 128.723 186.888 128.867 186.956 129.027C187.023 129.187 187.059 129.358 187.061 129.532C187.062 129.705 187.029 129.877 186.964 130.038C186.899 130.198 186.803 130.345 186.682 130.468ZM180.608 122.158C181.809 123.731 183.116 125.35 184.06 127.092C184.288 127.511 183.684 128.127 183.26 127.903C181.95 127.194 180.689 126.397 179.486 125.519C178.597 124.898 176.919 124.126 176.595 122.97C176.301 121.939 177.263 120.801 178.214 120.528C179.381 120.195 180.001 121.387 180.608 122.158Z" fill="#3862F8"/>
<path d="M210.763 47.0022C211.663 45.8954 212.214 44.5467 212.347 43.1267C212.48 41.7067 212.189 40.279 211.511 39.0243C210.833 37.7696 209.798 36.7442 208.537 36.0777C207.276 35.4112 205.846 35.1335 204.427 35.2799C203.008 35.4262 201.665 35.99 200.567 36.8998C199.468 37.8097 198.664 39.0248 198.256 40.3915C197.849 41.7582 197.855 43.2152 198.275 44.5781C198.696 45.9411 199.511 47.1489 200.617 48.0487C201.352 48.6463 202.197 49.0932 203.105 49.364C204.013 49.6349 204.965 49.7242 205.907 49.627C206.849 49.5299 207.763 49.248 208.596 48.7977C209.429 48.3473 210.166 47.7372 210.763 47.0022ZM200.92 39.0017C201.008 38.8942 201.115 38.8049 201.237 38.739C201.359 38.6731 201.492 38.6318 201.63 38.6175C201.768 38.6033 201.907 38.6162 202.04 38.6557C202.172 38.6952 202.296 38.7605 202.404 38.8478C202.511 38.935 202.6 39.0426 202.666 39.1644C202.732 39.2862 202.773 39.4197 202.788 39.5575C202.802 39.6952 202.789 39.8344 202.749 39.9671C202.71 40.0998 202.645 40.2234 202.557 40.3309C202.381 40.548 202.126 40.6862 201.848 40.715C201.57 40.7439 201.291 40.6611 201.074 40.4848C200.857 40.3085 200.719 40.0532 200.69 39.7751C200.661 39.497 200.744 39.2187 200.92 39.0017ZM206.376 45.1577C205.303 43.9971 204.147 42.8161 203.26 41.4937C203.045 41.1768 203.488 40.6433 203.834 40.7892C204.932 41.2573 205.998 41.7981 207.024 42.408C207.776 42.8343 209.169 43.32 209.514 44.2183C209.824 45.014 209.144 45.9921 208.408 46.2703C207.498 46.6214 206.915 45.7208 206.376 45.144V45.1577Z" fill="#3862F8"/>
<path d="M139.08 94.5493C141.624 98.8813 141.508 101.966 140.847 106.966C140.583 108.87 142.632 110.158 144.294 109.201C158.98 100.765 172.687 107.436 190.198 103.3C196.627 101.791 204.644 98.6624 210.138 93.6327C211.962 90.9255 212.936 87.7357 212.936 84.4717C212.936 70.7917 194.24 59.6858 171.182 59.6858C156.406 59.6858 143.423 64.2458 136.002 71.1154C136.002 71.1154 136.002 71.1154 135.981 71.136C134.098 73.9563 133.063 77.0389 133.063 80.256C133.052 85.1648 136.702 90.4863 139.08 94.5493Z" fill="#3862F8"/>
<path d="M133.118 80.256C133.118 80.37 133.118 80.484 133.118 80.6026C133.2 85.3906 135.603 89.8526 138.448 93.7126C140.355 96.2936 142.616 99.1618 142.08 102.326C141.852 103.722 141.066 104.987 140.87 106.387C140.674 107.787 141.419 109.534 142.833 109.606C143.731 109.652 144.495 109.014 145.206 108.466C149.413 105.206 154.88 103.986 160.197 103.772C165.514 103.558 170.824 104.26 176.144 104.41C183.814 104.638 191.604 103.672 198.688 100.73C205.036 98.0993 210.852 93.781 214.671 88.0126C218.424 82.3491 216.206 74.1251 212.202 69.2003C208.449 64.5788 203.011 61.6216 197.434 59.5377C182.434 53.938 165.314 54.0657 150.521 60.2012C146.13 62.0252 141.882 64.3964 138.59 67.8278C135.382 71.1702 133.152 75.6254 133.118 80.256Z" stroke="black" stroke-width="2" stroke-miterlimit="10"/>
<path d="M194.664 85.7052C197.845 85.7052 200.423 83.1267 200.423 79.9459C200.423 76.7652 197.845 74.1866 194.664 74.1866C191.483 74.1866 188.905 76.7652 188.905 79.9459C188.905 83.1267 191.483 85.7052 194.664 85.7052Z" fill="white"/>
<path d="M176.037 85.7052C179.217 85.7052 181.796 83.1267 181.796 79.9459C181.796 76.7652 179.217 74.1866 176.037 74.1866C172.856 74.1866 170.277 76.7652 170.277 79.9459C170.277 83.1267 172.856 85.7052 176.037 85.7052Z" fill="white"/>
<path d="M157.046 85.7052C160.227 85.7052 162.806 83.1267 162.806 79.9459C162.806 76.7652 160.227 74.1866 157.046 74.1866C153.866 74.1866 151.287 76.7652 151.287 79.9459C151.287 83.1267 153.866 85.7052 157.046 85.7052Z" fill="white"/>
</svg>
