<svg width="305" height="215" viewBox="0 0 305 215" fill="none" xmlns="http://www.w3.org/2000/svg">
<path d="M278.023 14.9266L17.2798 28.3822C6.77039 28.9242 -1.09424 38.2327 0.124696 48.6836L13.3689 162.301C14.3944 171.09 21.5866 177.873 30.4205 178.379L258.713 191.455C268.202 191.999 276.512 185.158 277.802 175.741L297.009 35.5924C298.56 24.2733 289.43 14.3374 278.023 14.9266Z" fill="#ECF1FE"/>
<path d="M41.4877 36.42H39.1016V149.599H41.4877V36.42Z" stroke="#A3BCF8" stroke-width="2" stroke-miterlimit="10" stroke-linecap="round" stroke-linejoin="round"/>
<path d="M46.1498 33.8179H34.4395C33.9402 33.8179 33.5354 34.2228 33.5354 34.722V35.5182C33.5354 36.0174 33.9402 36.4222 34.4395 36.4222H46.1498C46.6491 36.4222 47.0539 36.0174 47.0539 35.5182V34.722C47.0539 34.2228 46.6491 33.8179 46.1498 33.8179Z" stroke="#A3BCF8" stroke-width="2" stroke-miterlimit="10" stroke-linecap="round" stroke-linejoin="round"/>
<path d="M47.7376 33.3591C50.7895 31.0854 52.7641 27.4511 52.7641 23.3535V20.639C52.7641 13.7526 47.1821 8.16846 40.2936 8.16846C33.4072 8.16846 27.823 13.7504 27.823 20.639V23.3535C27.823 27.4511 29.7999 31.0854 32.8495 33.3591" stroke="#A3BCF8" stroke-width="2" stroke-miterlimit="10" stroke-linecap="round" stroke-linejoin="round"/>
<path d="M9.46466 149.599H284.448" stroke="#A3BCF8" stroke-width="2" stroke-miterlimit="10" stroke-linecap="round" stroke-linejoin="round"/>
<path d="M284.448 161.575H9.46466" stroke="#A3BCF8" stroke-width="2" stroke-miterlimit="10" stroke-linecap="round" stroke-linejoin="round"/>
<path d="M9.46466 155.959H20.1787C21.9037 155.959 23.5005 156.866 24.3866 158.343L26.3117 161.561" stroke="#A3BCF8" stroke-width="2" stroke-miterlimit="10" stroke-linecap="round" stroke-linejoin="round"/>
<path d="M272.803 161.561L270.878 158.343C269.992 156.863 268.395 155.959 266.67 155.959H258.745C257.015 155.959 255.414 156.87 254.53 158.357L252.661 161.501" stroke="#A3BCF8" stroke-width="2" stroke-miterlimit="10" stroke-linecap="round" stroke-linejoin="round"/>
<path d="M37.3181 112.997H9.46466" stroke="#A3BCF8" stroke-width="2" stroke-miterlimit="10" stroke-linecap="round" stroke-linejoin="round"/>
<path d="M125.898 149.599V116.746C125.898 114.677 124.22 112.997 122.149 112.997H43.3904" stroke="#A3BCF8" stroke-width="2" stroke-miterlimit="10" stroke-linecap="round" stroke-linejoin="round"/>
<path d="M270.81 112.997H231.244" stroke="#A3BCF8" stroke-width="2" stroke-miterlimit="10" stroke-linecap="round" stroke-linejoin="round"/>
<path d="M303.558 149.599V112.997H276.833" stroke="#A3BCF8" stroke-width="2" stroke-miterlimit="10" stroke-linecap="round" stroke-linejoin="round"/>
<path d="M43.1992 117.767H125.898" stroke="#A3BCF8" stroke-width="2" stroke-miterlimit="10" stroke-linecap="round" stroke-linejoin="round"/>
<path d="M10.4767 117.767H37.127" stroke="#A3BCF8" stroke-width="2" stroke-miterlimit="10" stroke-linecap="round" stroke-linejoin="round"/>
<path d="M277.267 117.767H303.558" stroke="#A3BCF8" stroke-width="2" stroke-miterlimit="10" stroke-linecap="round" stroke-linejoin="round"/>
<path d="M231.028 117.767H270.617" stroke="#A3BCF8" stroke-width="2" stroke-miterlimit="10" stroke-linecap="round" stroke-linejoin="round"/>
<path d="M37.8399 99.1684C37.2889 99.1437 36.7041 99.1752 36.0654 99.2696C32.1612 99.8408 31.3673 98.6376 29.5592 96.3842C27.751 94.1307 24.3551 93.3458 22.0409 95.4014C19.7267 97.4569 18.2086 97.2388 15.5346 96.0109C12.8606 94.7829 9.70304 95.9659 8.16025 98.8311C7.64299 99.7936 6.96605 100.41 6.1969 100.799" stroke="#A3BCF8" stroke-width="2" stroke-miterlimit="10" stroke-linecap="round" stroke-linejoin="round"/>
<path d="M119.92 112.997C119.92 112.997 120.354 107.969 115.872 106.761C111.39 105.553 112.114 100.781 107.054 100.491C101.994 100.201 102.205 103.959 96.4997 101.359C90.7941 98.7591 91.8691 95.3114 83.269 96.3842C74.669 97.4569 73.8009 99.7689 69.3187 97.1668C64.8365 94.5647 57.7522 94.8661 55.0062 99.2696C52.2603 103.673 50.4521 106.637 46.1881 103.529C44.742 102.474 43.5613 101.582 42.4818 100.882" stroke="#A3BCF8" stroke-width="2" stroke-miterlimit="10" stroke-linecap="round" stroke-linejoin="round"/>
<path d="M276.109 95.777C277.256 96.4629 278.356 96.8969 279.678 96.3819C282.498 95.2844 282.28 92.0324 285.244 89.7205C288.208 87.4085 293.631 87.6964 296.955 91.5287C300.281 95.3609 300.931 113.215 300.931 113.215" stroke="#A3BCF8" stroke-width="2" stroke-miterlimit="10" stroke-linecap="round" stroke-linejoin="round"/>
<path d="M236.014 112.635C236.014 112.635 235.436 108.731 239.628 107.431C243.821 106.129 245.845 105.756 247.581 102.546C249.315 99.3348 252.785 97.4682 256.833 99.2696C260.881 101.071 263.195 99.625 264.495 97.0229C265.797 94.4209 268.253 92.6847 271.652 93.4808" stroke="#A3BCF8" stroke-width="2" stroke-miterlimit="10" stroke-linecap="round" stroke-linejoin="round"/>
<path d="M23.0552 30.7886V92.8286" stroke="#A3BCF8" stroke-width="2" stroke-miterlimit="10" stroke-linecap="round" stroke-linejoin="round"/>
<path d="M257.762 98.0327V54.1531C257.762 51.2722 260.099 48.9355 262.979 48.9355H270.858" stroke="#A3BCF8" stroke-width="2" stroke-miterlimit="10" stroke-linecap="round" stroke-linejoin="round"/>
<path d="M276.642 48.9355H293.556" stroke="#A3BCF8" stroke-width="2" stroke-miterlimit="10" stroke-linecap="round" stroke-linejoin="round"/>
<path d="M275.052 36.42H272.666V149.599H275.052V36.42Z" stroke="#A3BCF8" stroke-width="2" stroke-miterlimit="10" stroke-linecap="round" stroke-linejoin="round"/>
<path d="M279.714 33.8179H268.004C267.504 33.8179 267.1 34.2228 267.1 34.722V35.5182C267.1 36.0174 267.504 36.4222 268.004 36.4222H279.714C280.213 36.4222 280.618 36.0174 280.618 35.5182V34.722C280.618 34.2228 280.213 33.8179 279.714 33.8179Z" stroke="#A3BCF8" stroke-width="2" stroke-miterlimit="10" stroke-linecap="round" stroke-linejoin="round"/>
<path d="M281.302 33.3591C284.354 31.0854 286.328 27.4511 286.328 23.3535V20.639C286.328 13.7526 280.746 8.16846 273.858 8.16846C266.971 8.16846 261.387 13.7504 261.387 20.639V23.3535C261.387 27.4511 263.364 31.0854 266.414 33.3591" stroke="#A3BCF8" stroke-width="2" stroke-miterlimit="10" stroke-linecap="round" stroke-linejoin="round"/>
<path d="M78.0649 2.07147H56.9831C56.3647 2.07147 55.8609 2.57299 55.8609 3.1937V14.7646C55.8609 15.3831 56.3624 15.8869 56.9831 15.8869H75.9239L78.2876 18.2348C78.6204 18.5654 79.1872 18.3292 79.1872 17.8615V3.19596C79.1872 2.57299 78.6834 2.07147 78.0649 2.07147Z" fill="#E9B371"/>
<path d="M67.524 5.97119C65.817 5.97119 64.4339 7.35432 64.4339 9.06128C64.4339 10.7682 65.817 12.1514 67.524 12.1514C69.231 12.1514 70.6141 10.7682 70.6141 9.06128C70.6141 7.35432 69.231 5.97119 67.524 5.97119Z" stroke="white" stroke-width="2" stroke-miterlimit="10" stroke-linecap="round" stroke-linejoin="round"/>
<path d="M67.6837 8.77791C67.1867 8.57101 66.9753 8.42257 66.9753 8.12571C66.9753 7.89631 67.1417 7.63318 67.5803 7.63318C67.8187 7.63318 68.0008 7.68715 68.1335 7.74338C68.228 7.78386 68.3337 7.73888 68.3697 7.64442L68.3877 7.59946C68.4214 7.51175 68.3832 7.41279 68.2977 7.37456C68.1785 7.32283 68.0346 7.2801 67.8546 7.25986C67.7669 7.25086 67.7017 7.17214 67.7017 7.08443V6.87078C67.7017 6.77182 67.623 6.69312 67.5241 6.69312C67.4251 6.69312 67.3464 6.77182 67.3464 6.87078V7.12266C67.3464 7.20138 67.2969 7.2756 67.2182 7.29809C66.7661 7.41728 66.4828 7.75687 66.4828 8.19092C66.4828 8.68794 66.8426 8.95108 67.4251 9.18047C67.8479 9.35139 68.0706 9.54706 68.0706 9.86192C68.0706 10.188 67.7962 10.4219 67.3891 10.4219C67.1507 10.4219 66.9258 10.3612 66.7414 10.2735C66.6447 10.2285 66.5323 10.2712 66.4963 10.3724L66.4783 10.4197C66.449 10.5029 66.4828 10.5973 66.5637 10.6378C66.7257 10.7188 66.9348 10.7772 67.1485 10.7997C67.2384 10.8087 67.3036 10.8852 67.3036 10.9751V11.209C67.3036 11.308 67.3824 11.3867 67.4813 11.3867H67.4881C67.587 11.3867 67.6657 11.308 67.6657 11.209V10.9347C67.6657 10.8559 67.7152 10.784 67.7917 10.766C68.3 10.6333 68.5698 10.2397 68.5698 9.82142C68.5698 9.3154 68.273 9.01855 67.6837 8.77791Z" fill="white"/>
<path d="M187.871 201.55H134.739V205.079H187.871V201.55Z" fill="#ECF1FE"/>
<path d="M154.483 0.0114746C152.584 0.0114746 151.293 1.93884 152.018 3.69303L156.716 15.0728L134.739 53.5032V201.55H187.871V53.5032L209.848 15.0728L203.629 0.0114746H154.483Z" fill="white"/>
<path d="M151.977 3.57605C151.991 3.61428 152.002 3.65475 152.018 3.69299L156.716 15.0728H209.848L205.102 3.57605H151.977Z" fill="#BCE2F0"/>
<path d="M154.483 0.0114746C152.627 0.0114746 151.356 1.85564 151.977 3.5761H205.1L203.627 0.0114746H154.483Z" fill="#ECF1FE"/>
<path d="M187.871 117.986H134.739" stroke="#BCE2F0" stroke-width="2" stroke-miterlimit="10" stroke-linecap="round" stroke-linejoin="round"/>
<path d="M239.703 0.0114746H203.42C201.522 0.0114746 200.233 1.93884 200.957 3.69303L205.653 15.0728L183.679 53.5032V201.55H228.404V81.5433L244.176 53.9597C244.938 52.6261 245.341 51.1148 245.341 49.5765V5.64964C245.341 2.53482 242.815 0.0114746 239.703 0.0114746Z" fill="#BCE2F0"/>
<path d="M228.404 201.55H183.679V205.079H228.404V201.55Z" fill="#A3BCF8"/>
<path d="M163.415 58.9501H141.052C140.559 58.9501 140.161 59.3482 140.161 59.8407V74.8368C140.161 75.3294 140.559 75.7274 141.052 75.7274H163.415C163.908 75.7274 164.306 75.3294 164.306 74.8368V59.8407C164.306 59.3505 163.906 58.9501 163.415 58.9501Z" fill="#ECF1FE"/>
<path d="M177.053 124.274H141.052C140.559 124.274 140.161 124.672 140.161 125.164V195.478C140.161 195.971 140.559 196.369 141.052 196.369H177.051C177.543 196.369 177.942 195.971 177.942 195.478V125.164C177.944 124.672 177.546 124.274 177.053 124.274Z" stroke="#BCE2F0" stroke-width="2" stroke-miterlimit="10" stroke-linecap="round" stroke-linejoin="round"/>
<path d="M157.568 66.0366H146.8C146.593 66.0366 146.424 66.2053 146.424 66.4122V66.9385C146.424 67.1454 146.593 67.314 146.8 67.314H157.568C157.775 67.314 157.944 67.1454 157.944 66.9385V66.4122C157.944 66.2053 157.775 66.0366 157.568 66.0366Z" fill="#A3BCF8"/>
<path d="M172.294 163.433C173.063 163.433 173.686 162.809 173.686 162.041C173.686 161.272 173.063 160.648 172.294 160.648C171.526 160.648 170.902 161.272 170.902 162.041C170.902 162.809 171.526 163.433 172.294 163.433Z" fill="#BCE2F0"/>
<path d="M231.726 203.718H133.727C132.65 203.718 131.775 204.593 131.775 205.671V208.605C131.775 209.683 132.65 210.558 133.727 210.558H231.723C232.801 210.558 233.675 209.683 233.675 208.605V205.671C233.678 204.593 232.803 203.718 231.726 203.718Z" fill="#BCE2F0"/>
<path d="M186.895 203.718H133.727C132.65 203.718 131.775 204.593 131.775 205.671V208.605C131.775 209.683 132.65 210.558 133.727 210.558H186.895C187.972 210.558 188.847 209.683 188.847 208.605V205.671C188.847 204.593 187.974 203.718 186.895 203.718Z" fill="white"/>
<path d="M150.021 33.8742L140.161 51.1125H180.035L180.735 49.8891L183.242 45.5036L185.534 41.4937L189.89 33.8742L197.84 19.9733L199.275 17.4635H159.403L150.021 33.8742Z" fill="#BCE2F0"/>
<path d="M159.403 44.1925V17.4635L140.163 51.1125L159.403 44.1925Z" fill="#A3BCF8"/>
<path d="M159.403 44.1924H183.991" stroke="#A3BCF8" stroke-width="2" stroke-miterlimit="10" stroke-linecap="round" stroke-linejoin="round"/>
<path d="M162.329 21.5364V39.9329C162.329 40.7943 163.029 41.4937 163.89 41.4937H185.534L189.89 33.8742L197.84 19.9711H163.892C163.029 19.9733 162.329 20.6728 162.329 21.5364Z" fill="black"/>
<path d="M166.928 28.2H175.303" stroke="#A3BCF8" stroke-width="2" stroke-miterlimit="10" stroke-linecap="round" stroke-linejoin="round"/>
<path d="M166.928 31.2384H175.303" stroke="#A3BCF8" stroke-width="2" stroke-miterlimit="10" stroke-linecap="round" stroke-linejoin="round"/>
<path d="M166.928 34.2767H175.303" stroke="#A3BCF8" stroke-width="2" stroke-miterlimit="10" stroke-linecap="round" stroke-linejoin="round"/>
<path d="M166.928 37.3151H175.303" stroke="#A3BCF8" stroke-width="2" stroke-miterlimit="10" stroke-linecap="round" stroke-linejoin="round"/>
<path d="M180.085 28.2H196.28" stroke="#A3BCF8" stroke-width="2" stroke-miterlimit="10" stroke-linecap="round" stroke-linejoin="round"/>
<path d="M180.085 31.2384H196.28" stroke="#A3BCF8" stroke-width="2" stroke-miterlimit="10" stroke-linecap="round" stroke-linejoin="round"/>
<path d="M180.085 34.2767H196.28" stroke="#A3BCF8" stroke-width="2" stroke-miterlimit="10" stroke-linecap="round" stroke-linejoin="round"/>
<path d="M180.085 37.3151H196.28" stroke="#A3BCF8" stroke-width="2" stroke-miterlimit="10" stroke-linecap="round" stroke-linejoin="round"/>
<path d="M174.982 22.7463H167.018C166.841 22.7463 166.697 22.8902 166.697 23.0679V24.46C166.697 24.6377 166.841 24.7816 167.018 24.7816H174.982C175.16 24.7816 175.304 24.6377 175.304 24.46V23.0679C175.304 22.8902 175.16 22.7463 174.982 22.7463Z" fill="white"/>
<path d="M215.409 129.359V201.55" stroke="#A3BCF8" stroke-width="2" stroke-miterlimit="10" stroke-linecap="round" stroke-linejoin="round"/>
<path d="M228.404 81.5433L215.409 104.269V116.346" stroke="#A3BCF8" stroke-width="2" stroke-miterlimit="10" stroke-linecap="round" stroke-linejoin="round"/>
<path d="M215.407 117.986C214.912 117.986 214.51 118.388 214.51 118.883V127.112C214.51 127.607 214.912 128.009 215.407 128.009C215.902 128.009 216.304 127.607 216.304 127.112V118.883C216.304 118.386 215.902 117.986 215.407 117.986Z" stroke="#A3BCF8" stroke-width="2" stroke-miterlimit="10" stroke-linecap="round" stroke-linejoin="round"/>
<path d="M177.17 82.218H140.744C140.422 82.218 140.163 82.4789 140.163 82.7982V83.9384C140.163 84.26 140.424 84.5187 140.744 84.5187H177.17C177.492 84.5187 177.75 84.2578 177.75 83.9384V82.7982C177.75 82.4789 177.492 82.218 177.17 82.218Z" fill="#ECF1FE"/>
<path d="M143.076 83.3694H174.786" stroke="#A3BCF8" stroke-width="2" stroke-miterlimit="10" stroke-linecap="round" stroke-linejoin="round"/>
<path d="M111.889 208.797C111.138 208.495 108.206 207.119 105.943 205.749C105.295 205.358 104.702 204.967 104.232 204.602C102.111 202.965 99.2367 200.779 99.1895 200.394C99.14 200.008 99.2974 195.514 99.2974 195.514L89.9462 194.718C89.9462 194.718 89.9754 198.678 89.9282 200.653C89.9147 201.202 89.8967 201.598 89.8697 201.712C89.746 202.241 89.0039 209.134 89.4357 210.724C89.5459 211.12 92.04 211.399 93.6502 211.446C94.6983 211.477 109.092 211.972 110.2 211.538C111.309 211.104 112.859 209.181 111.889 208.797Z" fill="#DECDD1"/>
<path d="M89.9462 194.718C89.9462 194.718 89.9642 197.111 89.9484 199.104C92.9441 199.918 96.2208 200.927 99.185 200.356C99.1467 199.783 99.2952 195.514 99.2952 195.514L89.9462 194.718Z" fill="#25293D"/>
<path d="M111.892 208.797C111.14 208.495 108.208 207.119 105.945 205.749C102.075 204.564 100.926 207.153 99.4795 206.213C98.0335 205.272 93.6255 203.176 93.5535 201.742V201.739C93.5445 201.562 93.4073 201.415 93.2297 201.393C91.7836 201.204 90.7131 200.934 89.9304 200.655C89.9169 201.204 89.8989 201.6 89.872 201.715C89.7483 202.243 89.0061 209.136 89.4379 210.726C89.5481 211.122 92.0422 211.401 93.6525 211.448C94.7005 211.48 109.094 211.974 110.203 211.54C111.311 211.106 112.861 209.181 111.892 208.797Z" fill="black"/>
<path d="M68.138 204.996C67.018 202.864 66.44 200.586 66.44 200.586L67.09 195.105L57.75 194.237C57.75 194.237 57.2417 198.074 56.9449 199.965C56.9381 200.017 56.9291 200.066 56.9224 200.116C56.6323 201.948 55.7012 205.709 55.3886 208.021C55.3436 208.354 55.9576 208.549 56.9224 208.549C56.9224 208.549 57.0191 209.514 56.9224 210.742C56.8257 211.972 57.3677 214.14 59.5739 214.574C61.7779 215.008 71.2123 214.972 72.7304 214.574C74.2484 214.176 74.1382 212.912 74.1022 212.802C74.0663 212.694 69.2602 207.128 68.138 204.996Z" fill="#DECDD1"/>
<path d="M57.1495 198.595C59.6594 200.471 63.3634 200.527 66.5322 199.812L67.0899 195.105L57.75 194.237C57.75 194.237 57.4306 196.652 57.1495 198.595Z" fill="#25293D"/>
<path d="M68.1379 204.996C67.018 202.864 66.44 200.586 66.44 200.586C66.341 200.799 66.1993 200.979 66.0239 201.132C65.8575 201.276 65.7945 201.503 65.8508 201.715C65.9587 202.124 66.1521 202.79 66.3905 203.368C66.6131 203.912 67.3036 205.405 67.7219 206.226C67.8298 206.44 67.6342 206.676 67.4048 206.613C64.8072 205.898 62.1354 206.206 60.6129 206.5C59.9202 206.633 59.2455 206.199 59.0859 205.511C58.7755 204.177 58.2942 202.335 58.2942 202.209C58.2942 202.173 58.3279 201.944 58.3797 201.602C58.4224 201.319 58.2852 201.038 58.0333 200.898C57.2237 200.451 56.9471 199.963 56.9471 199.963C56.9403 200.014 56.9313 200.064 56.9246 200.113C56.6345 201.946 55.7034 205.707 55.3908 208.018C55.3458 208.351 55.9598 208.547 56.9246 208.547C56.9246 208.547 57.0213 209.512 56.9246 210.74C56.8279 211.97 57.3699 214.138 59.5761 214.572C61.7801 215.006 71.2145 214.97 72.7326 214.572C74.2506 214.174 74.1404 212.91 74.1045 212.8C74.0662 212.694 69.2602 207.128 68.1379 204.996Z" fill="black"/>
<path d="M56.9224 208.549C56.9224 208.549 56.9359 207.731 56.6458 205.709" stroke="#A3BCF8" stroke-width="2" stroke-miterlimit="10" stroke-linecap="round" stroke-linejoin="round"/>
<path d="M87.8254 83.6303C87.1192 82.9826 86.0555 82.3844 84.7556 81.8536C84.6769 81.8199 84.5959 81.7884 84.5149 81.7547C81.7735 80.6797 78.0559 79.8993 74.4283 79.5934C72.8001 79.4585 71.1898 79.418 69.692 79.4877C67.9423 79.5732 66.3455 79.8093 65.0614 80.2254C63.4219 80.7562 62.2884 81.577 61.978 82.7442C61.978 82.7442 61.9061 88.0833 62.2614 97.5155C62.3109 98.7794 62.3649 100.118 62.4301 101.528C62.4391 101.755 62.4503 101.984 62.4616 102.216C63.0396 114.551 64.5801 137.588 64.5801 137.588C64.5801 137.588 61.1122 154.167 59.6661 165.443C58.22 176.72 56.9898 196.744 56.9898 196.744C56.9898 196.744 57.1113 196.875 57.3654 197.068C58.0041 197.554 59.4817 198.431 61.9421 198.586C65.1783 198.791 66.6492 197.615 66.8088 197.48C66.8178 197.471 66.8223 197.466 66.8223 197.466C66.8223 197.466 72.1951 171.322 74.7005 163.226C77.2081 155.129 81.3529 140.673 81.5441 139.13C81.6453 138.327 82.4796 133.105 83.3387 127.044C83.4354 126.37 83.5299 125.684 83.6266 124.993C84.3193 119.969 84.976 114.657 85.2211 110.96C85.2211 110.96 87.0203 110.08 88.0166 108.153C88.0278 108.131 88.0391 108.106 88.0503 108.081C88.0706 108.036 88.0886 107.987 88.1088 107.93C88.1178 107.906 88.1245 107.881 88.1335 107.854C88.165 107.755 88.1943 107.643 88.2235 107.517C88.2505 107.404 88.2752 107.283 88.3 107.15C88.3022 107.139 88.3045 107.13 88.3045 107.121C88.3134 107.074 88.3224 107.024 88.3314 106.975C88.3359 106.952 88.3404 106.93 88.3427 106.907C88.3697 106.741 88.3967 106.561 88.4237 106.367C88.4641 106.08 88.5001 105.765 88.5361 105.427C88.5451 105.344 88.5541 105.259 88.5608 105.171C88.5811 104.966 88.6013 104.755 88.6193 104.534C88.6261 104.474 88.6306 104.411 88.6351 104.346C88.6575 104.091 88.6778 103.828 88.6958 103.558C88.7025 103.459 88.7093 103.361 88.716 103.259C88.734 103.007 88.7497 102.747 88.7655 102.481C88.7722 102.373 88.779 102.263 88.7835 102.153C88.7902 102.052 88.7947 101.948 88.8015 101.845C88.851 100.875 88.8937 99.8409 88.9252 98.7771C88.9319 98.577 88.9387 98.3768 88.9432 98.1744C88.9477 98.0732 88.9499 97.972 88.9522 97.8708C88.9612 97.466 88.9701 97.0589 88.9791 96.6518C88.9791 96.6159 88.9814 96.5776 88.9814 96.5416C88.9904 95.9951 88.9971 95.4486 89.0039 94.9044C89.0421 91.0407 88.9657 87.3164 88.7745 85.2518C88.7228 84.6873 88.3854 84.1453 87.8254 83.6303Z" fill="black"/>
<path d="M101.238 100.554C100.602 93.3414 100.024 88.1485 99.6662 85.1799C99.6662 85.1776 99.6662 85.1776 99.6662 85.1754C99.4323 83.2525 99.2951 82.263 99.2951 82.263C97.6894 81.3476 95.933 80.8529 94.1473 80.6527C94.0371 80.6392 93.9269 80.628 93.8167 80.6167C93.0205 80.5425 92.2199 80.5245 91.426 80.5515C90.3083 80.5897 89.204 80.7157 88.1403 80.9001C86.9551 81.1025 85.8216 81.3769 84.7826 81.676C84.6926 81.703 84.6049 81.7277 84.5149 81.7547C81.2764 82.7173 79.005 83.9025 79.005 83.9025C79.005 83.9025 79.005 83.9182 79.0072 83.9497C79.0207 84.1633 79.0724 85.0899 79.1647 86.527C79.2951 88.5983 79.5042 91.7356 79.7809 95.325C79.999 98.1182 80.2577 101.188 80.5523 104.244C80.667 105.416 80.7862 106.588 80.9121 107.742C81.2449 110.82 81.6138 113.773 82.0186 116.288C82.4706 119.101 83.0216 122.029 83.5951 124.845C83.6041 124.894 83.6154 124.944 83.6266 124.993C85.401 133.688 87.3914 141.298 87.3914 141.298C87.1013 153.009 89.0534 198.188 89.0534 198.188C89.3615 198.251 89.6606 198.307 89.9529 198.361C96.8348 199.612 98.8386 198.305 99.2209 197.972C99.2727 197.927 99.2951 197.9 99.2951 197.9C102.956 160.021 103.512 135.456 103.512 135.456C102.945 122.816 102.214 112.206 101.522 103.869C101.427 102.72 101.33 101.615 101.238 100.554Z" fill="black"/>
<path d="M83.5951 124.845L83.3387 127.044C83.4355 126.37 83.5299 125.684 83.6266 124.993C85.401 133.688 87.3914 141.298 87.3914 141.298L85.2211 110.96L83.5951 124.845Z" fill="#25293D"/>
<path d="M80.5742 137.589C80.997 134.236 78.9353 131.214 75.9693 130.84C73.0032 130.466 70.256 132.881 69.8332 136.234C69.4104 139.587 71.4721 142.608 74.4382 142.982C77.4042 143.356 80.1514 140.942 80.5742 137.589Z" stroke="#32449E" stroke-width="2" stroke-miterlimit="10" stroke-linecap="round" stroke-linejoin="round"/>
<path d="M102.768 140.831C101.893 142.085 100.609 142.877 99.1782 142.877C96.5402 142.877 94.4014 140.185 94.4014 136.863C94.4014 133.542 96.5402 130.85 99.1782 130.85C100.66 130.85 101.987 131.7 102.862 133.036" stroke="#32449E" stroke-width="2" stroke-miterlimit="10" stroke-linecap="round" stroke-linejoin="round"/>
<path d="M88.9814 96.5417C88.9814 96.5776 88.9791 96.6159 88.9791 96.6519C88.9724 97.0589 88.9634 97.466 88.9521 97.8708C88.9499 97.972 88.9476 98.0732 88.9431 98.1744C88.9387 98.3768 88.9319 98.577 88.9252 98.7771C88.8937 99.8409 88.8509 100.875 88.8015 101.845C88.7947 101.948 88.7902 102.052 88.7835 102.153C88.779 102.263 88.7722 102.373 88.7655 102.481C88.7497 102.747 88.734 103.007 88.716 103.259C88.7093 103.361 88.7025 103.459 88.6958 103.558C88.6778 103.828 88.6575 104.091 88.635 104.346C88.6305 104.411 88.626 104.474 88.6193 104.534C88.6013 104.755 88.5811 104.966 88.5608 105.171C88.5541 105.259 88.5451 105.344 88.5361 105.427C88.5001 105.765 88.4641 106.08 88.4236 106.367C88.3989 106.561 88.3719 106.741 88.3427 106.907C88.3404 106.93 88.3359 106.952 88.3314 106.975C88.3224 107.024 88.3157 107.074 88.3044 107.121C88.3044 107.13 88.3022 107.139 88.2999 107.15C88.2752 107.283 88.2505 107.404 88.2235 107.517C88.1942 107.643 88.165 107.755 88.1335 107.854C88.1245 107.881 88.1178 107.908 88.1088 107.93C88.0908 107.987 88.0705 108.036 88.0503 108.081C88.0391 108.106 88.0278 108.131 88.0166 108.153C87.0203 110.08 85.2211 110.96 85.2211 110.96C84.976 114.657 84.3193 119.969 83.6266 124.993" stroke="#32449E" stroke-width="2" stroke-miterlimit="10" stroke-linecap="round" stroke-linejoin="round"/>
<path d="M158.522 12.5517C157.762 12.9498 153.533 14.4678 152.74 14.8659C152.162 15.1538 149.503 16.5976 148.091 17.3645C147.533 17.6681 147.126 18.1831 146.962 18.7926C146.87 19.1322 146.746 19.5707 146.584 20.1262C146.103 21.7724 144.319 25.3461 144.319 25.3461C145.005 29.0681 148.491 29.7203 148.491 29.7203C151.399 26.9361 151.512 24.2418 152.402 22.834C153.295 21.4261 153.896 17.2498 153.896 17.2498C153.896 17.2498 154.872 16.3457 157.143 15.0818C159.415 13.8179 159.282 12.1559 158.522 12.5517Z" fill="#DECDD1"/>
<path d="M144.733 25.011C144.335 24.8513 143.885 24.912 143.546 25.1751C142.174 26.2322 139.475 28.8005 135.969 31.7331C131.921 35.1201 120.86 43.2389 120.86 43.2389C120.86 43.2389 117.102 41.8625 113.342 40.3917C109.582 38.9208 100.77 34.3464 100.77 34.3464C94.3429 32.0323 94.9074 47.1408 100.462 49.6079C104.058 51.2047 112.058 53.5121 117.258 54.9402C120.309 55.7791 123.577 55.0819 126.022 53.0713C128.892 50.7099 132.892 47.3117 136.473 43.8888C141.981 38.6262 147.196 32.3584 148.669 30.5592C148.941 30.2263 149.009 29.7743 148.86 29.3695C147.841 26.5853 145.784 25.4338 144.733 25.011Z" fill="white"/>
<path d="M99.1962 34.126C94.4868 34.6658 95.4112 47.3657 100.462 49.6079C101.848 50.2241 103.89 50.9438 106.172 51.6792C105.961 48.0786 105.75 44.4151 104.403 40.8752C103.325 38.1337 101.477 35.9027 99.1962 34.126Z" fill="#1F296F"/>
<path d="M157.143 15.6238C156.522 15.5518 153.932 16.8158 153.497 17.0294C153.063 17.2431 150.353 18.7679 150.353 18.7679C148.077 20.4658 147.895 27.5186 150.7 25.9016C153.504 24.2823 153.995 19.9171 153.995 19.9171C153.995 19.9171 154.219 19.4201 155.899 18.0459C157.579 16.6718 157.764 15.698 157.143 15.6238Z" fill="#DECDD1"/>
<path d="M150.353 18.7701C150.353 18.7701 153.063 17.2431 153.497 17.0317C153.932 16.818 156.522 15.5541 157.143 15.6261C157.764 15.698 157.582 16.6741 155.902 18.0482C154.222 19.4223 153.997 19.9193 153.997 19.9193C153.997 19.9193 153.506 24.2868 150.702 25.9038" stroke="black" stroke-width="0.5" stroke-miterlimit="10" stroke-linecap="round" stroke-linejoin="round"/>
<path d="M141.715 26.7247C141.715 26.7247 143.427 26.6393 145.365 28.7803C146.811 30.377 147.187 32.3426 147.187 32.3426" stroke="white" stroke-width="2" stroke-miterlimit="10" stroke-linecap="round" stroke-linejoin="round"/>
<path d="M116.5 54.324C116.5 54.324 116.356 51.6433 120.932 51.2002C125.343 50.7752 125.649 52.8352 125.649 52.8352" stroke="#4361EE" stroke-width="2" stroke-miterlimit="10" stroke-linecap="round" stroke-linejoin="round"/>
<path d="M100.719 38.3137C100.629 36.0535 99.1872 34.0789 97.0889 33.3277C95.3032 32.6868 93.133 31.7444 89.294 31.4453C81.2764 30.8179 74.0437 33.9687 71.7475 36.4875C69.4514 39.0063 68.7992 44.9189 67.8074 61.0485C66.8156 77.1781 63.2037 85.1484 63.2689 90.836C63.2689 90.836 72.2873 96.1751 85.2054 95.3025C98.1234 94.4299 100.053 89.8398 100.053 89.8398C100.053 89.8398 98.2899 70.9079 99.1242 64.0418C99.8417 58.1518 101.031 46.0816 100.719 38.3137Z" fill="white"/>
<path d="M91.2573 42.1504C91.2573 42.1504 91.2528 49.9768 90.1171 61.0664C88.9814 72.1561 87.8681 86.8396 85.9655 95.4014" stroke="white" stroke-width="2" stroke-miterlimit="10" stroke-linecap="round" stroke-linejoin="round"/>
<path d="M94.0438 40.5896C94.0438 40.5896 94.1023 49.952 93.133 62.571C92.1615 75.1899 90.6771 86.0614 90.1194 94.7222" stroke="white" stroke-width="2" stroke-miterlimit="10" stroke-linecap="round" stroke-linejoin="round"/>
<path d="M93.133 94.0363C93.133 94.0363 94.0258 75.9838 94.244 73.0444C94.4621 70.105 98.1999 44.026 98.1999 44.026" stroke="white" stroke-width="2" stroke-miterlimit="10" stroke-linecap="round" stroke-linejoin="round"/>
<path d="M93.9269 32.0683C93.2544 32.0953 86.6785 30.4715 86.1657 32.8869C85.4415 36.3076 86.8471 39.2942 88.1695 40.7875C89.1433 41.8872 91.0707 43.4323 93.4164 43.4323C97.0035 43.4323 97.5972 39.0401 96.8708 36.5662C96.1444 34.0923 94.5993 32.0413 93.9269 32.0683Z" fill="white"/>
<path d="M102.185 34.8525C101.326 34.0586 96.3535 32.4304 96.3535 32.4304C94.4261 31.7534 95.4876 33.5886 95.4876 33.9507C95.4876 34.3105 96.4277 37.9628 96.6639 44.4668C96.9 50.9731 93.5738 71.8525 94.1135 80.0792C94.5678 87.0038 94.154 103.75 94.0438 106.205C94.0281 106.563 94.3654 106.835 94.7117 106.743C101.126 105.034 102.565 102.924 102.565 102.924C102.936 100.63 102.918 92.1382 102.219 84.829C102.129 83.8867 102.028 82.9669 101.913 82.0808C101.816 81.3207 101.711 80.5875 101.596 79.8903C100.3 72.0572 101.893 62.5553 104.112 51.6725C106.933 37.8526 102.185 34.8525 102.185 34.8525Z" fill="#4361EE"/>
<path d="M94.0438 106.205C94.0281 106.563 94.3654 106.835 94.7117 106.743C101.126 105.034 102.565 102.924 102.565 102.924C102.675 102.243 102.752 101.013 102.786 99.4315C100.77 101.19 97.5364 102.49 94.1383 103.212C94.1 104.651 94.0663 105.715 94.0438 106.205Z" fill="white"/>
<path d="M106.289 25.1347C106.42 25.2001 106.56 25.2001 106.56 25.2001C106.47 25.173 106.38 25.155 106.289 25.1347Z" fill="black"/>
<path d="M108.401 7.95256C105.534 7.1047 102.662 6.15789 100.462 5.00867C96.9832 3.18925 95.6653 5.65861 94.0663 5.40898C92.4673 5.15934 89.3682 5.15935 88.2685 8.75769C87.1687 12.356 88.6575 9.98563 85.8238 11.7668C83.1521 13.4468 82.9901 17.7873 85.1469 20.2589C86.8673 22.2313 86.6694 23.4007 86.3186 26.149C85.9678 28.8972 88.2032 31.0472 91.534 29.9475C94.8062 28.8657 101.139 23.9292 106.289 25.1347C106.056 25.0155 105.853 24.6759 106.559 23.6998C107.079 22.9824 110.684 22.789 111.894 19.4066C112.89 16.6223 111.518 16.0578 112.119 14.704C113.464 11.6836 112.778 9.24572 108.401 7.95256Z" fill="black"/>
<path d="M90.4635 22.166C90.4635 22.166 88.8375 28.3844 87.2092 31.3104C87.2092 31.3104 86.647 35.0796 89.4334 38.3226C92.3706 41.7433 95.5439 40.5626 95.915 37.4298C95.9262 37.3443 95.9329 37.2566 95.9397 37.1667C95.9892 36.4088 96.1826 35.4372 96.448 34.3914C97.3498 30.8448 99.1017 26.4188 99.1017 26.4188C99.1017 26.4188 97.5837 21.0955 90.4635 22.166Z" fill="#DECDD1"/>
<path d="M91.2573 27.0913C91.2573 27.0913 90.4747 31.1912 92.4021 34.324C93.5153 36.1344 94.9254 37.0115 95.9149 37.4298C95.9262 37.3443 95.9329 37.2566 95.9397 37.1667C95.9891 36.4088 96.1826 35.4372 96.4479 34.3914C95.2088 33.4334 91.6644 30.422 91.2573 27.0913Z" fill="#1F296F"/>
<path d="M87.686 30.3635C87.686 30.3635 83.242 30.4962 79.6797 31.3643C74.2979 32.6755 69.728 35.0436 68.3066 40.3939C66.7683 46.1783 67.2744 57.016 65.9834 62.7059C64.6925 68.3958 57.1 88.4049 58.1121 96.5416C58.1121 96.5416 63.8244 107.759 81.7352 107.75C82.2255 107.75 82.6281 107.355 82.6528 106.864C82.7945 104.235 83.4242 89.4461 85.0704 79.8903C85.2953 78.5859 85.5382 77.3782 85.8013 76.3144C86.8853 71.9357 87.9738 65.218 88.7273 58.6218C89.7258 49.8553 90.1374 41.3048 89.1636 38.7432C86.6694 32.1897 87.686 30.3635 87.686 30.3635Z" fill="#4361EE"/>
<path d="M58.1233 92.8241C57.9974 94.2252 57.9816 95.4846 58.1143 96.5416C58.1143 96.5416 63.8267 107.757 81.7375 107.75C82.2277 107.75 82.6303 107.355 82.655 106.864C82.682 106.374 82.7248 105.461 82.7877 104.24C73.0655 104.568 63.6513 100.97 58.1233 92.8241Z" fill="white"/>
<path d="M77.903 81.4016L71.5069 79.9038C71.2325 79.8386 70.9582 80.0095 70.893 80.2838L70.2632 82.9714C72.6629 83.6438 75.1413 84.3275 77.6961 84.5209L78.2831 82.0133C78.3483 81.7412 78.1796 81.4646 77.903 81.4016Z" fill="white"/>
<path d="M76.8055 80.1512L70.4094 78.6534C70.135 78.5882 69.8607 78.7591 69.7954 79.0335L68.7092 83.6686C68.644 83.943 68.8149 84.2173 69.0893 84.2825L75.4853 85.7804C75.7597 85.8456 76.0341 85.6747 76.0993 85.4003L77.1856 80.7652C77.2508 80.4908 77.0798 80.2164 76.8055 80.1512Z" fill="white"/>
<path d="M100.033 82.715C99.6955 82.7937 99.4773 83.1198 99.5335 83.4594L99.7562 84.793C99.8169 85.1686 100.186 85.4137 100.557 85.3215C100.989 85.2158 101.585 85.0517 102.219 84.829C102.129 83.8867 102.028 82.9669 101.913 82.0808C101.576 82.2315 100.876 82.5171 100.033 82.715Z" fill="white"/>
<path d="M78.9645 83.9429C73.2746 83.4684 70.2948 82.4856 68.9904 81.9639C68.5428 81.7839 68.0368 82.0291 67.8974 82.4924L67.56 83.5966C67.4431 83.9789 67.6117 84.3927 67.9693 84.5726C71.3338 86.2481 76.7628 86.572 78.7306 86.635C79.1534 86.6485 79.5155 86.3403 79.574 85.922L79.7157 84.8808C79.7809 84.4085 79.4368 83.9812 78.9645 83.9429Z" fill="white"/>
<path d="M103.602 10.9954C99.1108 9.10178 92.8339 10.7795 90.5962 15.3786C88.3584 19.9778 90.6142 24.0372 90.6142 24.0372C90.5602 26.5268 89.9732 33.1972 97.1182 35.1561C101.742 36.4245 104.538 32.4258 105.819 28.3102C106.935 24.7276 108.174 22.6248 108.583 21.606C109.512 19.2873 108.918 17.6299 109.078 17.1666C110.376 13.3906 107.756 12.7474 103.602 10.9954Z" fill="#DECDD1"/>
<path d="M100.678 7.80417C93.0498 6.72242 88.5046 12.8913 88.7205 16.6246C88.9364 20.3579 90.2903 19.4381 91.426 21.1698C92.5618 22.9015 93.3736 21.5476 94.4554 19.492C94.4666 19.4718 94.4779 19.4516 94.4869 19.4313C95.2763 17.9358 97.2059 17.4792 98.58 18.4643C99.3424 19.013 100.402 19.537 101.868 19.9261C107.441 21.4014 111.012 19.0063 111.012 19.0063C112.283 15.6193 108.309 8.88592 100.678 7.80417Z" fill="black"/>
<path d="M90.1284 18.6487C88.3427 18.0077 88.0998 22.6788 88.9656 24.2711C89.8315 25.8634 91.4283 24.8873 91.4283 24.8873L91.7521 22.1413C91.7521 22.1391 91.9141 19.2896 90.1284 18.6487Z" fill="#DECDD1"/>
<path d="M98.5282 21.9366C98.1167 22.1952 97.9952 22.7372 98.2538 23.1488C98.5125 23.5604 99.0545 23.6818 99.466 23.4232C99.8776 23.1645 99.999 22.6225 99.7404 22.211C99.4818 21.7994 98.9398 21.678 98.5282 21.9366Z" fill="#1F2970"/>
<path d="M102.462 28.769C104.43 28.6588 105.163 27.3275 104.081 26.3874L104.351 25.4158" stroke="#1F296F" stroke-width="2" stroke-miterlimit="10" stroke-linecap="round" stroke-linejoin="round"/>
<path d="M99.655 30.3635C98.969 29.9812 98.2831 29.338 97.912 28.2495" stroke="#1F296F" stroke-width="2" stroke-miterlimit="10" stroke-linecap="round" stroke-linejoin="round"/>
<path d="M105.889 23.6773C105.48 23.5581 105.046 23.8168 104.915 24.2576C104.787 24.6984 105.012 25.1527 105.421 25.2718C105.831 25.391 106.265 25.1324 106.395 24.6916C106.523 24.2508 106.296 23.7965 105.889 23.6773Z" fill="#1F2970"/>
<path d="M101.297 19.5505C100.557 19.0692 99.1152 18.5834 97.487 19.2716C95.2628 20.2094 99.7247 20.1847 100.537 20.9403C101.346 21.6982 102.203 20.1397 101.297 19.5505Z" fill="#1F296F"/>
<path d="M106.283 21.1652C105.707 21.3451 105.169 22.618 105.979 22.4718C106.789 22.3257 108.212 23.4277 107.767 22.0108C107.646 21.6217 106.915 20.9695 106.283 21.1652Z" fill="#1F296F"/>
<path d="M143.303 66.3762C143.215 66.3223 143.114 66.293 143.013 66.2885L132.818 65.8972L130.781 67.7526L145.952 68.2114C146.053 68.2136 146.094 68.081 146.006 68.0292L143.303 66.3762Z" fill="black"/>
<path d="M70.4049 48.1754L85.0704 79.8903C85.2953 78.5859 85.5382 77.3782 85.8013 76.3144C86.8853 71.9357 87.9738 65.218 88.7272 58.6218L88.6125 58.1293L70.4049 48.1754Z" fill="black"/>
<path d="M123.442 65.9916C116.284 63.8731 98.3168 58.6488 91.8848 57.6165C91.8848 57.6165 86.8831 47.2218 83.0149 39.7282C80.9931 35.8128 76.0678 34.4409 72.3165 36.7528C68.8464 38.8893 67.6882 43.3895 69.6987 46.9339C72.9575 52.68 77.7658 60.9202 81.0965 65.5644C82.3739 67.3455 84.2316 68.6229 86.3523 69.1739C90.6141 70.2827 100.237 72.2011 121.645 74.8121C123.451 75.0325 125.12 73.8181 125.462 72.0301L125.86 69.9543C126.191 68.2091 125.147 66.4954 123.442 65.9916Z" fill="white"/>
<path d="M136.041 65.0876C135.432 64.9796 133.378 64.82 131.91 64.6243C131.401 64.5568 130.886 64.6333 130.423 64.8514C129.265 65.3957 127.104 66.3987 126.84 66.4527C126.478 66.5247 123.732 66.9947 123.732 66.9947C123.624 68.7287 129.155 70.3929 130.095 69.9229C131.035 69.4528 132.011 67.3208 132.011 67.3208C132.011 67.3208 132.834 67.1949 134.863 66.8733C136.835 66.5562 136.86 65.2315 136.041 65.0876Z" fill="#DECDD1"/>
<path d="M142.779 68.0405C142.019 67.9685 136.815 67.8966 136.201 67.8246C135.587 67.7526 131.503 67.0285 131.503 67.0285C131.503 67.0285 128.431 66.5584 127.924 66.7024C127.418 66.8463 123.732 66.9925 123.732 66.9925C121.459 68.7736 121.686 71.9042 121.926 73.3166C122.001 73.7506 122.34 74.0925 122.774 74.1712L127.02 74.9448L132.964 77.0004C133.936 77.3377 135.011 76.9307 135.515 76.0333C136.268 74.6952 137.276 72.9185 137.539 72.5227C137.973 71.8727 138.443 70.3547 138.443 70.3547L140.901 69.8487C142.817 69.3426 143.539 68.1125 142.779 68.0405Z" fill="#DECDD1"/>
<path d="M131.503 67.0284C131.503 67.0284 135.587 67.7504 136.201 67.8246C136.815 67.8965 142.021 67.9685 142.779 68.0405" stroke="black" stroke-miterlimit="10" stroke-linecap="round" stroke-linejoin="round"/>
<path d="M122.073 65.5914C122.073 65.5914 119.648 66.3155 118.998 69.6553C118.299 73.2446 119.889 74.5512 119.889 74.5512" stroke="white" stroke-width="2" stroke-miterlimit="10" stroke-linecap="round" stroke-linejoin="round"/>
<path d="M80.4151 63.9429C80.4151 63.9429 83.1048 62.4968 85.3763 64.3477C87.8974 66.401 87.8974 69.003 87.8974 69.003" stroke="#4361EE" stroke-width="2" stroke-miterlimit="10" stroke-linecap="round" stroke-linejoin="round"/>
<path d="M138.443 70.3546L136.549 70.5885L133.198 70.3546" stroke="black" stroke-width="0.5" stroke-miterlimit="10" stroke-linecap="round" stroke-linejoin="round"/>
<path d="M137.168 72.8532C136.369 73.1771 135.497 73.2761 134.647 73.1389L132.557 72.8038" stroke="black" stroke-width="0.5" stroke-miterlimit="10" stroke-linecap="round" stroke-linejoin="round"/>
<path d="M135.895 75.2462L135.715 75.3339C135.274 75.5453 134.775 75.6015 134.298 75.4936L131.973 74.9628" stroke="black" stroke-width="0.5" stroke-miterlimit="10" stroke-linecap="round" stroke-linejoin="round"/>
<path d="M139.729 81.0665H120.55C119.806 81.0665 119.201 81.6714 119.201 82.4158V92.6329C119.201 93.3773 119.806 93.9823 120.55 93.9823H139.732C140.476 93.9823 141.081 93.3773 141.081 92.6329V82.4158C141.079 81.6714 140.476 81.0665 139.729 81.0665Z" fill="black"/>
<path d="M141.081 84.0306H119.201V86.9228H141.081V84.0306Z" fill="#E9B371"/>
<path d="M138.043 89.2347H136.905C136.106 89.2347 135.459 89.8824 135.459 90.6808C135.459 91.4792 136.106 92.1269 136.905 92.1269H138.043C138.841 92.1269 139.489 91.4792 139.489 90.6808C139.489 89.8824 138.841 89.2347 138.043 89.2347Z" fill="white"/>
<path d="M113.066 127.377C113.066 127.757 114.604 128.063 116.5 128.063C118.396 128.063 119.934 127.755 119.934 127.377V126.026H113.066V127.377Z" fill="#E9B371"/>
<path d="M116.498 125.34C114.602 125.34 113.063 125.648 113.063 126.026C113.063 126.406 114.602 126.712 116.498 126.712C118.393 126.712 119.932 126.403 119.932 126.026C119.932 125.648 118.396 125.34 116.498 125.34Z" fill="white"/>
<path d="M117.975 28.1237C117.707 28.3936 118.585 29.6935 119.934 31.0271C121.283 32.3608 122.592 33.2221 122.858 32.9522L123.809 31.9919L118.926 27.1634L117.975 28.1237Z" fill="#E9B371"/>
<path d="M118.926 27.1632C118.659 27.4331 119.536 28.733 120.885 30.0666C122.235 31.4003 123.543 32.2616 123.809 31.9918C124.076 31.7219 123.199 30.422 121.85 29.0884C120.501 27.7547 119.192 26.8934 118.926 27.1632Z" fill="white"/>
<path d="M57.3206 54.7852L52.492 59.6677L53.4523 60.619C53.7222 60.8866 55.0221 60.0095 56.3558 58.6602C57.6894 57.3108 58.5507 56.0019 58.2809 55.7365L57.3206 54.7852Z" fill="#E9B371"/>
<path d="M54.4193 56.7439C53.0856 58.0933 52.2243 59.4022 52.4941 59.6676C52.764 59.933 54.0639 59.0581 55.3976 57.7087C56.7312 56.3594 57.5925 55.0505 57.3227 54.7851C57.0505 54.5197 55.7506 55.3968 54.4193 56.7439Z" fill="white"/>
<path d="M239.377 182.767C232.144 182.767 226.283 183.048 226.283 183.516C226.283 183.984 232.144 184.458 239.377 184.458C246.609 184.458 252.47 183.972 252.47 183.507C252.468 183.041 246.607 182.767 239.377 182.767Z" fill="#A1B8DF"/>
<path d="M253.815 157.302C242.683 169.521 241.945 184.08 241.945 184.08C251.935 177.361 257.227 168.295 260.004 161.15C261.495 157.322 256.581 154.266 253.815 157.302Z" fill="#12AE67"/>
<path d="M229.432 165.893C232.704 175.968 237.939 183.813 237.939 183.813C239.392 175.031 238.335 168.335 236.399 163.37C234.663 158.919 227.956 161.348 229.432 165.893Z" fill="#12AE67"/>
<path d="M237.706 148.641C235.67 155.971 234.714 167.676 240.269 183.813C240.269 183.813 249.634 169.725 244.896 148.837C244.043 145.072 238.738 144.921 237.706 148.641Z" fill="#14C664"/>
<path d="M225.514 163.709C222.359 161.231 218.079 164.832 219.957 168.376C222.46 173.099 227.306 178.984 236.687 184.08C236.687 184.08 234.935 171.108 225.514 163.709Z" fill="#14C664"/>
<path d="M226.281 183.489L228.8 209.579C228.917 210.789 229.933 211.713 231.15 211.713H246.805C247.995 211.713 248.998 210.83 249.146 209.651L252.468 183.491C236.898 184.908 226.281 183.489 226.281 183.489Z" fill="white"/>
<path d="M240.272 183.813C240.272 183.813 241.167 153.375 241.173 148.63" stroke="#32449E" stroke-width="2" stroke-miterlimit="10" stroke-linecap="round" stroke-linejoin="round"/>
<path d="M241.945 184.08C241.945 184.08 252.292 167.177 256.914 159.589" stroke="#32449E" stroke-width="2" stroke-miterlimit="10" stroke-linecap="round" stroke-linejoin="round"/>
<path d="M237.939 183.813C237.939 183.813 235.933 172.03 232.702 163.433" stroke="#32449E" stroke-width="2" stroke-miterlimit="10" stroke-linecap="round" stroke-linejoin="round"/>
<path d="M236.687 184.08C236.687 184.08 227.941 170.573 223.569 166.219" stroke="#32449E" stroke-width="2" stroke-miterlimit="10" stroke-linecap="round" stroke-linejoin="round"/>
</svg>
