<svg width="59" height="38" viewBox="0 0 59 38" fill="none" xmlns="http://www.w3.org/2000/svg">
<path d="M22.5108 20.5992C21.6716 20.1717 20.7375 19.95 19.7875 19.95C12.3775 20.4725 12.3775 31.255 19.7875 31.7775H37.3466C39.4841 31.7933 41.5425 31.0017 43.11 29.5608C48.3191 25.0167 45.5325 15.8808 38.6766 15.01C36.2066 0.174168 14.7841 5.81083 19.8666 19.95" stroke="#292D32" stroke-width="1.5" stroke-miterlimit="10" stroke-linecap="round" stroke-linejoin="round"/>
<path d="M36.0957 15.7067C36.919 15.295 37.8215 15.0733 38.7399 15.0575" stroke="#292D32" stroke-width="1.5" stroke-miterlimit="10" stroke-linecap="round" stroke-linejoin="round"/>
<path d="M30.3536 11.6464C30.1583 11.4512 29.8417 11.4512 29.6464 11.6464L26.4645 14.8284C26.2692 15.0237 26.2692 15.3403 26.4645 15.5355C26.6597 15.7308 26.9763 15.7308 27.1716 15.5355L30 12.7071L32.8284 15.5355C33.0237 15.7308 33.3403 15.7308 33.5355 15.5355C33.7308 15.3403 33.7308 15.0237 33.5355 14.8284L30.3536 11.6464ZM30.5 26L30.5 12L29.5 12L29.5 26L30.5 26Z" fill="black"/>
</svg>
