<svg width="301" height="222" viewBox="0 0 301 222" fill="none" xmlns="http://www.w3.org/2000/svg">
<path d="M281.719 26.0253L23.4098 37.1496C14.0161 37.5533 6.99127 45.9297 8.22867 55.2499L24.3557 176.748C25.3933 184.568 31.9737 190.465 39.8588 190.646L264.99 195.792C273.21 195.979 280.235 189.913 281.244 181.752L298.294 43.9849C299.511 34.1611 291.61 25.5992 281.719 26.0253Z" fill="#ECF1FE"/>
<path d="M260.875 31.2827L255.774 34.8502L256.475 35.8552C256.673 36.1365 257.974 35.5677 259.382 34.5811C260.791 33.5965 261.774 32.569 261.576 32.2877L260.875 31.2827Z" fill="#E9B371"/>
<path d="M257.968 32.5568C256.559 33.5414 255.576 34.5688 255.774 34.8502C255.972 35.1315 257.272 34.5607 258.681 33.5761C260.09 32.5915 261.072 31.564 260.875 31.2827C260.677 31.0014 259.376 31.5722 257.968 32.5568Z" fill="#F7CB71"/>
<path d="M243.741 60.481C243.498 60.7256 244.293 61.9039 245.516 63.1128C246.739 64.3216 247.926 65.1024 248.166 64.8578L249.029 63.9873L244.603 59.6105L243.741 60.481Z" fill="#E9B371"/>
<path d="M244.601 59.6104C244.358 59.855 245.153 61.0333 246.376 62.2422C247.6 63.451 248.786 64.2318 249.027 63.9872C249.267 63.7425 248.474 62.5643 247.251 61.3554C246.03 60.1486 244.843 59.3658 244.601 59.6104Z" fill="#F7CB71"/>
<path d="M235.26 45.5322L230.883 49.9579L231.754 50.8202C231.998 51.0628 233.177 50.2677 234.386 49.0446C235.594 47.8215 236.375 46.635 236.131 46.3945L235.26 45.5322Z" fill="#E9B371"/>
<path d="M232.628 47.3077C231.419 48.5308 230.639 49.7173 230.883 49.9578C231.128 50.2004 232.306 49.4054 233.515 48.1823C234.724 46.9591 235.505 45.7727 235.26 45.5321C235.015 45.2916 233.837 46.0866 232.628 47.3077Z" fill="#F7CB71"/>
<path d="M30.4876 109.804H23.8052" stroke="#A3BCF8" stroke-width="2" stroke-miterlimit="10" stroke-linecap="round" stroke-linejoin="round"/>
<path d="M47.1976 39.7427C47.1976 40.0811 47.1976 109.804 47.1976 109.804H37.1068" stroke="#A3BCF8" stroke-width="2" stroke-miterlimit="10" stroke-linecap="round" stroke-linejoin="round"/>
<path d="M28.2615 115.247H24.853" stroke="#A3BCF8" stroke-width="2" stroke-miterlimit="10" stroke-linecap="round" stroke-linejoin="round"/>
<path d="M52.767 35.8857V115.247H37.5655" stroke="#A3BCF8" stroke-width="2" stroke-miterlimit="10" stroke-linecap="round" stroke-linejoin="round"/>
<path d="M279.287 109.804H285.773" stroke="#A3BCF8" stroke-width="2" stroke-miterlimit="10" stroke-linecap="round" stroke-linejoin="round"/>
<path d="M265.396 30.5182C265.396 30.8566 265.396 109.804 265.396 109.804H271.228" stroke="#A3BCF8" stroke-width="2" stroke-miterlimit="10" stroke-linecap="round" stroke-linejoin="round"/>
<path d="M280.204 115.247H283.676" stroke="#A3BCF8" stroke-width="2" stroke-miterlimit="10" stroke-linecap="round" stroke-linejoin="round"/>
<path d="M264.895 115.247H270.833" stroke="#A3BCF8" stroke-width="2" stroke-miterlimit="10" stroke-linecap="round" stroke-linejoin="round"/>
<path d="M259.827 26.6613V115.247" stroke="#A3BCF8" stroke-width="2" stroke-miterlimit="10" stroke-linecap="round" stroke-linejoin="round"/>
<path d="M151.804 156.454H265.832" stroke="#A3BCF8" stroke-width="2" stroke-miterlimit="10" stroke-linecap="round" stroke-linejoin="round"/>
<path d="M36.6705 156.454H145.382" stroke="#A3BCF8" stroke-width="2" stroke-miterlimit="10" stroke-linecap="round" stroke-linejoin="round"/>
<path d="M151.934 164.317H266.444" stroke="#A3BCF8" stroke-width="2" stroke-miterlimit="10" stroke-linecap="round" stroke-linejoin="round"/>
<path d="M35.6207 164.317H145.252" stroke="#A3BCF8" stroke-width="2" stroke-miterlimit="10" stroke-linecap="round" stroke-linejoin="round"/>
<path d="M33.6168 151.572H19.7893H13.7063C12.5626 151.572 11.6677 152.558 11.7778 153.696L15.1108 188.117H30.5202C31.4804 188.117 32.2836 187.387 32.3753 186.433L35.5453 153.696C35.6574 152.556 34.7625 151.572 33.6168 151.572Z" stroke="#A3BCF8" stroke-width="2" stroke-miterlimit="10" stroke-linecap="round" stroke-linejoin="round"/>
<path d="M31.3459 151.572C31.3459 151.572 42.8739 140.594 44.0522 125.199C44.0522 125.199 35.741 130.434 31.3459 141.002C31.3459 141.002 38.2199 120.306 35.4352 102.112C35.4352 102.112 25.7704 118.123 24.9836 137.583C24.9836 137.583 25.8724 111.524 19.2838 100.212C19.2838 100.212 13.9754 115.764 18.1034 137.387C18.1034 137.387 14.3688 121.107 5.71925 112.048C5.71925 112.048 6.50613 127.184 12.7951 140.739C12.7951 140.739 7.09527 133.848 1 132.079C1 132.079 3.79485 142.922 15.0008 151.572" stroke="#A3BCF8" stroke-width="2" stroke-miterlimit="10" stroke-linecap="round" stroke-linejoin="round"/>
<path d="M288.882 151.572H275.055H268.972C267.828 151.572 266.933 152.558 267.043 153.696L270.213 186.433C270.305 187.389 271.108 188.117 272.068 188.117H287.478L290.811 153.696C290.921 152.556 290.026 151.572 288.882 151.572Z" stroke="#A3BCF8" stroke-width="2" stroke-miterlimit="10" stroke-linecap="round" stroke-linejoin="round"/>
<path d="M286.609 151.572C286.609 151.572 298.137 140.594 299.316 125.199C299.316 125.199 291.004 130.434 286.609 141.002C286.609 141.002 293.483 120.306 290.699 102.112C290.699 102.112 281.034 118.123 280.247 137.583C280.247 137.583 281.136 111.524 274.547 100.212C274.547 100.212 269.239 115.764 273.367 137.387C273.367 137.387 269.632 121.107 260.983 112.048C260.983 112.048 261.769 127.184 268.058 140.739C268.058 140.739 262.359 133.848 256.263 132.079C256.263 132.079 259.058 142.922 270.264 151.572" stroke="#A3BCF8" stroke-width="2" stroke-miterlimit="10" stroke-linecap="round" stroke-linejoin="round"/>
<path d="M130.668 33.3029V42.1217H180.026V1" stroke="#A3BCF8" stroke-width="2" stroke-miterlimit="10" stroke-linecap="round" stroke-linejoin="round"/>
<path d="M147.568 190.642C147.568 191.217 148.033 191.682 148.607 191.682C149.182 191.682 149.647 191.217 149.647 190.642V125.264H147.568V190.642Z" fill="white"/>
<path d="M149.645 125.264H148.644V183.32H149.645V125.264Z" fill="#BCE2F0"/>
<path d="M148.644 183.711V183.318H147.568V190.642C147.568 191.217 148.033 191.682 148.607 191.682C149.182 191.682 149.647 191.217 149.647 190.642V183.318H148.646V183.711H148.644Z" fill="#BCE2F0"/>
<path d="M149.647 119.326H147.568V125.264H149.647V119.326Z" fill="#A3BCF8"/>
<path d="M148.607 113C140.769 113 133.522 113.265 127.629 113.712H112.853V116.745C112.853 118.814 128.862 120.49 148.607 120.49C168.353 120.49 184.362 118.812 184.362 116.745V113.712H169.586C163.693 113.265 156.446 113 148.607 113Z" fill="#BCE2F0"/>
<path d="M148.607 109.969C145.827 109.969 143.12 110.001 140.523 110.065C130.813 110.299 122.618 110.949 117.723 111.824C117.721 111.824 117.721 111.826 117.719 111.826C114.625 112.38 112.851 113.025 112.851 113.714C112.851 115.783 128.86 117.458 148.607 117.458C168.353 117.458 184.362 115.783 184.362 113.714C184.362 111.644 168.353 109.969 148.607 109.969Z" fill="white"/>
<path d="M125.382 209.756C125.156 209.982 125.142 210.337 125.331 210.583L147.168 189.619L146.551 188.618L125.382 209.756Z" fill="white"/>
<path d="M125.333 210.584C125.35 210.604 125.364 210.626 125.382 210.645C125.623 210.885 126.01 210.891 126.257 210.657L147.696 190.471L147.17 189.619L125.333 210.584Z" fill="#BCE2F0"/>
<path d="M150.66 188.618L149.515 190.469L170.954 210.655C171.201 210.887 171.588 210.881 171.829 210.643C172.073 210.398 172.073 209.998 171.829 209.754L150.66 188.618Z" fill="white"/>
<path d="M149.515 190.471L170.954 210.657C171.201 210.889 171.588 210.883 171.829 210.645C171.855 210.618 171.878 210.59 171.898 210.561L150.008 189.674L149.515 190.471Z" fill="#BCE2F0"/>
<path d="M147.81 218.269C147.817 218.611 148.096 218.887 148.438 218.887H148.512V190.471H147.325L147.81 218.269Z" fill="white"/>
<path d="M147.388 194.022H148.514V190.471H147.327L147.388 194.022Z" fill="#BCE2F0"/>
<path d="M148.514 218.887H148.771C149.113 218.887 149.392 218.611 149.399 218.269L149.861 190.471H148.516V218.887H148.514Z" fill="#BCE2F0"/>
<path d="M149.684 184.881H147.529C146.989 184.881 146.553 185.318 146.553 185.858V191.38C146.553 191.921 146.989 192.357 147.529 192.357H149.684C150.224 192.357 150.66 191.921 150.66 191.38V185.858C150.66 185.32 150.224 184.881 149.684 184.881Z" fill="white"/>
<path d="M161.603 113.345C161.603 113.63 163.14 113.862 165.036 113.862C166.932 113.862 168.471 113.63 168.471 113.345L168.942 105.474H161.132L161.603 113.345Z" fill="#212B6C"/>
<path d="M168.538 107.037H169.723C170.351 107.037 170.826 107.606 170.711 108.224L170.31 110.401C170.194 111.029 169.749 111.545 169.146 111.752L167.968 112.16" stroke="#212B6C" stroke-width="4" stroke-miterlimit="10" stroke-linecap="round" stroke-linejoin="round"/>
<path d="M165.036 106.061C167.193 106.061 168.942 105.797 168.942 105.472C168.942 105.146 167.193 104.883 165.036 104.883C162.879 104.883 161.13 105.146 161.13 105.472C161.13 105.797 162.879 106.061 165.036 106.061Z" fill="#25293D"/>
<path d="M140.523 110.065C130.813 110.299 122.618 110.949 117.723 111.824C117.721 111.824 117.721 111.826 117.719 111.826C117.719 111.826 131.543 115.699 143.729 115.501C143.729 115.501 150.872 112.16 153.429 111.373L141.829 110.774C141.829 110.774 141.385 110.464 140.523 110.065Z" fill="#A3BCF8"/>
<path d="M129.027 107.712C124.903 109.716 117.679 110.974 117.679 110.974C129.339 115.351 142.559 115.026 142.559 115.026C147.519 113.671 154.085 109.73 154.085 109.73C143.713 110.311 129.027 107.712 129.027 107.712Z" fill="#F7CB71"/>
<path d="M140.268 109.957L130.475 110.764L130.564 111.852L140.358 111.045C140.657 111.021 140.881 110.756 140.857 110.456C140.832 110.156 140.567 109.932 140.268 109.957Z" fill="#212B6C"/>
<path d="M128.63 111.463L130.562 111.852C130.562 111.852 130.846 111.377 130.473 110.764L128.63 111.463Z" fill="#212B6C"/>
<path d="M136.969 110.228C136.969 110.228 137.328 110.682 137.059 111.316" stroke="white" stroke-width="2" stroke-miterlimit="10" stroke-linecap="round" stroke-linejoin="round"/>
<path d="M140.478 110.743L140.51 111.127C140.529 111.339 140.37 111.524 140.158 111.543L136.749 111.824" stroke="#212B6C" stroke-width="2" stroke-miterlimit="10" stroke-linecap="round" stroke-linejoin="round"/>
<path d="M199.561 196.022C199.512 196.473 199.865 196.866 200.319 196.866C200.701 196.866 201.023 196.585 201.074 196.206L208.416 141.899L205.605 140.386L199.561 196.022Z" fill="white"/>
<path d="M204.814 147.674H207.636L208.416 141.901L205.605 140.39L204.814 147.674Z" fill="#A3BCF8"/>
<path d="M199.561 196.022C199.512 196.473 199.865 196.866 200.319 196.866C200.701 196.866 201.023 196.585 201.074 196.206L207.636 147.672H204.814L199.561 196.022Z" fill="white"/>
<path d="M208.995 196.293C208.983 196.746 209.368 197.109 209.819 197.072C210.198 197.041 210.498 196.734 210.516 196.352L213.372 141.627L210.447 140.351L208.995 196.293Z" fill="#BCE2F0"/>
<path d="M223.453 140.594L228.054 196.365C228.091 196.817 228.513 197.135 228.957 197.05C229.332 196.978 229.595 196.64 229.573 196.259L226.496 141.544L223.453 140.594Z" fill="#BCE2F0"/>
<path d="M233.193 141.901L239.623 196.193C239.667 196.577 239.994 196.866 240.379 196.866H240.426C240.874 196.866 241.225 196.481 241.184 196.034L236.226 141.901H233.193Z" fill="white"/>
<path d="M233.193 141.901L233.89 147.804H236.767L236.224 141.901H233.193Z" fill="#A3BCF8"/>
<path d="M257.666 77.6577C256.092 77.303 247.133 90.3579 241.498 105.141C235.864 119.925 230.951 135.188 218.387 136.627C205.825 138.066 198.705 134.949 198.705 134.949C198.705 134.949 195.912 138.217 200.682 141.301C205.236 144.247 216.54 146.351 225.854 145.855C240.218 145.093 241.737 138.941 243.655 123.855C245.83 106.74 250.888 93.7928 255.201 86.4418C259.519 79.0908 257.666 77.6577 257.666 77.6577Z" fill="#BCE2F0"/>
<path d="M239.103 77.5313C232.151 81.007 228.794 101.625 225.377 112.654C221.961 123.682 221.361 133.51 214.169 134.949C206.977 136.388 200.264 134.58 198.707 134.949C196.721 135.418 205.972 137.658 208.211 137.887C214.082 138.486 221.084 140.584 231.232 136.388C241.38 132.193 237.784 120.327 245.575 101.986C251.138 88.8922 256.604 81.9672 257.682 78.4915C258.761 75.0157 246.054 74.0556 239.103 77.5313Z" fill="white"/>
<path d="M98.4061 140.39L95.5949 141.903L102.938 196.21C102.989 196.587 103.311 196.87 103.692 196.87C104.145 196.87 104.499 196.477 104.45 196.026L98.4061 140.39Z" fill="white"/>
<path d="M74.4368 196.261C74.4164 196.642 74.6794 196.978 75.0524 197.052C75.4968 197.137 75.9188 196.817 75.9555 196.367L80.5565 140.596L77.5109 141.548L74.4368 196.261Z" fill="white"/>
<path d="M90.6392 141.627L93.4952 196.352C93.5155 196.734 93.8132 197.041 94.1924 197.072C94.6449 197.109 95.0282 196.746 95.0159 196.293L93.5645 140.351L90.6392 141.627Z" fill="#BCE2F0"/>
<path d="M62.8272 196.036C62.7864 196.483 63.1371 196.868 63.5856 196.868H63.6324C64.0177 196.868 64.3439 196.579 64.3887 196.195L70.8183 141.903H67.785L62.8272 196.036Z" fill="white"/>
<path d="M67.2101 148.198H70.0743L70.8183 141.901H67.787L67.2101 148.198Z" fill="#A3BCF8"/>
<path d="M85.6223 136.627C73.0607 135.188 68.1458 119.925 62.5112 105.141C56.8767 90.3579 47.9172 77.303 46.3435 77.6577C46.3435 77.6577 44.4904 79.0908 48.806 86.4418C53.1217 93.7928 58.1773 106.74 60.3524 123.855C62.2707 138.941 63.7894 145.093 78.153 145.855C87.4672 146.349 98.773 144.245 103.325 141.301C108.095 138.215 105.302 134.949 105.302 134.949C105.302 134.949 98.1838 138.066 85.6223 136.627Z" fill="#BCE2F0"/>
<path d="M105.305 134.949C103.747 134.58 97.0341 136.388 89.8421 134.949C82.6501 133.51 82.0508 123.682 78.6341 112.654C75.2175 101.625 71.8621 81.0091 64.9086 77.5313C57.9571 74.0556 45.2508 75.0137 46.3292 78.4894C47.4076 81.9652 52.873 88.8901 58.4362 101.984C66.2275 120.323 62.6315 132.191 72.7794 136.386C82.9273 140.582 89.9297 138.484 95.8008 137.885C98.0391 137.658 107.292 135.418 105.305 134.949Z" fill="white"/>
<path d="M107.647 210.202C105.109 208.417 103.366 206.967 102.601 206.307C102.324 206.068 102.177 205.715 102.198 205.351L102.287 203.84C102.287 203.84 94.9568 202.857 93.9457 204.466C93.9457 204.466 93.8744 207.742 93.801 208.932C93.7459 209.848 93.6481 212.808 93.6053 214.124C93.593 214.52 93.8479 214.86 94.2026 214.926C94.6939 215.015 95.5052 215.107 96.7324 215.085C99.036 215.046 99.9758 216.434 103.26 217.307C106.546 218.179 113.396 216.622 114.054 215.918C114.515 215.427 114.71 214.907 114.668 214.387C114.6 213.568 110.837 212.447 107.647 210.202Z" fill="#212B6C"/>
<path d="M102.601 206.309C102.522 206.239 102.455 206.162 102.398 206.076C102.363 206.023 102.33 205.968 102.304 205.911C102.277 205.854 102.255 205.795 102.239 205.734C102.239 205.732 102.239 205.732 102.239 205.73C102.224 205.675 102.214 205.62 102.206 205.565C102.204 205.552 102.204 205.542 102.202 205.53C102.196 205.471 102.194 205.412 102.198 205.353L102.287 203.842C102.287 203.842 101.953 203.797 101.419 203.744C101.372 203.74 101.325 203.734 101.274 203.73C101.26 203.728 101.244 203.728 101.229 203.726C99.1624 203.524 94.7183 203.245 93.9478 204.47C93.9478 204.47 93.9213 205.626 93.8866 206.814C95.2178 207.138 96.5653 207.23 97.8883 207.136C97.9046 208.003 97.9759 208.765 98.1431 209.173C98.3245 209.619 101.556 211.038 102.826 211.754C104.047 212.441 106.652 210.844 108.892 211.012C108.474 210.761 108.057 210.492 107.649 210.204C105.109 208.419 103.366 206.967 102.601 206.309Z" fill="white"/>
<path d="M84.9414 216.171C83.5267 215.268 77.8677 210.804 77.2418 210.388C76.618 209.972 76.7016 209.014 77.1175 206.559C77.5333 204.105 70.2863 200.9 69.0387 204.853L68.4149 210.72L67.7014 216.87C67.6769 217.227 67.8849 217.557 68.2151 217.69C68.523 217.814 68.9959 217.926 69.7257 217.961C69.7257 217.961 70.7919 218.334 72.5409 220.083C73.7294 221.272 75.1217 221.498 79.4904 221.457C83.859 221.416 87.404 221.121 87.9789 219.688C88.6659 217.981 87.7343 217.955 84.9414 216.171Z" fill="#212B6C"/>
<path d="M76.828 209.678C76.8219 209.644 76.8178 209.609 76.8137 209.572C76.8117 209.564 76.8117 209.556 76.8117 209.546C76.7893 209.35 76.7893 209.118 76.8056 208.845V208.843C76.8423 208.28 76.9544 207.54 77.1195 206.559C77.1215 206.553 77.1195 206.547 77.1215 206.541C77.1317 206.482 77.1338 206.421 77.1358 206.36C77.1358 206.337 77.1358 206.317 77.1338 206.294C77.1317 206.229 77.1256 206.166 77.1134 206.101C77.1113 206.086 77.1052 206.07 77.1032 206.056C77.091 206.001 77.0767 205.948 77.0583 205.893C77.0502 205.87 77.042 205.846 77.0339 205.824C77.0094 205.76 76.9829 205.697 76.9503 205.632C76.9401 205.612 76.9279 205.593 76.9177 205.573C76.8912 205.524 76.8626 205.475 76.8321 205.424C76.8178 205.4 76.8015 205.377 76.7852 205.353C76.7444 205.291 76.6996 205.23 76.6506 205.169C76.6323 205.147 76.6139 205.124 76.5936 205.102C76.5569 205.057 76.5161 205.012 76.4753 204.967C76.4529 204.943 76.4325 204.918 76.408 204.896C76.351 204.839 76.2939 204.78 76.2327 204.723C76.2062 204.698 76.1797 204.676 76.1532 204.651C76.1084 204.611 76.0615 204.572 76.0126 204.531C75.984 204.509 75.9575 204.484 75.929 204.462C75.8617 204.409 75.7924 204.356 75.719 204.305C75.6864 204.28 75.6517 204.258 75.6171 204.233C75.5661 204.199 75.5131 204.162 75.4601 204.127C75.4275 204.105 75.3949 204.085 75.3602 204.062C75.2848 204.015 75.2053 203.968 75.1258 203.924C75.085 203.901 75.0463 203.879 75.0055 203.856C74.9505 203.826 74.8934 203.795 74.8363 203.767C74.7833 203.74 74.7303 203.714 74.6773 203.687C74.61 203.655 74.5428 203.624 74.4755 203.593C74.4306 203.573 74.3838 203.553 74.3389 203.534C74.2798 203.51 74.2186 203.485 74.1595 203.461C74.0963 203.436 74.0331 203.412 73.9679 203.39C73.9067 203.367 73.8436 203.345 73.7824 203.324C73.7335 203.308 73.6845 203.292 73.6377 203.277C73.5724 203.257 73.5092 203.239 73.444 203.22C73.3788 203.202 73.3115 203.186 73.2463 203.167C73.1871 203.153 73.128 203.139 73.0669 203.124C73.0179 203.114 72.969 203.104 72.9201 203.094C72.8467 203.08 72.7733 203.067 72.6999 203.055C72.6408 203.045 72.5837 203.039 72.5246 203.031C72.4655 203.023 72.4064 203.016 72.3472 203.01C72.3004 203.006 72.2535 203.002 72.2066 202.998C72.1189 202.992 72.0333 202.988 71.9477 202.986C70.639 202.963 69.481 203.471 69.0468 204.845L68.5759 209.273C69.5422 209.674 70.5085 209.923 71.4707 210.056C71.4197 210.92 71.3912 211.519 71.4054 211.595C71.4666 211.898 74.4633 214.754 74.9811 215.335C75.5009 215.916 80.6666 214.035 83.3228 215.005C81.1049 213.352 77.7229 210.698 77.25 210.382C77.0176 210.237 76.8871 210.015 76.828 209.678Z" fill="white"/>
<path d="M102.601 206.307C103.366 206.967 105.109 208.417 107.647 210.202L102.2 205.351C102.177 205.715 102.326 206.068 102.601 206.307Z" fill="white" stroke="#212B6C" stroke-width="2" stroke-miterlimit="10" stroke-linecap="round" stroke-linejoin="round"/>
<path d="M77.2438 210.388C77.6903 210.685 80.7216 213.06 82.9253 214.718L77.1195 206.559C76.7036 209.014 76.62 209.972 77.2438 210.388Z" fill="white" stroke="#212B6C" stroke-width="2" stroke-miterlimit="10" stroke-linecap="round" stroke-linejoin="round"/>
<path d="M102.289 203.84C102.289 203.84 94.9589 202.857 93.9477 204.466C93.9477 204.466 93.9151 205.93 93.8723 207.255C96.6998 207.638 99.7474 207.279 102.477 206.178C102.283 205.95 102.181 205.654 102.2 205.351L102.289 203.84Z" fill="#25293D"/>
<path d="M69.0407 204.853L68.5352 209.609C71.0793 210.891 73.9597 210.341 76.8035 209.479C76.7546 208.875 76.881 207.962 77.1195 206.557C77.5354 204.103 70.2883 200.9 69.0407 204.853Z" fill="#25293D"/>
<path d="M86.7027 108.572C81.692 113.705 85.8465 123.358 87.5569 129.225C87.8321 130.167 88.1623 131.453 88.5272 132.949C90.4231 140.761 93.1792 154.275 93.1792 154.275C92.323 163.685 93.2281 204.472 93.2281 204.472C93.2281 204.472 93.9212 206.101 97.7904 205.978C101.66 205.856 102.516 204.39 102.516 204.39C102.516 204.39 107.231 160.873 107.843 148.654C108.452 136.433 106.132 109.836 106.132 109.836C104.297 104.377 91.7115 103.441 86.7027 108.572Z" fill="#212B6C"/>
<path d="M93.1792 154.275L93.8478 127.268L88.5272 132.949C90.4231 140.761 93.1792 154.275 93.1792 154.275Z" fill="#25293D"/>
<path d="M86.7027 108.572C83.9201 111.422 83.9649 115.666 84.8476 119.882C91.7379 121.173 98.8688 121.191 105.517 119.411C105.957 119.285 106.401 119.159 106.846 119.032C106.466 113.64 106.134 109.834 106.134 109.834C104.297 104.377 91.7114 103.439 86.7027 108.572Z" fill="#25293D"/>
<path d="M71.9742 106.25C71.9742 106.25 70.8346 112.686 71.9742 122.991C72.5246 127.971 75.03 152.685 75.03 152.685C75.03 152.685 70.6043 178.289 68.2212 206.433C68.1927 206.771 68.3578 207.1 68.6513 207.269C69.3342 207.664 70.7694 208.323 73.0444 208.543C75.5742 208.79 76.8565 207.995 77.3294 207.593C77.4681 207.475 77.5639 207.316 77.6087 207.138C78.4649 203.689 89.1367 158.91 90.3048 154.909C91.5259 150.726 93.8478 127.264 93.8478 127.264C93.8478 127.264 95.7906 126.467 96.1697 122.253C96.5754 117.746 97.0769 110.071 95.6458 106.752C94.2148 103.437 74.9076 101.851 71.9742 106.25Z" fill="#212B6C"/>
<path d="M71.9742 106.25C71.9742 106.25 71.3565 109.747 71.487 115.709C79.1112 119.091 87.8198 121.095 96.2961 120.769C96.657 116.213 96.9301 109.734 95.6458 106.758C94.2148 103.437 74.9077 101.851 71.9742 106.25Z" fill="#25293D"/>
<path d="M90.3049 154.913C91.526 150.73 93.8479 127.268 93.8479 127.268C93.8479 127.268 95.7906 126.471 96.1698 122.257" stroke="#32449E" stroke-miterlimit="10" stroke-linecap="round" stroke-linejoin="round"/>
<path d="M79.368 112.727C79.368 112.727 78.8176 118.225 73.9903 120.791" stroke="#32449E" stroke-width="2" stroke-miterlimit="10" stroke-linecap="round" stroke-linejoin="round"/>
<path d="M90.2976 153.63C90.6808 150.59 88.812 147.852 86.1235 147.513C83.435 147.174 80.9448 149.363 80.5615 152.402C80.1783 155.441 82.0471 158.18 84.7357 158.519C87.4242 158.858 89.9144 156.669 90.2976 153.63Z" stroke="#32449E" stroke-miterlimit="10" stroke-linecap="round" stroke-linejoin="round"/>
<path d="M106.874 157.404C106.165 158.044 105.294 158.421 104.355 158.421C101.963 158.421 100.025 155.981 100.025 152.97C100.025 149.959 101.963 147.519 104.355 147.519C105.698 147.519 106.901 148.289 107.694 149.5" stroke="#32449E" stroke-miterlimit="10" stroke-linecap="round" stroke-linejoin="round"/>
<path d="M157.763 63.4164C158.596 62.3094 157.913 62.2524 157.913 62.2524C158.178 61.8508 158.026 61.1271 157.312 61.4268C156.599 61.7264 152.169 64.3174 152.169 64.3174C152.169 64.3174 155.622 60.8641 155.698 60.4136C155.773 59.9631 155.322 59.7755 154.909 60.0426C154.495 60.3096 150.14 63.4164 150.14 63.4164C150.14 63.4164 147.81 64.0055 147.735 63.7426C147.66 63.4796 148.035 62.6173 148.11 61.4145C148.185 60.2118 147.435 59.537 147.246 59.8387C147.058 60.1384 146.194 62.6907 145.894 63.2166C145.594 63.7426 144.506 65.2062 144.355 65.618C144.204 66.0318 143.436 69.106 143.436 69.106C142.367 72.8834 146.308 73.6499 146.308 73.6499L149.462 71.9987L151.402 70.8836C152.083 70.4473 152.468 70.27 152.925 69.85C153.775 69.0672 154.878 68.2009 156.336 66.6047C158.539 64.187 158.307 63.8689 157.911 63.8689C157.516 63.8689 156.917 64.4275 156.917 64.4275C156.917 64.4275 157.194 64.1727 157.763 63.4164Z" fill="#DECDD1"/>
<path d="M146.51 70.7409C145.698 69.2976 144.52 68.8858 143.89 68.7696C143.64 68.7227 143.383 68.7717 143.169 68.9082C142.71 69.2018 142.194 69.4097 141.318 69.7604C141.632 69.8399 143.354 70.3413 144.31 71.8723C145.482 73.7457 145.248 75.1666 145.228 75.2808C145.684 74.9648 146.074 74.6896 146.394 74.4572C146.913 74.0801 147.183 73.4481 147.101 72.81C147.017 72.1638 146.85 71.3463 146.51 70.7409Z" fill="white"/>
<path d="M141.318 69.7604C140.123 70.2415 138.26 70.9856 134.957 72.5675C128.236 75.7884 120.904 78.0226 120.904 78.0226C115.895 67.147 113.039 62.4644 113.039 62.4644C108.289 57.7819 102.561 69.3669 106.279 75.3542C108.695 79.2417 113.285 84.016 116.209 86.8863C117.84 88.4886 120.249 88.9941 122.388 88.1889C125.802 86.9066 131.007 84.7478 134.743 82.2812C139.479 79.154 143.085 76.7648 145.228 75.2808C145.248 75.1666 145.482 73.7457 144.31 71.8723C143.354 70.3414 141.632 69.8399 141.318 69.7604Z" fill="#2B3482"/>
<path d="M108.697 78.7157C109.932 80.263 111.318 81.8245 112.664 83.2597C112.764 77.9818 113.404 72.704 112.649 67.4262C112.287 71.5971 110.635 75.1197 108.697 78.7157Z" fill="#25293D"/>
<path d="M147.731 63.5978C147.731 63.5978 147.651 64.3358 147.737 64.4683C147.804 64.5702 149.301 65.7505 148.934 67.9297" stroke="#212B6C" stroke-width="0.5" stroke-miterlimit="10" stroke-linecap="round" stroke-linejoin="round"/>
<path d="M151.247 63.873C151.247 63.873 153.088 66.04 153.822 68.2049" stroke="#212B6C" stroke-width="0.5" stroke-miterlimit="10" stroke-linecap="round" stroke-linejoin="round"/>
<path d="M157.913 62.2524C157.913 62.2524 157.752 62.0852 156.89 62.7661C155.653 63.7446 152.929 65.6772 152.929 65.6772" stroke="#212B6C" stroke-width="0.5" stroke-miterlimit="10" stroke-linecap="round" stroke-linejoin="round"/>
<path d="M156.919 64.4296C156.919 64.4296 154.915 66.1093 153.977 66.9227" stroke="#212B6C" stroke-width="0.5" stroke-miterlimit="10" stroke-linecap="round" stroke-linejoin="round"/>
<path d="M120.904 78.0226C120.904 78.0226 119.927 78.6546 119.666 79.2213" stroke="#32449E" stroke-width="0.5" stroke-miterlimit="10" stroke-linecap="round" stroke-linejoin="round"/>
<path d="M113.775 49.8947C113.693 49.8865 113.61 49.8824 113.528 49.8763C113.652 49.915 113.775 49.8947 113.775 49.8947Z" fill="#212B6C"/>
<path d="M117.224 39.6958C117.986 36.799 117.108 35.4434 113.002 34.9215C110.313 34.579 107.655 33.9817 105.472 33.4435C101.015 32.3448 96.1861 35.0377 95.6173 38.4013C95.6173 38.4013 93.8111 40.3644 93.8478 42.1237C93.9987 49.3932 97.5967 52.1941 97.6824 54.7036C97.768 57.2131 98.2022 57.7981 101.022 56.3304C103.794 54.8871 108.741 49.544 113.526 49.8783C113.298 49.807 113.061 49.5359 113.555 48.5553C113.915 47.8378 117.112 47.1406 117.703 43.938C118.192 41.3001 116.881 40.9943 117.224 39.6958Z" fill="#212B6C"/>
<path d="M115.936 86.6171C115.936 86.6171 116.979 85.4919 119.536 85.7202C122.092 85.9485 122.812 87.8709 122.812 87.8709" stroke="#212B6C" stroke-width="2" stroke-miterlimit="10" stroke-linecap="round" stroke-linejoin="round"/>
<path d="M100.406 57.0438C100.406 57.0438 94.9466 55.6617 88.3478 58.1875C81.7511 60.7112 79.2253 70.2435 77.2703 77.9818C75.3154 85.7222 70.7408 102.534 70.7408 112.727C70.7408 112.727 74.8709 118.288 94.2718 118.822L95.5276 115.764L96.5265 118.822C96.5265 118.822 105.841 118.822 107.592 115.293C107.592 115.293 107.31 111.041 106.744 106.032C106.674 105.419 106.575 104.803 106.54 104.187C106.432 102.298 105.861 97.6966 105.83 95.8905C105.749 91.002 107.421 87.0044 107.757 86.3501C108.45 85.0046 113.948 76.4121 114.274 68.3476C114.602 60.2811 109.612 58.5891 100.406 57.0438Z" fill="#212B6C"/>
<path d="M103.078 65.62C100.799 64.8841 96.5897 68.0439 96.5897 68.0439C96.5897 68.0439 97.0647 75.1319 98.1227 78.3895C99.1828 81.6471 99.0543 86.6844 99.0543 86.6844C99.0543 86.6844 101.87 81.5676 104.191 78.0634C106.513 74.5611 106.554 69.5911 106.554 69.5911C106.554 69.5911 106.907 68.3048 106.328 67.1938C105.751 66.0808 103.078 65.62 103.078 65.62Z" fill="white"/>
<path d="M97.6701 69C97.6701 69 96.2533 61.9731 96.7202 59.9977C97.187 58.0224 98.5039 57.2885 98.5039 57.2885L98.7852 56.3569C98.7852 56.3569 96.9729 56.7687 95.6825 57.6738C94.0965 58.7868 92.3944 60.6908 91.6421 61.5735C91.4118 61.8426 91.4097 62.2381 91.638 62.5092C92.2822 63.2778 93.5543 64.8719 94.176 66.2051L92.1436 68.5026C91.9561 68.7146 91.9092 69.0163 92.0233 69.2772C92.959 71.3769 97.0973 80.8868 98.7832 88.7719C98.7832 88.7719 99.7739 81.6838 99.5599 78.1408C99.3458 74.5978 97.6701 69 97.6701 69Z" fill="#2B3482"/>
<path d="M99.5599 51.5031C99.5599 51.5031 99.1012 55.5374 98.1248 58.4688C98.1248 58.4688 98.4305 64.8841 102.769 66.2275C107.107 67.5709 106.487 60.9721 106.487 60.9721L108.032 52.9953C108.034 52.9994 103.472 50.0985 99.5599 51.5031Z" fill="#DECDD1"/>
<path d="M100.62 54.3815C100.149 58.2996 103.853 62.2707 106.609 62.2707C106.85 60.9456 106.489 60.9762 106.489 60.9762L106.787 59.4432C104.244 58.5075 102.149 56.5872 100.62 54.3815Z" fill="#1F296F"/>
<path d="M103.078 65.6201C101.362 65.5406 100.506 65.934 100.663 66.4824L101.262 68.5739L103.829 68.7778L104.856 66.6516C104.856 66.6495 104.795 65.6996 103.078 65.6201Z" fill="#8249CB"/>
<path d="M101.262 68.5719L98.7832 76.4325L99.1379 85.9098L104.196 77.6129L103.829 68.7737C103.829 68.7757 102.728 67.9623 101.262 68.5719Z" fill="#A36BEB"/>
<path d="M108.034 57.8593C107.313 56.5301 105.131 56.7992 106.489 58.8378C107.847 60.8743 106.558 69.5911 106.558 69.5911C103.91 77.2479 99.2582 84.7355 99.2582 84.7355C99.2011 85.3226 98.7832 89.306 98.7832 89.306C104.377 79.6861 109.479 72.8304 110.727 71.1914C110.904 70.957 110.923 70.643 110.776 70.3882C110.089 69.2079 109.123 67.7585 109.123 67.7585C109.732 66.9145 110.953 65.567 111.49 64.9861C111.653 64.8087 111.72 64.56 111.661 64.3276C110.662 60.4421 108.034 57.8593 108.034 57.8593Z" fill="#2B3482"/>
<path d="M98.7832 89.306C98.7832 89.306 98.5039 92.5004 98.086 95.8885C97.1972 103.099 96.0883 112.062 95.5276 115.764" stroke="#32449E" stroke-width="2" stroke-miterlimit="10" stroke-linecap="round" stroke-linejoin="round"/>
<path d="M105.433 104.369C105.133 104.401 104.919 104.62 104.938 104.866L105.015 105.839C105.035 106.122 105.357 106.326 105.7 106.271C106.038 106.218 106.444 106.138 106.746 106.03C106.676 105.417 106.607 104.799 106.542 104.185C106.246 104.247 105.826 104.324 105.433 104.369Z" fill="#2B3482"/>
<path d="M98.3327 57.8287L98.5019 57.2885C98.5019 57.2885 96.1698 57.6146 96.0475 61.1577C95.9517 63.924 97.132 67.5118 97.6518 68.951C97.7476 69.2181 98.1064 69.267 98.2695 69.0346C101.022 65.1512 103.078 65.618 103.078 65.618C98.1961 62.1973 98.3327 57.8287 98.3327 57.8287Z" fill="white"/>
<path d="M106.964 58.5157L106.487 60.9762C105.258 64.8862 103.078 65.62 103.078 65.62C104.65 65.9034 105.669 67.5648 106.175 68.6473C106.316 68.947 106.752 68.9082 106.835 68.5882C107.294 66.833 108.114 63.1534 107.681 60.6154C107.363 58.7318 106.964 58.5157 106.964 58.5157Z" fill="white"/>
<path d="M114.859 42.3418C115.471 38.7744 113.033 38.5807 109.062 37.6165C104.768 36.5748 99.3968 38.9905 98.0636 43.4304C96.7304 47.8704 99.3397 51.1729 99.3397 51.1729C99.6537 53.4071 100.098 59.4616 106.776 60.1751C111.096 60.6358 113.018 56.6525 113.565 52.7854C114.042 49.4177 114.845 47.3567 115.061 46.3863C115.556 44.1766 114.784 42.7801 114.859 42.3418Z" fill="#DECDD1"/>
<path d="M105.983 35.1865C98.9993 35.3292 95.8314 41.5081 96.5673 44.8187C97.3053 48.1273 98.3816 47.108 99.6496 48.4921C100.918 49.8763 101.448 48.5472 102.116 46.5515C102.122 46.5311 102.131 46.5107 102.137 46.4923C102.626 45.0409 104.285 44.3498 105.657 45.0327C106.42 45.4119 107.443 45.7279 108.811 45.8624C114.011 46.37 116.859 43.7077 116.859 43.7077C117.501 40.4908 112.965 35.0438 105.983 35.1865Z" fill="#212B6C"/>
<path d="M98.1207 46.425C96.4307 46.1111 96.8914 50.3268 97.8985 51.6233C98.9055 52.9219 100.192 51.817 100.192 51.817L100.082 49.3137C100.082 49.3137 99.8126 46.739 98.1207 46.425Z" fill="#DECDD1"/>
<path d="M106.548 48.1456C106.218 48.4371 106.187 48.9406 106.479 49.2688C106.77 49.5991 107.274 49.6296 107.602 49.3381C107.93 49.0466 107.963 48.5431 107.671 48.2149C107.382 47.8846 106.878 47.8541 106.548 48.1456Z" fill="#1F2970"/>
<path d="M110.629 53.6843C112.062 53.3684 112.629 52.4347 112.174 51.7334C111.922 51.342 111.779 50.8895 111.83 50.4267L111.832 50.4104" stroke="#1F296F" stroke-miterlimit="10" stroke-linecap="round" stroke-linejoin="round"/>
<path d="M109.363 55.6841C108.034 55.7718 106.458 55.6964 105.832 54.4997C105.832 54.4997 105.951 55.8778 107.416 56.1815C108.625 56.4323 108.805 55.7065 108.805 55.7065" stroke="#1F296F" stroke-miterlimit="10" stroke-linecap="round" stroke-linejoin="round"/>
<path d="M113.385 48.6308C113.002 48.5839 112.649 48.8795 112.598 49.2913C112.547 49.7031 112.817 50.0781 113.2 50.125C113.583 50.1719 113.936 49.8763 113.987 49.4645C114.038 49.0507 113.769 48.6777 113.385 48.6308Z" fill="#1F2970"/>
<path d="M108.244 45.6056C107.512 45.2814 106.153 45.0592 104.795 45.9093C102.942 47.0733 106.929 46.3986 107.765 46.9592C108.603 47.5198 109.141 46.0031 108.244 45.6056Z" fill="#1F296F"/>
<path d="M112.941 46.3272C112.452 46.5718 112.156 47.7888 112.859 47.5401C113.563 47.2914 114.998 48.0701 114.392 46.8674C114.227 46.5351 113.477 46.0581 112.941 46.3272Z" fill="#1F296F"/>
<path d="M106.644 52.2737C108.456 52.2737 109.926 50.7166 109.926 48.7959C109.926 46.8752 108.456 45.3181 106.644 45.3181C104.831 45.3181 103.362 46.8752 103.362 48.7959C103.362 50.7166 104.831 52.2737 106.644 52.2737Z" stroke="#1F296F" stroke-width="0.5" stroke-miterlimit="10" stroke-linecap="round" stroke-linejoin="round"/>
<path d="M116.039 49.3538C116.287 47.5582 115.575 45.9765 114.448 45.8211C113.322 45.6657 112.208 46.9953 111.96 48.7909C111.712 50.5865 112.425 52.1681 113.551 52.3235C114.677 52.479 115.792 51.1494 116.039 49.3538Z" stroke="#1F296F" stroke-width="0.5" stroke-miterlimit="10" stroke-linecap="round" stroke-linejoin="round"/>
<path d="M111.934 49.0731C111.934 49.0731 111.628 47.8276 109.924 48.7939" stroke="#1F296F" stroke-width="0.5" stroke-miterlimit="10" stroke-linecap="round" stroke-linejoin="round"/>
<path d="M103.362 48.0437L99.5599 47.5728" stroke="#1F296F" stroke-width="0.5" stroke-miterlimit="10" stroke-linecap="round" stroke-linejoin="round"/>
<path d="M89.8584 88.5864C92.1824 92.6125 97.0117 94.4574 101.429 93.006L107.416 91.0387L82.2159 75.3541L89.8584 88.5864Z" fill="#25293D"/>
<path d="M135.701 86.0545C135.391 86.0137 135.078 85.9689 134.753 85.92C134.46 86.1034 133.098 87.0636 132.827 89.1837C132.554 91.3221 133.618 92.6655 133.854 92.9346C134.301 92.9407 134.713 92.9468 135.08 92.9509C136.129 92.9652 137.049 92.2476 137.293 91.2263C137.552 90.1459 137.646 89.1409 137.664 88.3254C137.691 87.1777 136.839 86.2013 135.701 86.0545Z" fill="white"/>
<path d="M104.856 80.9153C102.544 78.0838 97.6294 71.275 93.6868 65.7403C92.1966 63.6467 89.887 62.5908 87.5732 62.5908C85.3919 62.5908 83.2046 63.5305 81.6981 65.4284C79.3395 68.3945 79.5617 72.651 82.2159 75.3541C87.1492 80.3792 93.2363 86.1218 96.7324 89.3773C98.5977 91.1142 101.011 92.1436 103.557 92.2843C105.449 92.3883 108.028 92.4984 111.322 92.5656C117.397 92.6879 128.379 92.8592 133.854 92.9346C133.618 92.6655 132.554 91.3221 132.827 89.1837C133.098 87.0636 134.46 86.1034 134.753 85.9199C132.476 85.5754 129.72 85.0128 124.601 84.336C115.966 83.1964 104.856 80.9153 104.856 80.9153Z" fill="#2B3482"/>
<path d="M145.046 87.6344C144.475 87.349 143.295 86.4948 143.295 86.4948C145.739 84.866 145.331 83.8875 144.842 84.1321C144.353 84.3768 142.284 84.8089 141.218 85.3532C139.872 86.0423 137.677 86.4948 136.878 86.6436C136.668 86.6824 136.47 86.7802 136.319 86.9331C134.737 88.5293 135.218 90.7737 135.536 91.7522C135.634 92.0519 135.854 92.2945 136.146 92.4168L138.447 93.379C138.447 93.379 143.452 95.7967 143.982 95.8783C144.512 95.9598 145.535 95.4971 145.535 95.4971C145.535 95.4971 146.879 95.4767 147.15 95.2524C147.413 95.0343 148.589 94.1577 148.589 94.1577L149.213 94.4513C149.404 94.541 149.633 94.5451 149.818 94.4452C150.112 94.2862 150.387 93.9865 150.22 93.7052C149.975 93.2975 145.617 87.9198 145.046 87.6344Z" fill="#DECDD1"/>
<path d="M148.589 94.1577L146.167 92.4005L144.634 90.9429" stroke="#212B6C" stroke-width="0.5" stroke-miterlimit="10" stroke-linecap="round" stroke-linejoin="round"/>
<path d="M147.617 94.8896L145.711 94.1292C145.513 94.0497 145.327 93.9478 145.156 93.8234L143.46 92.5248" stroke="#212B6C" stroke-width="0.5" stroke-miterlimit="10" stroke-linecap="round" stroke-linejoin="round"/>
<path d="M145.535 95.4971L144.763 95.3177C144.518 95.2606 144.286 95.1689 144.068 95.0445L142.296 94.0721" stroke="#212B6C" stroke-width="0.5" stroke-miterlimit="10" stroke-linecap="round" stroke-linejoin="round"/>
<path d="M96.0882 88.7759C96.0882 88.7759 98.192 87.1696 101.627 88.2418C105.441 89.4324 105.832 92.3312 105.832 92.3312" stroke="#32449E" stroke-width="0.5" stroke-miterlimit="10" stroke-linecap="round" stroke-linejoin="round"/>
<path d="M109.123 67.7585L107.482 65.6099" stroke="#212B6C" stroke-width="2" stroke-miterlimit="10" stroke-linecap="round" stroke-linejoin="round"/>
<path d="M94.174 66.2092L96.29 64.0055" stroke="#212B6C" stroke-width="2" stroke-miterlimit="10" stroke-linecap="round" stroke-linejoin="round"/>
<path d="M86.3786 100.869L81.0478 99.5986C80.7746 99.5334 80.4994 99.7067 80.4403 99.9819L79.7309 103.248C79.7309 103.248 83.9242 105.494 86.0219 104.436L86.7517 101.478C86.8169 101.209 86.6497 100.934 86.3786 100.869Z" fill="white"/>
<path d="M87.1736 104.271C82.8295 103.855 79.4292 102.601 78.1734 102.084C77.886 101.965 77.5598 102.112 77.4599 102.406L77.1154 103.413C77.0278 103.67 77.146 103.951 77.3906 104.071C80.7991 105.743 85.4184 106.214 86.9086 106.326C87.1838 106.346 87.4285 106.155 87.4774 105.883L87.6507 104.897C87.7037 104.589 87.4835 104.3 87.1736 104.271Z" fill="#2B3482"/>
<path d="M99.9595 97.874C99.67 97.874 99.4355 98.1085 99.4355 98.3979C99.4355 98.6874 99.67 98.9218 99.9595 98.9218C100.249 98.9218 100.483 98.6874 100.483 98.3979C100.483 98.1085 100.249 97.874 99.9595 97.874Z" fill="#32449E"/>
<path d="M98.9116 107.188C98.6221 107.188 98.3877 107.423 98.3877 107.712C98.3877 108.002 98.6221 108.236 98.9116 108.236C99.2011 108.236 99.4355 108.002 99.4355 107.712C99.4355 107.423 99.2011 107.188 98.9116 107.188Z" fill="#32449E"/>
<path d="M197.898 60.9293C197.898 60.9293 191.401 67.7177 182.439 79.5311C182.439 79.5311 166.867 83.3269 153.512 86.1646C153.098 86.2522 152.754 86.5335 152.593 86.9249C152.348 87.5181 152.067 88.4946 152.175 89.6933C152.256 90.5821 152.456 91.2385 152.654 91.6931C152.874 92.1966 153.386 92.5065 153.932 92.4657C157.765 92.1803 174.599 90.9266 178.815 90.5474C180.908 90.3599 182.729 90.1132 184.115 89.8951C185.921 89.6117 187.611 88.831 189.003 87.6466C192.51 84.6642 199.496 78.6097 201.971 75.6395C205.33 71.6073 204.211 56.2366 197.898 60.9293Z" fill="black"/>
<path d="M145.762 88.3152C145.762 88.3152 147.517 91.4933 147.617 91.9826C147.717 92.4718 149.902 93.273 149.902 93.273C149.902 93.273 150.96 92.8184 152.024 92.5228C152.634 92.3536 153.127 92.1905 153.435 92.0825C153.659 92.005 153.82 91.8073 153.853 91.5708C153.991 90.5515 154.264 87.7628 153.317 86.6151C153.317 86.6171 147.505 87.4896 145.762 88.3152Z" fill="#DECDD1"/>
<path d="M155.235 85.7956C155.235 85.7956 156.34 87.1655 156.274 89.253C156.197 91.6666 155.343 92.372 155.343 92.372" stroke="white" stroke-width="0.5" stroke-miterlimit="10" stroke-linecap="round" stroke-linejoin="round"/>
<path d="M182.606 90.1173C182.606 90.1173 182.392 87.9666 185.175 87.0595C187.917 86.1666 189.25 87.4366 189.25 87.4366" stroke="#3862F8" stroke-width="0.5" stroke-miterlimit="10" stroke-linecap="round" stroke-linejoin="round"/>
<path d="M147.47 84.5297C146.981 84.2239 144.842 85.1412 144.172 85.447C143.499 85.7528 142.278 87.1573 141.574 87.7689C140.871 88.3805 142.033 88.5945 143.01 88.2276C143.986 87.8606 144.634 87.402 144.634 87.402C144.634 87.402 146.135 88.9309 147.337 88.9003C148.54 88.8697 152.695 88.2582 152.695 88.2582L153.316 86.6192L150.801 86.4255C150.801 86.4235 147.959 84.8354 147.47 84.5297Z" fill="#DECDD1"/>
<path d="M147.47 84.5297C146.981 84.2239 144.842 85.1412 144.172 85.447C143.499 85.7528 142.278 87.1573 141.574 87.7689" stroke="#212B6C" stroke-width="0.5" stroke-miterlimit="10" stroke-linecap="round" stroke-linejoin="round"/>
<path d="M141.574 87.7669C140.871 88.3784 142.033 88.5925 143.01 88.2255C143.988 87.8586 144.634 87.3999 144.634 87.3999C144.634 87.3999 146.135 88.9288 147.337 88.8983" stroke="#212B6C" stroke-width="0.5" stroke-miterlimit="10" stroke-linecap="round" stroke-linejoin="round"/>
<path d="M145.762 88.3152C147.17 89.8401 150.024 93.377 150.22 93.7031C150.387 93.9824 150.114 94.2821 149.818 94.4431" stroke="#212B6C" stroke-width="0.5" stroke-miterlimit="10" stroke-linecap="round" stroke-linejoin="round"/>
<path d="M240.051 213.46C236.381 212.528 233.291 214.557 232.557 213.58C231.825 212.602 229.952 210.321 229.666 209.75C229.481 209.379 229.122 206.431 228.898 204.429C228.117 204.857 227.353 205.546 226.692 206.614C226.692 206.614 226.896 208.202 226.855 209.424C226.814 210.647 226.488 214.19 226.692 214.353C226.896 214.516 227.793 214.679 228.362 214.679C228.932 214.679 229.422 214.964 230.072 216.919C230.724 218.874 231.744 219.812 233.454 219.975C235.164 220.138 242.212 219.853 243.31 219.69C244.411 219.527 244.76 218.489 244.676 218.061C244.562 217.478 241.906 215.254 240.051 213.46Z" fill="#212B6C"/>
<path d="M238.83 212.194C236.265 209.181 234.528 207.306 234.398 206.981C234.269 206.655 234.066 204.333 234.066 204.333C234.066 204.333 231.395 203.057 228.898 204.429C229.122 206.431 229.481 209.379 229.666 209.75C229.952 210.321 231.825 212.602 232.557 213.58C233.291 214.557 236.381 212.528 240.051 213.46C239.572 212.997 239.146 212.563 238.83 212.194Z" fill="white" stroke="#212B6C" stroke-width="2" stroke-miterlimit="10" stroke-linecap="round" stroke-linejoin="round"/>
<path d="M234.066 204.333C234.066 204.333 231.395 203.057 228.898 204.429C228.117 204.857 227.353 205.546 226.692 206.614C226.692 206.614 226.751 207.077 226.8 207.693C229.507 208.482 232.19 208.27 234.441 207.059C234.42 207.028 234.406 207.002 234.398 206.981C234.269 206.655 234.066 204.333 234.066 204.333Z" fill="#25293D"/>
<path d="M205.634 201.956C205.634 201.956 204.152 201.628 202.407 201.632C202.374 202.78 202.228 207.573 202.144 208.229C202.048 208.977 199.671 210.251 198.489 211.266C197.918 211.756 195.698 209.75 191.988 210.28C189.584 212.439 185.715 214.679 185.348 215.576C184.981 216.471 186.286 217.449 186.775 217.572C187.263 217.694 190.848 218.14 193.984 218.344C197.121 218.548 198.546 217.653 199.851 216.185C201.153 214.72 201.724 214.434 201.724 214.434C201.724 214.434 203.447 213.596 204.574 213.336C205.338 213.158 205.732 212.822 205.93 212.561C206.06 212.39 206.121 212.176 206.113 211.96C206.07 210.965 205.903 207.126 205.797 206.207C205.675 205.147 205.634 201.956 205.634 201.956Z" fill="#212B6C"/>
<path d="M197.243 203.885V205.351C197.243 205.351 194.391 208.121 191.988 210.28C195.698 209.75 197.918 211.756 198.489 211.266C199.671 210.251 202.048 208.977 202.144 208.229C202.227 207.573 202.374 202.78 202.407 201.632C200.427 201.636 198.11 202.066 197.243 203.885Z" fill="white" stroke="#212B6C" stroke-width="2" stroke-miterlimit="10" stroke-linecap="round" stroke-linejoin="round"/>
<path d="M202.407 201.632C200.427 201.636 198.11 202.066 197.243 203.885V205.351C197.243 205.351 197.115 205.477 196.888 205.693C199.628 207.179 202.794 206.92 205.791 206.162C205.673 205.061 205.632 201.956 205.632 201.956C205.632 201.956 204.152 201.628 202.407 201.632Z" fill="#25293D"/>
<path d="M189.813 105.396C189.813 105.396 187.436 118.231 189.389 144.791C189.389 144.791 193.804 188.202 197.029 204.315C197.115 204.747 197.388 205.12 197.783 205.316C198.413 205.628 199.573 205.956 201.541 205.781C203.942 205.567 205.141 204.447 205.64 203.801C205.834 203.551 205.94 203.245 205.946 202.929C206.003 199.661 205.228 172.909 205.452 164.661C205.658 157.141 204.757 149.949 204.812 146.367C204.823 145.7 204.865 145.158 204.955 144.763C204.955 144.763 208.174 133.463 209.872 124.972C210.343 122.608 210.698 120.461 210.83 118.836C211.442 111.384 199.71 99.6516 189.813 105.396Z" fill="#3B7BED"/>
<path d="M201.983 123.04L204.672 146.483L204.812 146.367C204.823 145.7 204.865 145.158 204.955 144.763C204.955 144.763 208.174 133.463 209.872 124.973C207.365 125.384 204.505 125.113 201.983 123.04Z" fill="#2351A5"/>
<path d="M189.813 105.394C189.813 105.394 189.497 107.107 189.189 110.57C195.241 114.523 202.776 115.744 209.921 114.235C207.014 107.531 197.814 100.75 189.813 105.394Z" fill="#2351A5"/>
<path d="M226.056 151.512C225.322 147.236 223.357 122.351 222.635 114.853C221.914 107.355 218.848 101.044 218.848 101.044C218.848 101.044 203.084 101.492 200.884 107.745C200.884 107.745 201.251 119.984 201.985 123.04C202.719 126.096 204.307 126.95 204.674 128.173C205.041 129.394 211.15 150.658 212.006 153.1C212.006 153.1 216.65 173.508 219.217 183.039C221.367 191.026 225.192 203.779 225.999 206.156C226.166 206.649 226.574 207.016 227.079 207.138C227.997 207.359 229.591 207.536 231.497 206.867C232.683 206.451 233.393 206.023 233.817 205.673C234.22 205.338 234.416 204.816 234.341 204.299C233.554 198.947 226.739 155.492 226.056 151.512Z" fill="#3B7BED"/>
<path d="M225.104 142.844C219.818 142.506 214.524 142.751 209.248 143.925C210.533 148.312 211.67 152.144 212.004 153.1C212.004 153.1 212.025 153.19 212.063 153.357C216.991 153.584 221.991 154.336 226.743 155.914C226.411 153.724 226.168 152.159 226.058 151.51C225.832 150.2 225.489 146.942 225.104 142.844Z" fill="#2351A5"/>
<path d="M200.884 107.745C200.884 107.745 200.984 111.094 201.186 114.725C204.547 115.053 207.988 114.782 211.317 113.905C214.956 112.886 218.389 111.349 221.983 110.625C220.831 105.127 218.848 101.042 218.848 101.042C218.848 101.042 203.084 101.492 200.884 107.745Z" fill="#2351A5"/>
<path d="M201.306 116.745C201.479 119.387 201.706 121.878 201.983 123.04C202.717 126.096 204.305 126.95 204.672 128.173" stroke="#32449E" stroke-miterlimit="10" stroke-linecap="round" stroke-linejoin="round"/>
<path d="M195.025 157.135C197.723 157.135 199.91 154.75 199.91 151.808C199.91 148.866 197.723 146.481 195.025 146.481C192.328 146.481 190.141 148.866 190.141 151.808C190.141 154.75 192.328 157.135 195.025 157.135Z" stroke="#32449E" stroke-miterlimit="10" stroke-linecap="round" stroke-linejoin="round"/>
<path d="M219.205 157.089C221.883 156.761 223.763 154.127 223.406 151.207C223.048 148.287 220.587 146.186 217.91 146.514C215.232 146.842 213.351 149.475 213.709 152.395C214.067 155.315 216.528 157.417 219.205 157.089Z" stroke="#32449E" stroke-miterlimit="10" stroke-linecap="round" stroke-linejoin="round"/>
<path d="M214.434 58.6543C208.885 58.2466 204.615 58.6013 202.107 58.9458C199.71 59.2741 197.582 60.697 196.422 62.8211C193.372 68.4068 194.344 77.3703 194.149 80.1019C193.904 83.5226 192.744 91.5892 192.744 91.5892C189.629 99.3214 188.824 107.557 188.755 108.837C188.746 109.007 188.814 109.17 188.94 109.28C192.85 112.637 202.704 115.487 210.272 112.164C215.655 109.8 219.101 108.291 220.684 107.598C221.286 107.335 221.604 106.672 221.433 106.04C220.733 103.482 219.137 98.7914 219.137 97.3338C219.137 95.6235 219.749 92.69 222.558 85.237C225.369 77.7821 227.507 66.1134 226.468 64.2807C225.432 62.442 223.6 59.3271 214.434 58.6543Z" fill="#3862F8"/>
<path d="M193.794 83.6266C193.953 82.2791 194.086 81.0213 194.151 80.0979C194.285 78.2203 193.867 73.3971 194.583 68.7492" stroke="#212B6C" stroke-width="2" stroke-miterlimit="10" stroke-linecap="round" stroke-linejoin="round"/>
<path d="M221.074 104.787C212.991 107.392 209.746 110.929 201.938 110.904C194.293 110.88 190.067 107.327 189.018 106.314C188.85 107.586 188.775 108.479 188.757 108.835C188.746 109.002 188.814 109.168 188.942 109.278C192.852 112.635 202.707 115.485 210.274 112.162C215.659 109.798 219.103 108.289 220.687 107.594C221.288 107.331 221.608 106.668 221.435 106.036C221.331 105.661 221.208 105.239 221.074 104.787Z" fill="white"/>
<path d="M216.251 35.9693C213.988 34.6402 209.672 33.2519 205.601 33.3049C201.993 33.3518 203.204 35.315 203.204 35.315C203.204 35.315 200.833 34.8502 200.24 36.9682C199.804 38.5257 201.402 40.9515 201.402 40.9515C201.402 40.9515 200.232 42.5233 201.799 46.0337C202.884 48.4616 213.535 57.6453 213.535 57.6453C213.535 57.6453 215.878 55.411 218.063 52.8771C220.246 50.3432 222.191 46.7533 222.213 44.097C222.238 41.3531 218.619 37.3596 216.251 35.9693Z" fill="#212B6C"/>
<path d="M215.392 58.5932C215.229 58.532 208.71 57.8695 206.064 58.2976C206.064 58.2976 203.781 58.4668 203.296 58.7991C202.613 59.2659 199.987 66.2377 205.118 67.6056C210.2 68.9592 214.477 64.6212 215.29 61.8936C216.104 59.164 215.555 58.6543 215.392 58.5932Z" fill="white"/>
<path d="M206.247 51.6275C206.064 52.3613 204.843 59.325 204.843 59.325C204.843 59.325 202.464 64.2461 206.247 64.8842C209.837 65.4896 212.068 62.5296 213.022 60.856C213.364 60.2566 213.588 59.6002 213.705 58.9194C214.373 54.9748 215.288 50.4043 215.288 50.4043C213.766 47.7807 206.431 50.8936 206.247 51.6275Z" fill="#DECDD1"/>
<path d="M205.02 58.3159C204.912 58.9275 204.843 59.325 204.843 59.325C204.843 59.325 204.356 60.3361 204.174 61.5001C207.354 61.3452 210.433 59.9651 211.827 57.0418C209.554 57.1825 207.416 58.8255 205.02 58.3159Z" fill="#212B6C"/>
<path d="M210.881 37.0599C206.831 36.5116 204.49 35.8062 203.763 39.3533C203.673 39.7875 202.446 40.8088 202.101 43.0472C201.95 44.0297 201.948 46.2436 201.167 49.5522C200.27 53.3541 200.611 57.7635 204.802 58.905C211.283 60.6704 213.898 55.1928 215.005 53.2236C215.005 53.2236 218.636 51.0954 219.011 46.476C219.386 41.8546 215.26 37.6511 210.881 37.0599Z" fill="#DECDD1"/>
<path d="M214.106 44.0201C214.143 43.977 214.162 43.9523 214.162 43.9523C214.16 43.9523 214.139 43.9749 214.106 44.0201Z" fill="#212B6C"/>
<path d="M214.634 35.9143C209.458 33.7718 204.443 35.5474 202.366 37.9997C201.565 38.9436 201.561 40.3339 202.366 41.2736C202.366 41.2736 203.593 39.5551 205.773 41.7405C211.089 47.0672 213.707 44.4844 214.106 44.0175C214.139 43.9747 214.161 43.9523 214.161 43.9503C214.161 43.9503 214.143 43.9747 214.106 44.0175C213.894 44.2968 213.17 45.4731 214.104 47.9051C214.86 49.8702 214.01 51.4379 215.696 50.6102C217.382 49.7826 218.012 51.1239 219.904 48.3107C221.791 45.4975 221.088 38.5868 214.634 35.9143Z" fill="#212B6C"/>
<path d="M217.869 49.2444C216.179 48.9223 214.993 51.2218 214.993 51.2218L213.98 53.5151C213.98 53.5151 214.777 55.0114 216.185 54.1695C217.596 53.3235 219.559 49.5665 217.869 49.2444Z" fill="#DECDD1"/>
<path d="M208.121 48.1761C208.184 47.9906 208.315 47.8275 208.5 47.7276C208.887 47.5218 209.371 47.6685 209.576 48.0559C209.68 48.2495 209.695 48.4676 209.636 48.6633" stroke="#1F296F" stroke-miterlimit="10" stroke-linecap="round" stroke-linejoin="round"/>
<path d="M203.412 51.6662C201.911 50.6938 201.934 49.3178 203.208 49.063L203.432 48.1782" stroke="#1F296F" stroke-miterlimit="10" stroke-linecap="round" stroke-linejoin="round"/>
<path d="M204.319 54.1308C205.13 54.2653 206.219 54.1919 207.228 53.3031" stroke="#1F296F" stroke-miterlimit="10" stroke-linecap="round" stroke-linejoin="round"/>
<path d="M202.148 46.688C202.244 46.2844 202.627 46.0275 203.002 46.1172C203.377 46.2069 203.603 46.6065 203.508 47.0121" stroke="#1F296F" stroke-miterlimit="10" stroke-linecap="round" stroke-linejoin="round"/>
<path d="M208.472 44.9328C207.493 44.9899 207.467 46.6004 208.445 46.37C209.424 46.1376 212.924 48.164 211.595 46.4251C210.624 45.151 209.271 44.886 208.472 44.9328Z" fill="#1F296F"/>
<path d="M202.272 43.9604C201.284 44.8757 202.9 44.6474 203.473 45.1285C204.046 45.6076 204.195 44.3641 203.822 43.9645C203.412 43.5242 202.543 43.7097 202.272 43.9604Z" fill="#1F296F"/>
<path d="M218.583 121.478C218.583 121.478 217.225 122.547 216.222 123.34C215.219 124.133 214.426 125.325 213.784 126.487C213.142 127.647 214.12 127.586 215.464 126.487C216.807 125.388 218.397 125.358 219.037 124.043C219.677 122.728 219.058 121.105 218.583 121.478Z" fill="#DECDD1"/>
<path d="M216.412 70.2822C216.528 70.749 216.646 71.2159 216.801 71.644C216.632 70.906 216.452 70.1232 216.261 69.2711C216.291 69.6258 216.279 70.0172 216.412 70.2822Z" fill="#212B6C"/>
<path d="M216.263 69.2711C216.247 69.0774 216.218 68.896 216.147 68.7513C216.185 68.9266 216.224 69.0999 216.263 69.2711Z" fill="#212B6C"/>
<path d="M216.801 71.644C217.659 75.3663 218.31 77.9451 219.298 82.5543C219.502 83.5736 220.191 90.5923 220.34 91.5667C220.854 89.9196 221.569 87.8566 222.56 85.2309C222.994 84.0771 223.414 82.8234 223.808 81.5187C221.777 78.4119 219.05 75.8638 217.227 72.5226C217.054 72.2637 216.917 71.964 216.801 71.644Z" fill="#212B6C"/>
<path d="M201.551 143.283C208.698 144.922 227.974 146.693 227.974 146.693C230.4 139.744 231.252 128.071 231.252 128.071C223.253 127.089 206.533 123.743 206.533 123.743C205.355 137.055 201.551 143.283 201.551 143.283Z" fill="#F7CB71"/>
<path d="M227.974 146.693C228.594 144.92 229.11 142.838 229.536 140.724C222.289 143.099 214.685 144.082 207.022 144.265C215.619 145.558 227.974 146.693 227.974 146.693Z" fill="#E9B371"/>
<path d="M219.926 118.239C219.926 118.239 219.253 120.602 219.131 120.765C219.009 120.928 217.217 123.005 216.483 125.776C215.749 128.546 213.631 133.962 213.59 134.493C213.55 135.023 213.676 135.043 213.676 135.043C213.676 135.043 213.095 135.96 213.417 136.539C213.737 137.12 218.544 132.538 218.544 132.538C218.544 132.538 217.078 135.63 216.895 136.18C216.711 136.731 217.537 137.202 218.544 136.478C219.551 135.754 222.876 131.844 223.133 131.531C223.39 131.217 224.293 124.656 224.293 123.68C224.293 122.702 225.667 118.516 225.667 118.516C225.667 118.516 221.698 116.07 219.926 118.239Z" fill="#DECDD1"/>
<path d="M219.926 118.239C219.926 118.239 219.777 118.765 219.606 119.336C221.096 120.751 222.892 121.242 224.788 121.401C225.182 119.994 225.669 118.514 225.669 118.514C225.669 118.514 221.698 116.07 219.926 118.239Z" fill="#212B6C"/>
<path d="M216.483 125.774C215.749 128.544 213.631 133.96 213.59 134.49C213.55 135.02 213.676 135.041 213.676 135.041" stroke="#212B6C" stroke-width="0.5" stroke-miterlimit="10" stroke-linecap="round" stroke-linejoin="round"/>
<path d="M213.419 136.537C213.739 137.118 218.546 132.535 218.546 132.535C218.546 132.535 217.08 135.628 216.897 136.178" stroke="#212B6C" stroke-width="0.5" stroke-miterlimit="10" stroke-linecap="round" stroke-linejoin="round"/>
<path d="M213.678 135.041C213.678 135.041 214.12 135.632 214.813 134.654C215.507 133.675 217.462 130.112 217.584 129.928C217.706 129.745 218.155 129.398 218.257 129.255" stroke="#212B6C" stroke-width="0.5" stroke-miterlimit="10" stroke-linecap="round" stroke-linejoin="round"/>
<path d="M218.544 132.536C218.544 132.536 219.3 131.392 219.698 130.809C219.812 130.644 219.94 130.489 220.081 130.346" stroke="#212B6C" stroke-width="0.5" stroke-miterlimit="10" stroke-linecap="round" stroke-linejoin="round"/>
<path d="M217.011 136.653C217.011 136.653 217.252 137.167 218.31 135.559C219.37 133.95 221.392 131.641 221.492 131.518C221.594 131.396 221.798 131.253 221.798 131.253" stroke="#212B6C" stroke-width="0.5" stroke-miterlimit="10" stroke-linecap="round" stroke-linejoin="round"/>
<path d="M227.418 65.5222C225.879 61.7835 221.325 60.3585 217.932 62.5602C215.266 64.2889 214.255 67.7014 215.547 70.6063C219.088 78.5506 223.612 87.9361 223.612 87.9361C223.612 87.9361 222.472 93.3933 221.738 100.237C221.107 106.132 219.855 115.371 219.521 117.815C219.453 118.304 219.624 118.798 219.993 119.128C220.434 119.523 221.186 119.978 222.432 120.196C223.973 120.465 225.078 120.072 225.683 119.744C226.015 119.564 226.262 119.258 226.38 118.9C229.273 110.06 232.602 95.6275 233.933 89.6648C234.335 87.8668 234.282 85.9994 233.784 84.2259C231.517 76.1512 229.202 69.8623 227.418 65.5222Z" fill="black"/>
<path d="M219.3 78.8176C218.081 76.2001 216.756 73.3176 215.547 70.6043C214.838 69.0122 214.822 67.2672 215.39 65.7301" stroke="#212B6C" stroke-width="2" stroke-miterlimit="10" stroke-linecap="round" stroke-linejoin="round"/>
<path d="M219.73 116.274C219.73 116.274 220.911 117.84 223.174 118.154C225.793 118.516 226.829 117.491 226.829 117.491" stroke="white" stroke-width="2" stroke-miterlimit="10" stroke-linecap="round" stroke-linejoin="round"/>
<path d="M233.291 92.4943C233.291 92.4943 230.368 92.3821 230.007 88.6679C229.701 85.5204 232.268 84.391 232.268 84.391" stroke="#3862F8" stroke-width="0.5" stroke-miterlimit="10" stroke-linecap="round" stroke-linejoin="round"/>
<path d="M90.2172 21.8381H71.1078C70.5472 21.8381 70.0906 22.2927 70.0906 22.8553V33.3437C70.0906 33.9043 70.5452 34.3609 71.1078 34.3609H88.2765L90.419 36.4892C90.7207 36.7888 91.2344 36.5748 91.2344 36.1507V22.8573C91.2344 22.2947 90.7778 21.8381 90.2172 21.8381Z" fill="#F2A4D2"/>
<path d="M74.9525 27.4156H86.7598L80.8562 23.8766L74.9525 27.4156Z" stroke="white" stroke-width="2" stroke-miterlimit="10" stroke-linecap="round" stroke-linejoin="round"/>
<path d="M76.3347 27.4156V31.1502" stroke="white" stroke-width="2" stroke-miterlimit="10" stroke-linecap="round" stroke-linejoin="round"/>
<path d="M79.3028 27.4156V31.1502" stroke="white" stroke-width="2" stroke-miterlimit="10" stroke-linecap="round" stroke-linejoin="round"/>
<path d="M82.2709 27.4156V31.1502" stroke="white" stroke-width="2" stroke-miterlimit="10" stroke-linecap="round" stroke-linejoin="round"/>
<path d="M85.2391 27.4156V31.1502" stroke="white" stroke-width="2" stroke-miterlimit="10" stroke-linecap="round" stroke-linejoin="round"/>
<path d="M75.7537 31.1502H85.9587" stroke="white" stroke-width="2" stroke-miterlimit="10" stroke-linecap="round" stroke-linejoin="round"/>
<path d="M75.1197 32.1898H86.4846" stroke="white" stroke-width="2" stroke-miterlimit="10" stroke-linecap="round" stroke-linejoin="round"/>
<path d="M80.8562 25.5707C80.6299 25.5707 80.4485 25.7541 80.4485 25.9784C80.4485 26.2047 80.632 26.3861 80.8562 26.3861C81.0804 26.3861 81.2639 26.2026 81.2639 25.9784C81.2639 25.7521 81.0825 25.5707 80.8562 25.5707Z" stroke="white" stroke-width="2" stroke-miterlimit="10" stroke-linecap="round" stroke-linejoin="round"/>
<path d="M245.367 21.8381H226.258C225.697 21.8381 225.241 22.2927 225.241 22.8553V36.1487C225.241 36.5727 225.754 36.7868 226.056 36.4871L228.199 34.3589H245.367C245.928 34.3589 246.385 33.9043 246.385 33.3416V22.8533C246.385 22.2947 245.928 21.8381 245.367 21.8381Z" fill="#F7CB71"/>
<path d="M229.291 29.397L232.162 26.5267C232.539 26.1496 233.152 26.1496 233.529 26.5267L236.989 29.9862C237.366 30.3633 237.98 30.3633 238.357 29.9862L241.092 27.2504" stroke="white" stroke-width="2" stroke-linecap="round" stroke-linejoin="round"/>
<path d="M241.702 28.3655L242.334 26.009L239.977 26.6409L241.702 28.3655Z" fill="white"/>
</svg>
